<svg xmlns="http://www.w3.org/2000/svg" viewBox="0 0 1920 1080"><defs><style>.cls-1{fill:#efd4ca;}.cls-2{fill:#e0ac89;}.cls-3{fill:#476861;}.cls-4{fill:#c4885b;}.cls-5{fill:#7a311e;}.cls-6{fill:#7a3f34;}.cls-7{fill:#4c1b0a;}</style></defs><g id="Layer_1" data-name="Layer 1"><rect class="cls-1" width="1920" height="1080"/><path class="cls-2" d="M1090,837H-73V8.3C-.8-10.29,50.18,5.55,84,24.38c44.66,24.86,91.66,30.55,139,78.92,35.2,36,40.68,58.71,74,76,39.23,20.36,48.56-2.39,100,11.69,56.42,15.45,57.58,46.2,109,54.08,38.8,6,42.17-10.94,86-4.38,42.24,6.31,73.24,27.1,87,36.53,53.18,36.46,59.53,70.36,104,111.08,40.94,37.5,68.54,39,125,59.93,50.09,18.59,120.06,51.47,203,114Z"/><path class="cls-3" d="M757,815H1920V248c-72.2-12.72-123.18-1.88-157,11-44.66,17-91.66,20.9-139,54-35.2,24.61-40.68,40.17-74,52-39.23,13.93-48.56-1.63-100,8-56.42,10.57-57.58,31.61-109,37-38.8,4.07-42.17-7.48-86-3-42.24,4.32-73.24,18.54-87,25-53.18,24.94-59.53,48.14-104,76-40.94,25.65-68.54,26.66-125,41-50.09,12.72-120.06,35.22-203,78Z"/><path class="cls-4" d="M1683,1050H237V585c79.72,35.8,141.16,39.58,182.53,36.42C483.14,616.54,529,593,594.4,612.06c19.76,5.76,32.39,12.81,55.74,12.14,42-1.2,54.52-25.5,92.91-34.55a81,81,0,0,1,24.19-2.31c43.08,2.87,63,15,94.94,22.85,52,12.82,104.35-3.89,124.79-10.42,28.49-9.1,51.73-22.19,84.7-18.83,7.15.73,20.2,2.06,34.79,8.81,19.78,9.16,21.58,18.66,34.16,22.76,21,6.84,34.74-13.6,62.93-20.3C1255,580,1272,633.09,1336,628c27.48-2.2,44.49-13.62,94.36-13.87,8.72-.05,12.1.28,24.21.76,33.8,1.35,86.22,3.44,130.74-2.35A357.11,357.11,0,0,0,1683,585Z"/></g><g id="Layer_3" data-name="Layer 3"><path class="cls-5" d="M1163,1080H0V513c72.2-12.72,123.18-1.88,157,11,44.66,17,91.66,20.9,139,54,35.2,24.61,40.68,40.17,74,52,39.23,13.93,48.56-1.63,100,8,56.42,10.57,57.58,31.61,109,37,38.8,4.07,42.17-7.48,86-3,42.24,4.32,73.24,18.54,87,25,53.18,24.94,59.53,48.14,104,76,40.94,25.65,68.54,26.66,125,41,50.09,12.72,120.06,35.22,203,78Z"/></g><g id="Layer_4" data-name="Layer 4"><path class="cls-6" d="M844.42,1080H1920V503.77c-66.77-12.92-113.92-1.91-145.2,11.18-41.3,17.29-84.77,21.24-128.55,54.88-32.55,25-37.62,40.82-68.44,52.85-36.27,14.15-44.9-1.66-92.48,8.13-52.18,10.73-53.25,32.12-100.81,37.6-35.88,4.13-39-7.61-79.53-3-39.07,4.39-67.74,18.85-80.46,25.41-49.18,25.34-55.06,48.92-96.19,77.23-41.29,28.44-47,10-115.6,41.67C965.35,831.55,957.32,843.87,911,863a456.54,456.54,0,0,1-86,25.94Z"/></g><g id="Layer_2" data-name="Layer 2"><path class="cls-7" d="M1920,1080H0V820l78,15a163.71,163.71,0,0,0,28,5c42.31,3.81,62.69-11.16,101.5-11.5,22.17-.19,29.1,5.38,54,9,61,8.86,96.66-3.45,147-9,73.35-8.08,65,10.65,174,11,116.64.38,113.41-21.11,182-9,56.15,9.91,83.46,28.75,136,19,36.89-6.85,43.42-19.85,74.87-29.14,66.32-19.61,93.5,21.59,186.13,37.14,129.48,21.74,188.19-40,278,0,11.8,5.25,34.48,16.87,68,21,32.61,4,41.93-3.18,93-6,59.73-3.3,57.12,6,95,0,47.74-7.54,50.31-22,91-23,33-.78,41.84,8.53,69,4,28.86-4.81,50.5-20.58,64.5-33.5Z"/></g></svg>
