<svg xmlns="http://www.w3.org/2000/svg" viewBox="0 0 160 165"><defs><style>.cls-1{fill:#cd3a00;}.cls-2{fill:#b3b3b3;}.cls-3{fill:none;stroke:#333;stroke-miterlimit:10;}</style></defs><g id="hvalborg"><path class="cls-1" d="M108.65,64.11c5.54,19.24,11.72,38.71,8.56,58.63a6.73,6.73,0,0,1-4.22,5.17c-14.41,5.71-28.1,9.68-43.36,11.37a6.75,6.75,0,0,1-7.54-6.45c-.21-8.3,3.2-14.33-3.25-18.85a6.62,6.62,0,0,1-2.78-4.16c-3.64-19.2-13.75-35.28-12.58-55.08a6.85,6.85,0,0,1,4.14-5.9c14.72-6.22,30-9,45.78-11.62a6.76,6.76,0,0,1,7.54,4.6c2.94,9.29-6.37,11.74,4.64,18.33A6.84,6.84,0,0,1,108.65,64.11Z"/><path class="cls-2" d="M105.88,28.53c3.11,8-28.59,19.4-32.47,19.81S43.89,55.75,42,46.41s20-13.07,27.53-13.83S102.78,20.53,105.88,28.53Z"/><path class="cls-3" d="M85.54,34.8c.72,2.19-3.88,4.41-5.41,4.54s-6.22,4.38-7.4,1.44,4.37-5.55,5.48-5.53S84.82,32.61,85.54,34.8Z"/><path class="cls-3" d="M78.65,37c.68.84-2.35,2.35-3,2.74s-3.19,1.12-3.55.27,1.31-.73,1.92-1S78,36.16,78.65,37Z"/><path class="cls-3" d="M103.17,29.74c2.67,6.69-26,16.79-29.55,17.19s-26.69,6.7-28.21-1.15,18.21-11.32,25-12.07S100.49,23.05,103.17,29.74Z"/><path d="M97.51,77.61c-5.29,4.1-3.68,6.77,2.08,8.15.78.19.36.68.16.94h0c-.21.26-.24.53-1.08.26-6.26-2-7.57-6.11-2-10.37.75-.58.7-.25.94,0h0C97.84,76.89,98.22,77.06,97.51,77.61Z"/><path d="M67.94,83c5.3,4.1,3.69,6.77-2.07,8.15-.78.18-.36.67-.16.93h0c.2.27.23.54,1.08.27,6.25-2.06,7.57-6.11,2-10.37-.75-.58-.7-.25-.94,0h0C67.61,82.23,67.23,82.4,67.94,83Z"/><path d="M87,103.75c1.22-5.34,3.76-5.06,6.76-1.26.41.51.63,0,.75-.21h0c.13-.24.32-.36-.18-.89-3.67-3.93-7.13-3.51-8.38,2.08-.17.76.06.61.35.69h0C86.58,104.25,86.84,104.47,87,103.75Z"/></g></svg>
