<svg xmlns="http://www.w3.org/2000/svg" viewBox="0 0 160 165"><defs><style>.cls-1{fill:#fff6fd;}.cls-2{fill:#c92200;}.cls-3,.cls-6{fill:#8ad5ff;}.cls-3{opacity:0.24;}.cls-4{fill:#f0eaf0;}.cls-5{opacity:0.45;}.cls-6{opacity:0.54;}.cls-7{fill:#fff;}</style></defs><g id="hvalborg"><path class="cls-1" d="M92.7,151.33a11.28,11.28,0,0,1-5.58-2.79c-1.56-1.5-1.76-2.69-2.8-2.79-1.67-.16-2.42,2.75-5.58,5.58a11.21,11.21,0,0,1-5.58,2.79c-3.94.48-8.24-3.09-11.17-8.37-4.85,6-12.82,7.2-17.7,3.74-3.67-2.61-4.39-7.83-4.63-11.19-1.49-20.84,3.49-57.52,5-68.14q-2.51-11.52-5-23A15.83,15.83,0,0,1,55.49,31.29H90.83A15.75,15.75,0,0,1,102,35.93c2.65,2.64,4.07,6.2,4.64,11.19,2,17.09-4.68,62.78-5,65,3.14,6.66,6.09,15.9,5,26.14-.85,7.95-3.46,10.34-4.64,11.19A12,12,0,0,1,92.7,151.33Z"/><path class="cls-1" d="M87.12,31.29c-.33,3.51-16.05,9.6-25.13,2.79a14,14,0,0,1-2.79-2.79V24.9A4.77,4.77,0,0,1,64,20.13H82.34a4.77,4.77,0,0,1,4.78,4.77v3.6h0C87.12,29.24,87.15,30.9,87.12,31.29Z"/><rect class="cls-2" x="56.41" y="10.84" width="33.5" height="13.16" rx="1.14"/><path d="M77.06,127.87c-3.21-7.32-6.61-6.14-9.64.25-.41.86-.85.24-1.09-.07h0c-.24-.31-.54-.42,0-1.33,3.91-6.8,8.78-7.25,12.11.42.45,1,.09.89-.28,1.1h0C77.78,128.45,77.49,128.85,77.06,127.87Z"/><path d="M86.39,106.39c3.7,6.59,7.35,5.43,10.45-.47.41-.8.91-.25,1.18,0h0c.26.27.59.37,0,1.21-4,6.3-9.3,6.83-13.14-.07-.51-.93-.12-.81.27-1h0C85.6,105.88,85.89,105.5,86.39,106.39Z"/><path d="M49.41,105.26c3.7,6.59,7.35,5.43,10.44-.47.42-.8.92-.24,1.18,0h0c.27.28.6.37.06,1.22-4,6.29-9.31,6.82-13.14-.08-.51-.93-.12-.81.27-1h0C48.62,104.75,48.91,104.37,49.41,105.26Z"/><path class="cls-3" d="M91.7,149c-2.9-.27-5.8-2.25-6.7-2.86-1.38-.94-1.71-1.44-2.54-1.43-1.74,0-2.36,2.23-4.72,4.29a12,12,0,0,1-5.58,2.79c-3.82.54-8.15-3.05-11.17-8.38-6.42,3.3-12.14,4.38-14.93,3.21a7.61,7.61,0,0,1-2.74-1.94,7.22,7.22,0,0,1-1.47-3.78c-1.39-10.76,1.25-28.81,2-33.78a30.53,30.53,0,0,0,12.4,3.49,35.35,35.35,0,0,0,18.61-3.49H93.48c4.94-.07,5.46-.31,6.2,0a1.83,1.83,0,0,1,1,.76c.7,1.09-.27,2.4-.58,4.83a15,15,0,0,0,0,2.79c.25,4.66,2.15,6.76,2.8,11.17a20,20,0,0,1,0,5.58,13.32,13.32,0,0,1-.1,8.65,12.7,12.7,0,0,1-4.22,5.72C97.58,147.39,95,149.33,91.7,149Z"/><rect class="cls-4" x="44.45" y="71.37" width="16.75" height="2.79" rx="0.19" transform="matrix(1, 0.03, -0.03, 1, 1.97, -1.39)"/><rect class="cls-4" x="89.84" y="79.9" width="15.54" height="2.59" rx="0.19" transform="translate(6.8 -7.54) rotate(4.58)"/><g class="cls-5"><circle class="cls-6" cx="48.36" cy="123.04" r="3.16"/></g><path class="cls-7" d="M50.32,121.26s0,0,0,0-.16.07-.27,0a2.13,2.13,0,0,0-.82-.47c-.16-.06,0-.18.09-.25s0,0,0,0a.4.4,0,0,1,.35,0,1.59,1.59,0,0,1,.66.47C50.41,121.06,50.46,121.22,50.32,121.26Z"/><g class="cls-5"><circle class="cls-6" cx="53.99" cy="128.6" r="2.42"/></g><path class="cls-7" d="M55.49,127.24s0,0,0,0-.12.05-.21,0a1.63,1.63,0,0,0-.63-.36c-.12,0,0-.14.08-.19s0,0,0,0a.24.24,0,0,1,.26,0,1.16,1.16,0,0,1,.51.36C55.56,127.09,55.59,127.21,55.49,127.24Z"/><path class="cls-7" d="M96.5,144c0-.09-.07,0,0,0-.22-.91-.35-1.11.43-1.79a14.37,14.37,0,0,0,3.48-5.19c.48-1,1.24-.16,1.6.74,0,.1,0-.09,0,0a2.32,2.32,0,0,1,0,2.27,10.57,10.57,0,0,1-3.42,4.18C97.8,144.68,96.71,144.91,96.5,144Z"/></g></svg>
