<svg xmlns="http://www.w3.org/2000/svg" xmlns:xlink="http://www.w3.org/1999/xlink" viewBox="0 0 1920 1080"><defs><style>.cls-1{fill:#ccc;}.cls-2,.cls-3,.cls-4{fill:#3f90ff;}.cls-2{opacity:0.46;}.cls-3{opacity:0.17;}.cls-4{opacity:0.25;}.cls-35,.cls-5{fill:none;}.cls-6{fill:#998675;opacity:0.79;}.cls-7{fill:#7fc0ff;}.cls-31,.cls-7{opacity:0.54;}.cls-21,.cls-8{fill:#fff;}.cls-9{fill:url(#linear-gradient);}.cls-10{fill:url(#linear-gradient-2);}.cls-11{fill:url(#linear-gradient-3);}.cls-12{fill:url(#linear-gradient-4);}.cls-13{fill:url(#linear-gradient-5);}.cls-14{fill:url(#linear-gradient-6);}.cls-15{fill:url(#linear-gradient-7);}.cls-16{fill:url(#linear-gradient-8);}.cls-17{fill:url(#linear-gradient-9);}.cls-18{fill:url(#linear-gradient-10);}.cls-19{fill:#007199;}.cls-20{fill:#fc697a;opacity:0.4;}.cls-21{opacity:0.62;}.cls-22{fill:#005185;opacity:0.82;}.cls-23{fill:#fadae5;}.cls-24{fill:#1fdcff;}.cls-25{fill:url(#linear-gradient-11);}.cls-26{fill:#fff6fd;}.cls-27{fill:#c92200;}.cls-28,.cls-31{fill:#8ad5ff;}.cls-28{opacity:0.24;}.cls-29{fill:#f0eaf0;}.cls-30{opacity:0.45;}.cls-32{fill:#f8e200;}.cls-33{fill:#cd3a00;}.cls-34{fill:#b3b3b3;}.cls-35{stroke:#333;stroke-miterlimit:10;}.cls-36{fill:#e0ccd4;}.cls-37{fill:#009e43;}.cls-38{fill:#bf0050;}.cls-39{fill:#006a3e;}.cls-40{fill:#8fedf7;}.cls-41{opacity:0.68;}.cls-42{opacity:0.75;}.cls-43{fill:#ff7686;}</style><linearGradient id="linear-gradient" x1="-128.72" y1="813.91" x2="215.17" y2="813.91" gradientTransform="matrix(1, 0, 0, 1, -0.06, -0.8)" gradientUnits="userSpaceOnUse"><stop offset="0" stop-color="#fff"/><stop offset="0" stop-color="#003f19"/><stop offset="0.13" stop-color="#003f19"/><stop offset="0.53" stop-color="#013e19"/><stop offset="1"/></linearGradient><linearGradient id="linear-gradient-2" x1="213.53" y1="927.21" x2="394.14" y2="927.21" gradientTransform="translate(-10.09 -1.1) rotate(-0.21)" xlink:href="#linear-gradient"/><linearGradient id="linear-gradient-3" x1="459.81" y1="1008.89" x2="521.81" y2="1008.89" gradientTransform="translate(1500.97 515.73) rotate(90)" gradientUnits="userSpaceOnUse"><stop offset="0" stop-color="#754c24"/><stop offset="0.38" stop-color="#724a24"/><stop offset="1"/></linearGradient><linearGradient id="linear-gradient-4" x1="534.23" y1="1029.63" x2="579.6" y2="1029.63" gradientTransform="translate(1547.6 406.08) rotate(86.22)" gradientUnits="userSpaceOnUse"><stop offset="0" stop-color="#c69c6d"/><stop offset="0.71" stop-color="#724a24"/><stop offset="1"/></linearGradient><linearGradient id="linear-gradient-5" x1="1310.33" y1="854.41" x2="1372.33" y2="854.41" gradientTransform="translate(2205.34 -432.88) rotate(90)" xlink:href="#linear-gradient-3"/><linearGradient id="linear-gradient-6" x1="1198.25" y1="924.45" x2="1243.61" y2="924.45" gradientTransform="translate(2062.91 -354.75) rotate(86.22)" xlink:href="#linear-gradient-4"/><linearGradient id="linear-gradient-7" x1="556.16" y1="938" x2="641.87" y2="938" gradientTransform="translate(-10.09 -1.1) rotate(-0.21)" xlink:href="#linear-gradient"/><linearGradient id="linear-gradient-8" x1="1263.1" y1="890.95" x2="1326.91" y2="890.95" gradientTransform="translate(-10.09 -1.1) rotate(-0.21)" xlink:href="#linear-gradient"/><linearGradient id="linear-gradient-9" x1="1351.74" y1="855.89" x2="1394.83" y2="855.89" gradientTransform="translate(-10.09 -1.1) rotate(-0.21)" xlink:href="#linear-gradient"/><linearGradient id="linear-gradient-10" x1="428.83" y1="819.06" x2="471.92" y2="819.06" gradientTransform="translate(-10.09 -1.1) rotate(-0.21)" xlink:href="#linear-gradient"/><linearGradient id="linear-gradient-11" x1="-0.06" y1="733.04" x2="456.04" y2="733.04" gradientTransform="matrix(-1.06, 0, 0, 1, 2037.87, -0.27)" xlink:href="#linear-gradient"/></defs><g id="Layer_1" data-name="Layer 1"><rect class="cls-1" x="0.5" y="0.5" width="1919" height="1079"/><path d="M1919,1V1079H1V1H1919m1-1H0V1080H1920V0Z"/></g><g id="Layer_2" data-name="Layer 2"><path class="cls-2" d="M1920,1080H0V-217l189.59,88.09c4.84,2.71,13.4,7.34,24.08,12.15,131.46,59.19,235.51-11.87,260.81-27.34C667-261.82,864.92,47.6,1288-65.13c110.18-29.35,174-70.91,367.14-112.38A2080.65,2080.65,0,0,1,1920-217Z"/><path class="cls-3" d="M1917,858H3V397l189,31.31c4.82,1,13.36,2.61,24,4.32,131.05,21,234.78-4.22,260-9.72,191.92-41.84,389.21,68.14,811,28.07,109.85-10.43,173.43-25.2,366-39.94,111-8.5,202.61-12.22,264-14Z"/><path class="cls-4" d="M1916,1080H2V172l189,61.67c4.82,1.9,13.36,5.14,24,8.5,131.05,41.44,234.78-8.3,260-19.13,191.92-82.42,389.21,134.2,811,55.28,109.85-20.55,173.43-49.64,366-78.68,111-16.73,202.61-24.06,264-27.64Z"/><rect class="cls-5" x="-4.92" y="-5.57" width="1920" height="1080"/><path class="cls-6" d="M1920,1081H0V818.53A800.49,800.49,0,0,1,168,789c125.06-8.33,199.32,16.91,301.11,29.53C600,834.77,606.77,809.1,804,805.41c312.27-5.85,305.26,58.31,520,32.81,150.44-17.88,201.28-55,363-51.41a1049.68,1049.68,0,0,1,233,31.72Z"/><circle class="cls-7" cx="650.02" cy="245.44" r="19.25"/><path class="cls-8" d="M653.77,231.16c-.06.06.06,0,0,0-.61.6-.71.79-1.61.5a13.2,13.2,0,0,0-5.74-.31c-1,.11-.71-.9-.16-1.61h0a2.12,2.12,0,0,1,1.81-1,9.49,9.49,0,0,1,4.91.74C653.7,229.81,654.39,230.57,653.77,231.16Z"/><circle class="cls-7" cx="612.03" cy="283.68" r="10.58"/><path class="cls-8" d="M614.09,275.83s0,0,0,0c-.33.33-.39.43-.88.27a7.33,7.33,0,0,0-3.15-.17c-.57.06-.4-.49-.09-.88,0,0,0,0,0,0a1.16,1.16,0,0,1,1-.57,5.24,5.24,0,0,1,2.7.41C614.05,275.09,614.43,275.5,614.09,275.83Z"/><path class="cls-8" d="M613.69,292.34s0,0,0,0c.15-.28.16-.36.51-.36a5,5,0,0,0,2.06-.56c.35-.16.35.23.24.55,0,0,0,0,0,0a.8.8,0,0,1-.51.57,3.52,3.52,0,0,1-1.82.31C613.88,292.81,613.55,292.62,613.69,292.34Z"/><circle class="cls-7" cx="1530.9" cy="431.44" r="19.25"/><path class="cls-8" d="M1545.62,432.54c-.07-.05,0,.07,0,0-.69-.5-.9-.55-.78-1.5a13.1,13.1,0,0,0-.74-5.69c-.28-1,.77-.87,1.56-.45h0a2.1,2.1,0,0,1,1.34,1.59,9.63,9.63,0,0,1,.17,5C1546.94,432.22,1546.32,433,1545.62,432.54Z"/><circle class="cls-7" cx="1486.42" cy="401.01" r="10.58"/><path class="cls-8" d="M1494.51,401.61s0,0,0,0c-.39-.27-.5-.3-.43-.82a7.18,7.18,0,0,0-.41-3.13c-.16-.55.42-.48.86-.25h0a1.19,1.19,0,0,1,.74.87,5.4,5.4,0,0,1,.09,2.73C1495.23,401.44,1494.89,401.89,1494.51,401.61Z"/><path class="cls-8" d="M1478.2,404.21s0,0,0,0c.3.09.38.09.45.44a4.82,4.82,0,0,0,.92,1.91c.22.32-.17.4-.5.34h0a.79.79,0,0,1-.65-.4,3.48,3.48,0,0,1-.64-1.73C1477.77,404.48,1477.89,404.12,1478.2,404.21Z"/><circle class="cls-7" cx="676.73" cy="567.32" r="33.27"/><path class="cls-8" d="M699.15,555.12c-.15,0,0,.12,0,0-1.48-.07-1.84,0-2.54-1.44-1.49-3.14-3.55-5.08-6.41-7.58-1.35-1.19.3-2,1.84-2.12h0a3.68,3.68,0,0,1,3.44,1c2.16,2.11,4,4.22,4.88,7.05C700.76,553.43,700.63,555.19,699.15,555.12Z"/><circle class="cls-7" cx="1274.72" cy="696.33" r="19.25"/><path class="cls-8" d="M1278.46,682.05c-.06.06.07,0,0,0-.61.6-.71.79-1.61.5a13.2,13.2,0,0,0-5.74-.31c-1,.1-.71-.9-.16-1.61h0a2.12,2.12,0,0,1,1.81-1,9.47,9.47,0,0,1,4.91.74C1278.39,680.7,1279.08,681.46,1278.46,682.05Z"/><circle class="cls-7" cx="1234.73" cy="726.57" r="10.58"/><path class="cls-8" d="M1236.79,718.72s0,0,0,0c-.34.33-.4.43-.89.27a7.33,7.33,0,0,0-3.15-.17c-.57.06-.39-.49-.09-.88h0a1.16,1.16,0,0,1,1-.57,5.24,5.24,0,0,1,2.7.41C1236.74,718,1237.12,718.39,1236.79,718.72Z"/><path class="cls-8" d="M1236.38,735.23s0,0,0,0c.15-.28.16-.36.51-.36a5,5,0,0,0,2.06-.56c.35-.16.35.23.24.55h0a.8.8,0,0,1-.51.57,3.52,3.52,0,0,1-1.82.31C1236.57,735.7,1236.24,735.51,1236.38,735.23Z"/><circle class="cls-7" cx="341.72" cy="484.33" r="19.25"/><path class="cls-8" d="M345.46,470.05c-.06.06.07,0,0,0-.61.6-.71.79-1.61.5a13.2,13.2,0,0,0-5.74-.31c-1,.1-.71-.9-.16-1.61h0a2.12,2.12,0,0,1,1.81-1,9.47,9.47,0,0,1,4.91.74C345.39,468.7,346.08,469.46,345.46,470.05Z"/><circle class="cls-7" cx="303.73" cy="522.57" r="10.58"/><path class="cls-8" d="M305.79,514.72s0,0,0,0c-.34.33-.4.43-.89.27a7.33,7.33,0,0,0-3.15-.17c-.57.06-.39-.49-.09-.88h0a1.16,1.16,0,0,1,1-.57,5.24,5.24,0,0,1,2.7.41C305.74,514,306.12,514.39,305.79,514.72Z"/><path class="cls-8" d="M305.38,531.23s0,0,0,0c.15-.28.16-.36.51-.36a5,5,0,0,0,2.06-.56c.35-.16.35.23.24.55h0a.8.8,0,0,1-.51.57,3.52,3.52,0,0,1-1.82.31C305.57,531.7,305.24,531.51,305.38,531.23Z"/><ellipse class="cls-7" cx="387.34" cy="725.7" rx="27.75" ry="25.85"/><path class="cls-8" d="M392.74,706.53c-.09.08.09,0,0,0-.89.8-1,1.06-2.33.67-2.76-.84-5.11-.7-8.27-.42-1.49.14-1-1.21-.23-2.17h0a3.12,3.12,0,0,1,2.6-1.38,14.74,14.74,0,0,1,7.08,1C392.63,704.71,393.63,705.73,392.74,706.53Z"/><path class="cls-8" d="M391.69,746.88c0-.07-.07,0,0,0,.38-.69.41-.89,1.33-.89a13.43,13.43,0,0,0,5.39-1.37c.92-.38.93.57.64,1.34h0a2,2,0,0,1-1.35,1.4,10.07,10.07,0,0,1-4.75.77C392.17,748,391.3,747.57,391.69,746.88Z"/><ellipse class="cls-7" cx="1494.93" cy="856.44" rx="33.15" ry="30.01"/><path class="cls-8" d="M1501.39,834.17c-.11.09.1.06,0,0-1.06.93-1.23,1.24-2.79.78-3.29-1-6.1-.81-9.87-.48-1.78.16-1.23-1.41-.28-2.52h0a3.74,3.74,0,0,1,3.11-1.6c3-.12,5.83-.06,8.45,1.15C1501.26,832.07,1502.45,833.24,1501.39,834.17Z"/><path class="cls-8" d="M1500.13,881c0-.08-.08,0,0,0,.46-.79.49-1,1.6-1a16.36,16.36,0,0,0,6.43-1.59c1.1-.44,1.12.67.77,1.56h0a2.33,2.33,0,0,1-1.61,1.62,12.09,12.09,0,0,1-5.69.89C1500.71,882.35,1499.67,881.82,1500.13,881Z"/><path class="cls-9" d="M-60,1074c24.47-39.17,46.75-96.19,11.38-125.87-20.21-17-52-15.84-70.3-34.82-23.76-24.6-1.08-74.5,33.05-72.7,39.87,2.1,72.5,57.37,108,39.09,30.65-15.78,15.34-63.87-9.79-87.5S-47,744.5-43.8,710.13c3-32.64,49.39-51,73.92-29.33,5.93,5.25,10.61,12.18,17.75,15.6,19,9.09,39.72-13.76,39.87-34.83s-11.32-40.29-16.15-60.8.88-47.36,21.15-53c10.6-3,22.08,1.11,31,7.54,36.82,26.49,34.59,82.68,18.15,125S98.46,762.68,97.85,808.07c-.15,10.74,2.85,23.64,13,27.1,19.29,6.58,26.35-24.44,39.78-39.79,14.67-16.77,45.1-12.57,57.56,5.9s7.47,45.39-8.32,61.1C182.22,880,155.8,884.13,131.64,890.1s-50.43,17.19-59.07,40.56,17.53,55,38.6,41.71c7.83-4.94,12-14.07,19-20.09,19.1-16.32,52.85.76,56.05,25.7s-18.08,48.41-42.58,54c-19.19,4.34-39.72,0-58.62,5.47s-35.22,28.95-22.94,44.35"/><path class="cls-10" d="M243.42,1061.4c12.78-20.59,24.38-50.54,5.75-66-10.65-8.86-27.32-8.21-37-18.12-12.53-12.86-.71-39.08,17.22-38.2,20.95,1,38.18,30,56.8,20.29,16.07-8.34,7.94-33.53-5.31-45.87s-31.25-24.9-29.66-42.93c1.52-17.13,25.85-26.87,38.77-15.53,3.12,2.74,5.6,6.37,9.35,8.15,10,4.73,20.84-7.3,20.88-18.35s-6-21.11-8.6-31.85.38-24.84,11-27.84c5.56-1.57,11.6.54,16.31,3.89,19.39,13.82,18.32,43.29,9.76,65.51s-22.66,43.3-22.9,67.11c-.05,5.63,1.54,12.39,6.88,14.18,10.15,3.42,13.8-12.87,20.82-20.95,7.67-8.82,23.66-6.68,30.24,3s4,23.79-4.26,32.06c-9.23,9.24-23.1,11.49-35.78,14.67S317.26,973.7,312.76,986s9.31,28.8,20.35,21.8c4.11-2.61,6.28-7.4,10-10.57,10-8.61,27.76.29,29.49,13.36s-9.41,25.43-22.27,28.38c-10.07,2.31-20.86.08-30.77,3s-18.44,15.26-12,23.31"/><ellipse class="cls-11" cx="492.08" cy="1006.54" rx="11" ry="31" transform="translate(-544.7 1431.22) rotate(-86.22)"/><ellipse class="cls-12" cx="556.91" cy="1029.63" rx="8.06" ry="22.73" transform="translate(-507.18 1517.48) rotate(-86.22)"/><ellipse class="cls-13" cx="1350.93" cy="908.45" rx="11" ry="31" transform="matrix(0.07, -1, 1, 0.07, 355.43, 2196.57)"/><ellipse class="cls-14" cx="1220.93" cy="924.45" rx="8.06" ry="22.73" transform="translate(218.03 2081.8) rotate(-86.22)"/><path class="cls-15" d="M566.87,999.43c6.07-9.77,11.57-24,2.73-31.34-5.05-4.2-13-3.89-17.55-8.59-5.95-6.1-.34-18.54,8.17-18.13,9.94.49,18.12,14.21,26.95,9.63,7.62-4,3.77-15.91-2.52-21.77s-14.83-11.81-14.07-20.37c.72-8.12,12.26-12.75,18.39-7.37,1.49,1.3,2.66,3,4.44,3.87,4.74,2.24,9.89-3.46,9.91-8.71s-2.86-10-4.08-15.11.18-11.79,5.22-13.21c2.64-.75,5.5.25,7.74,1.85,9.2,6.55,8.69,20.54,4.63,31.08S606.08,921.81,606,933.1c0,2.68.73,5.88,3.26,6.73,4.81,1.62,6.55-6.1,9.88-9.94,3.64-4.18,11.23-3.17,14.35,1.42s1.9,11.29-2,15.21c-4.38,4.39-11,5.46-17,7s-12.55,4.32-14.69,10.14,4.42,13.67,9.66,10.35c2-1.24,3-3.51,4.73-5,4.75-4.08,13.17.14,14,6.35s-4.46,12.06-10.56,13.46c-4.78,1.1-9.9,0-14.61,1.42s-8.75,7.24-5.67,11.06"/><path class="cls-16" d="M1269.2,933.29c4.51-7.28,8.61-17.86,2-23.33-3.76-3.13-9.65-2.9-13.07-6.4-4.42-4.54-.25-13.81,6.09-13.5,7.4.36,13.49,10.58,20.06,7.17,5.68-3,2.81-11.85-1.87-16.21s-11-8.79-10.48-15.16c.53-6.05,9.13-9.5,13.69-5.49,1.11,1,2,2.25,3.31,2.88,3.53,1.67,7.36-2.58,7.37-6.48s-2.12-7.46-3-11.26.13-8.77,3.89-9.83a7,7,0,0,1,5.76,1.37c6.85,4.89,6.47,15.3,3.45,23.15s-8,15.3-8.09,23.71c0,2,.54,4.37,2.43,5,3.58,1.2,4.87-4.55,7.35-7.4,2.71-3.12,8.36-2.36,10.69,1.05s1.41,8.41-1.51,11.33c-3.26,3.26-8.16,4.06-12.64,5.18s-9.34,3.22-10.93,7.56,3.29,10.17,7.19,7.7c1.45-.92,2.22-2.61,3.52-3.74,3.53-3,9.81.11,10.42,4.73s-3.33,9-7.87,10c-3.56.82-7.37,0-10.87,1.06s-6.52,5.39-4.23,8.23"/><path class="cls-17" d="M1353.51,882.29c3-4.91,5.82-12,1.37-15.75-2.54-2.12-6.51-2-8.82-4.32-3-3.07-.17-9.33,4.11-9.12,5,.25,9.11,7.15,13.55,4.84,3.83-2,1.89-8-1.27-10.94s-7.46-5.94-7.07-10.24c.36-4.09,6.16-6.41,9.24-3.71a10.86,10.86,0,0,0,2.24,2c2.38,1.13,5-1.74,5-4.38s-1.44-5-2.06-7.6.09-5.92,2.63-6.64a4.72,4.72,0,0,1,3.89.93c4.63,3.3,4.37,10.33,2.33,15.63s-5.41,10.33-5.46,16c0,1.34.36,2.95,1.64,3.38,2.42.82,3.29-3.07,5-5,1.83-2.1,5.65-1.59,7.22.71a6.24,6.24,0,0,1-1,7.65c-2.2,2.21-5.51,2.75-8.53,3.5s-6.31,2.18-7.39,5.11,2.23,6.87,4.86,5.2c1-.62,1.5-1.77,2.38-2.53,2.38-2.05,6.62.07,7,3.19s-2.24,6.07-5.31,6.77c-2.4.56-5,0-7.34.72s-4.4,3.64-2.86,5.56"/><path class="cls-18" d="M430.47,848.84c3-4.91,5.82-12.06,1.37-15.76-2.54-2.11-6.52-2-8.82-4.32-3-3.06-.17-9.32,4.11-9.11,5,.24,9.11,7.14,13.55,4.84,3.83-2,1.89-8-1.27-10.94s-7.46-5.94-7.08-10.24c.37-4.09,6.17-6.41,9.25-3.71a10.72,10.72,0,0,0,2.23,1.94c2.39,1.13,5-1.74,5-4.37s-1.43-5-2.05-7.6.09-5.93,2.63-6.64a4.68,4.68,0,0,1,3.89.93c4.62,3.29,4.37,10.32,2.33,15.62s-5.41,10.33-5.46,16c0,1.35.36,3,1.64,3.39,2.42.81,3.29-3.07,5-5,1.83-2.1,5.65-1.59,7.22.71a6.25,6.25,0,0,1-1,7.65c-2.2,2.21-5.51,2.74-8.53,3.5s-6.31,2.18-7.39,5.1,2.22,6.87,4.86,5.2c1-.62,1.5-1.76,2.38-2.52,2.38-2,6.62.07,7,3.19s-2.24,6.07-5.31,6.77c-2.4.55-5,0-7.34.71s-4.4,3.64-2.86,5.56"/><path class="cls-19" d="M1102.18,801.49C1096,945.4,1080.85,958.68,928.44,954.68s-181.58.9-198.7-166.2,43.51-243.93,214.17-232.66S1108.36,657.58,1102.18,801.49Z"/><path class="cls-19" d="M1187.09,811.79c-8.49,78.89-21.67,101.31-106.55,128.06s-126,25.67-77.06-73.27,45.22-53,96.52-33.39S1195.58,732.9,1187.09,811.79Z"/><path class="cls-19" d="M1199.89,751.56c4,14,15.59,47.29-5.17,49.36s-41.87-15.81-47.57-36.43,5.32-42.75,26.23-42.54S1195.92,737.52,1199.89,751.56Z"/><path class="cls-19" d="M1203.22,758.51c-10.8,9.81-38.24,31.9-21.71,44.64s43.89,8.72,59.64-5.77,18.09-39.1.23-50S1214,748.7,1203.22,758.51Z"/><circle cx="788.46" cy="750.16" r="38.18"/><ellipse class="cls-8" cx="809.46" cy="739.16" rx="10.81" ry="11.13" transform="translate(37.12 1517.02) rotate(-87.6)"/><circle class="cls-8" cx="765.46" cy="772.16" r="3.19"/><circle cx="1046.46" cy="750.16" r="38.18"/><ellipse class="cls-8" cx="1025.46" cy="739.16" rx="11.13" ry="10.81" transform="translate(-30 43.5) rotate(-2.4)"/><circle class="cls-8" cx="1069.46" cy="772.16" r="3.19"/><ellipse class="cls-20" cx="750.46" cy="816.16" rx="12.76" ry="13.56" transform="translate(-96.35 1531.85) rotate(-87.6)"/><path class="cls-21" d="M794.78,937.07c.1,1.43,2.55,2.65,7.44,5.1,14.09,7,26.26,6.81,53.24,9.06,16.2,1.36,12.45,1.5,24.58,2.4,17.41,1.29,26.39,1.1,50.15,1.41,10.41.14,28.77.32,65.5.69,24,.24,31.93.34,33.3-2.71,3-6.65-28.08-21.67-29.7-22.44C920.85,893.07,793.81,924.12,794.78,937.07Z"/><path class="cls-22" d="M1099.25,851.72c8.6,6.49,4.86,32.52-6.58,37.75-3.11,1.42-12.43-1.48-31-7.35-8.07-2.56-9.37-3.13-9.78-4.49C1049.34,869,1087.38,842.77,1099.25,851.72Z"/><ellipse class="cls-22" cx="926.89" cy="567.12" rx="4.32" ry="14.69" transform="translate(321.54 1469.5) rotate(-87.6)"/><ellipse class="cls-23" cx="951.47" cy="517.17" rx="12.36" ry="18.25" transform="translate(-131.06 487.22) rotate(-26.94)"/><ellipse class="cls-23" cx="961.47" cy="518.17" rx="18.27" ry="12.36" transform="translate(3.1 1042.06) rotate(-56.99)"/><ellipse class="cls-23" cx="922.67" cy="476.47" rx="8.81" ry="13.01" transform="translate(-115.74 469.76) rotate(-26.94)"/><ellipse class="cls-23" cx="929.8" cy="477.18" rx="13.03" ry="8.81" transform="translate(23.06 996.85) rotate(-56.99)"/><ellipse class="cls-23" cx="963.95" cy="449.82" rx="8.81" ry="13.01" transform="translate(-77.31 232.29) rotate(-13.22)"/><ellipse class="cls-23" cx="970.71" cy="452.21" rx="13.03" ry="8.81" transform="translate(-46.12 788.11) rotate(-43.26)"/><path d="M900.37,823.79c11.75-22.52,22.29-18.07,30.55,2.85,1.11,2.81,2.64,1,3.46,0h0c.82-.93,1.8-1.22.32-4.23-11-22.38-26.31-24.85-38.5-1.24-1.64,3.18-.48,2.79.65,3.55h0C898,825.49,898.79,826.82,900.37,823.79Z"/><path class="cls-24" d="M1100.69,814.47c1,10.17-9,25.39-22,27.38s-23.42-16.73-18.27-26,13-38.06,18-35.7S1099.72,804.3,1100.69,814.47Z"/><path class="cls-8" d="M1094.54,819.57c-.06-.07,0,.07,0,0-.61-.7-.82-.82-.45-1.79a14.24,14.24,0,0,0,.7-6.21c0-1.13,1-.72,1.76-.08h0a2.31,2.31,0,0,1,1,2,10.38,10.38,0,0,1-1.11,5.29C1096,819.58,1095.14,820.28,1094.54,819.57Z"/><path d="M747.18,714.66a16.66,16.66,0,0,1,11.35-8.16,1.51,1.51,0,0,0,1.05-1.84,1.54,1.54,0,0,0-1.85-1,19.59,19.59,0,0,0-13.14,9.54c-.94,1.68,1.65,3.2,2.59,1.51Z"/><path d="M1085.15,713.42a19.53,19.53,0,0,0-13.14-9.53,1.53,1.53,0,0,0-1.84,1.05,1.5,1.5,0,0,0,1,1.84,16.64,16.64,0,0,1,11.35,8.16,1.5,1.5,0,0,0,2.59-1.52Z"/><path class="cls-25" d="M1946.43,1076.72c-34.52-52-66.06-127.71-16.7-166.83,28.21-22.35,72.68-20.66,98.26-45.7,33.14-32.45,1.07-98.7-46.72-96.52-55.84,2.55-101.21,75.58-151.06,51.15-43-21.1-21.87-84.71,13.19-115.87s82.85-62.83,78.21-108.39c-4.4-43.26-69.49-67.92-103.72-39.3-8.27,6.92-14.79,16.08-24.77,20.57-26.53,11.92-55.72-18.48-56.06-46.39s15.61-53.31,22.26-80.45-1.52-62.75-29.94-70.35c-14.87-4-30.92,1.35-43.41,9.81-51.42,34.87-48,109.33-24.67,165.47s61.35,109.42,62.48,169.56c.27,14.22-3.85,31.29-18,35.82-27,8.61-37.06-32.54-56-53-20.65-22.3-63.24-16.92-80.59,7.48s-10.19,60.09,12,81c24.83,23.38,61.86,29.07,95.73,37.14s70.74,23.07,83,54.08-24.23,72.73-53.81,55c-11-6.58-16.91-18.71-26.81-26.73-26.86-21.74-74,.69-78.36,33.72s25.61,64.24,60,71.73c26.91,5.86,55.63.23,82.14,7.59s49.5,38.57,32.4,58.91"/><ellipse class="cls-7" cx="279.87" cy="668.74" rx="52.26" ry="56.1" transform="translate(-394.24 402.07) rotate(-45.71)"/><path class="cls-8" d="M314.77,648.61c-.24,0,.06.19,0,0-2.42-.1-3,.09-4.32-2.32-2.81-5.1-6.41-8.23-11.38-12.27-2.35-1.91.23-3.21,2.72-3.47h0c2.49-.26,3.93.06,5.73,1.67,3.79,3.42,7.13,6.83,8.84,11.43C317.17,645.83,317.18,648.7,314.77,648.61Z"/><path class="cls-8" d="M256.27,705.52c.15,0-.08-.11,0,0,1.53-.45,1.85-.69,3.19.6,2.85,2.74,5.76,4,9.73,5.62,1.88.75.54,2.15-1,2.85h0a4,4,0,0,1-3.93.12c-3.1-1.43-5.91-3-8-5.6C255.36,707.85,254.74,706,256.27,705.52Z"/></g><g id="Layer_3" data-name="Layer 3"><path class="cls-26" d="M1411.2,1050.19a13,13,0,0,1-5.13-5.14c-1.17-2.23-1-3.63-2-4.12-1.79-.79-3.69,2.15-8.23,4.1a13.05,13.05,0,0,1-7.2,1c-4.52-.93-7.95-6.45-9.23-13.37-7.58,4.86-16.82,3.21-20.93-2.42-3.09-4.24-2-10.26-1-14.07,6.07-23.55,25.12-62.22,30.7-73.38q1.5-13.65,3-27.29a18.44,18.44,0,0,1,23.33-11.63l39,13.07a18.4,18.4,0,0,1,10.64,9.26c1.94,3.89,2.2,8.34,1,14.07-4.16,19.59-28.38,67.59-29.58,70,1,8.51.85,19.8-4.13,30.7-3.87,8.48-7.64,10.14-9.25,10.65A14,14,0,0,1,1411.2,1050.19Z"/><path class="cls-26" d="M1449.42,915.59c-1.66,3.76-21.27,4.66-28.78-6.21a16.77,16.77,0,0,1-2.05-4.11l1-3.08.74-2.19.59-1.79a5.57,5.57,0,0,1,7-3.51l20.28,6.79a5.57,5.57,0,0,1,3.51,7l-1.33,4h0C1450.17,913.33,1449.6,915.17,1449.42,915.59Z"/><rect class="cls-27" x="1419.63" y="887.44" width="39.01" height="15.32" rx="1.14" transform="translate(358.67 -410.62) rotate(18.51)"/><path d="M1402.61,1018.51c-.84-9.27-5-9.23-10.75-3.29-.76.8-1-.05-1.17-.48h0c-.15-.43-.44-.66.48-1.48,6.83-6,12.38-4.75,13.21,5,.12,1.31-.22,1-.71,1.11h0C1403.18,1019.42,1402.72,1019.76,1402.61,1018.51Z"/><path d="M1420.85,998.24c1.65,8.64,6.11,8.71,11.71,3.34.75-.73,1.1.07,1.29.47h0c.19.4.52.63-.39,1.36-6.79,5.46-12.8,4.1-14.48-4.94-.22-1.22.16-.93.67-1h0C1420.16,997.38,1420.63,997.08,1420.85,998.24Z"/><path d="M1380.43,983.32c1.65,8.64,6.11,8.71,11.71,3.34.76-.72,1.1.07,1.29.47h0c.2.41.52.63-.39,1.37-6.78,5.45-12.8,4.09-14.47-5-.23-1.21.15-.93.67-1h0C1379.75,982.46,1380.21,982.16,1380.43,983.32Z"/><path class="cls-28" d="M1410.94,1047.29c-3.1-1.36-5.57-4.62-6.34-5.63-1.17-1.55-1.35-2.22-2.27-2.51-1.93-.62-3.43,1.58-6.8,3a13.92,13.92,0,0,1-7.19,1c-4.42-.81-7.87-6.38-9.24-13.37-8.31,1.26-15,.34-17.67-2a9.15,9.15,0,0,1-2.31-3.15,8.58,8.58,0,0,1-.23-4.73c2.45-12.4,12-31.35,14.71-36.55a35.75,35.75,0,0,0,12.41,8.44,41.35,41.35,0,0,0,21.83,3l6.85,2.29,6.85,2.29,6.85,2.29c5.49,1.76,6.15,1.68,6.84,2.3a2.19,2.19,0,0,1,.8,1.19c.37,1.46-1.19,2.55-2.42,5.12a17.09,17.09,0,0,0-1,3.08c-1.45,5.24-.14,8.26-1,13.36a23,23,0,0,1-2.06,6.17,15.48,15.48,0,0,1-3.31,9.52,14.9,14.9,0,0,1-6.77,4.76C1418,1047.65,1414.44,1048.83,1410.94,1047.29Z"/><rect class="cls-29" x="1386.47" y="947.08" width="19.5" height="3.25" rx="0.19" transform="translate(409.89 -421.19) rotate(20.05)"/><rect class="cls-29" x="1433.51" y="973.07" width="18.09" height="3.02" rx="0.19" transform="translate(497.85 -487.71) rotate(23.09)"/><g class="cls-30"><circle class="cls-31" cx="1372.71" cy="1002.57" r="3.68"/></g><path class="cls-8" d="M1375.53,1001.33s0,0,0,0c-.17,0-.21,0-.29-.15a2.46,2.46,0,0,0-.73-.82c-.15-.13,0-.22.2-.24h0a.42.42,0,0,1,.38.1,1.83,1.83,0,0,1,.56.77C1375.7,1001.14,1375.69,1001.33,1375.53,1001.33Z"/><g class="cls-30"><circle class="cls-31" cx="1376.86" cy="1010.79" r="2.81"/></g><path class="cls-8" d="M1379,1009.84s0,0,0,0-.15,0-.22-.11a1.85,1.85,0,0,0-.56-.63c-.12-.1,0-.17.15-.18h0a.32.32,0,0,1,.3.08,1.45,1.45,0,0,1,.43.58C1379.15,1009.69,1379.15,1009.84,1379,1009.84Z"/><path class="cls-8" d="M1418.11,1043.51c0-.11-.09,0,0,0,.09-1.09,0-1.35,1.13-1.82a16.57,16.57,0,0,0,5.76-4.45c.91-1,1.44.28,1.5,1.42,0,.11,0-.12,0,0a2.71,2.71,0,0,1-.89,2.48,12.1,12.1,0,0,1-5.32,3.35C1419.29,1044.74,1418,1044.59,1418.11,1043.51Z"/><path class="cls-26" d="M524.1,834.23a9.12,9.12,0,0,1-3.62-3.58c-.83-1.56-.68-2.54-1.45-2.88-1.26-.55-2.58,1.52-5.75,2.9a9.2,9.2,0,0,1-5,.74c-3.17-.64-5.59-4.49-6.52-9.34-5.29,3.44-11.77,2.31-14.66-1.62-2.19-3-1.41-7.18-.74-9.85,4.16-16.52,17.38-43.68,21.25-51.52l2-19.14a12.92,12.92,0,0,1,16.31-8.22l27.39,9a12.87,12.87,0,0,1,7.49,6.44c1.37,2.73,1.56,5.84.73,9.86-2.84,13.74-19.64,47.46-20.48,49.13.74,6,.67,13.87-2.78,21.53-2.69,5.95-5.32,7.13-6.45,7.48A9.73,9.73,0,0,1,524.1,834.23Z"/><path class="cls-26" d="M550.4,739.79c-1.15,2.64-14.88,3.34-20.18-4.25a11.43,11.43,0,0,1-1.46-2.87l.72-2.17L530,729l.42-1.26a3.89,3.89,0,0,1,4.91-2.48l14.24,4.69a3.9,3.9,0,0,1,2.48,4.92l-.92,2.79h0C550.92,738.2,550.53,739.5,550.4,739.79Z"/><rect class="cls-27" x="529.46" y="720.11" width="27.33" height="10.73" rx="1.14" transform="translate(254.14 -133.47) rotate(18.22)"/><path d="M518,812.06c-.62-6.48-3.55-6.44-7.53-2.27-.54.57-.72,0-.83-.32h0c-.11-.3-.31-.47.33-1,4.77-4.27,8.66-3.37,9.28,3.42.08.91-.16.71-.5.78h0C518.37,812.7,518.05,812.94,518,812.06Z"/><path d="M530.67,797.8c1.19,6.05,4.31,6.08,8.22,2.3.53-.51.77,0,.91.32h0c.13.28.36.44-.27,1-4.74,3.85-9,2.92-10.16-3.41-.16-.85.1-.66.46-.72h0C530.19,797.2,530.52,797,530.67,797.8Z"/><path d="M502.3,787.49c1.19,6,4.31,6.08,8.22,2.3.52-.51.77,0,.9.32h0c.14.28.37.44-.26,1-4.74,3.85-9,2.92-10.16-3.41-.17-.85.1-.66.46-.72h0C501.82,786.89,502.14,786.67,502.3,787.49Z"/><path class="cls-28" d="M523.91,832.2a12.76,12.76,0,0,1-4.47-3.92c-.82-1.08-1-1.55-1.6-1.76-1.35-.42-2.39,1.13-4.75,2.12a9.74,9.74,0,0,1-5,.74c-3.1-.55-5.53-4.44-6.52-9.34-5.81.92-10.52.29-12.38-1.32a6.3,6.3,0,0,1-1.63-2.2,5.91,5.91,0,0,1-.18-3.31c1.67-8.7,8.32-22,10.18-25.66a24.9,24.9,0,0,0,8.72,5.86,28.8,28.8,0,0,0,15.31,2.05l4.8,1.58,4.81,1.58,4.81,1.59c3.85,1.2,4.31,1.15,4.8,1.58a1.59,1.59,0,0,1,.57.83c.26,1-.83,1.79-1.68,3.6a11.47,11.47,0,0,0-.72,2.16c-1,3.67-.06,5.79-.68,9.37a15.8,15.8,0,0,1-1.43,4.32,10.82,10.82,0,0,1-2.28,6.68,10.31,10.31,0,0,1-4.73,3.36A8.23,8.23,0,0,1,523.91,832.2Z"/><rect class="cls-29" x="506.41" y="762.04" width="13.67" height="2.28" rx="0.19" transform="translate(288.29 -128.59) rotate(19.76)"/><rect class="cls-29" x="539.46" y="780.09" width="12.68" height="2.11" rx="0.19" transform="translate(345.44 -150.49) rotate(22.81)"/><g class="cls-30"><circle class="cls-31" cx="496.96" cy="801" r="2.58"/></g><path class="cls-8" d="M498.93,800.12s0,0,0,0-.14,0-.2-.1a1.65,1.65,0,0,0-.52-.57c-.11-.09,0-.16.14-.17h0a.26.26,0,0,1,.27.07,1.46,1.46,0,0,1,.4.53C499.05,800,499.05,800.12,498.93,800.12Z"/><g class="cls-30"><circle class="cls-31" cx="499.9" cy="806.75" r="1.97"/></g><path class="cls-8" d="M501.41,806.07s0,0,0,0-.11,0-.16-.08a1.32,1.32,0,0,0-.39-.43c-.08-.07,0-.12.1-.13h0a.24.24,0,0,1,.21.05,1,1,0,0,1,.3.41C501.5,806,501.5,806.08,501.41,806.07Z"/><path class="cls-8" d="M528.91,829.52c0-.07-.06,0,0,0,.07-.75,0-.94.79-1.27a11.66,11.66,0,0,0,4-3.14c.63-.67,1,.19,1,1,0,.08,0-.08,0,0a1.87,1.87,0,0,1-.61,1.74,8.53,8.53,0,0,1-3.72,2.37C529.75,830.38,528.85,830.28,528.91,829.52Z"/><path class="cls-32" d="M1654.39,991.59c-56.52,10.11-46.1,18.29-87.09,40.55a25.25,25.25,0,0,1-36.09-14.65c-20.11-63.35-5.22-95,16.6-157.73a25.4,25.4,0,0,1,26-17.09c35.16,2.93,67.4-2.82,102.88,2.69a25.21,25.21,0,0,1,19.89,33.27c-20.08,57.39-20.44,12.53-21.43,88.43A25.23,25.23,0,0,1,1654.39,991.59Z"/><path class="cls-32" d="M1695.25,762.44c.11-.33.23-.65.36-1,1.39-3.52-2.55-6.78-5.87-4.94-46.48,25.83-14.74,52-11.61,93.92a4.08,4.08,0,0,0,3.49,3.64c.47.07,1,.17,1.42.26a4.09,4.09,0,0,0,4.86-4.4c-3.41-32.83-34.18-70.11,4.77-84.72A4.3,4.3,0,0,0,1695.25,762.44Z"/><path d="M1615.85,946.61c-5.23-12.68-11.11-10.8-16.57,0-.73,1.46-1.46.38-1.86-.16h0c-.4-.54-.91-.74,0-2.29,7-11.5,15.36-12.08,20.77,1.21.73,1.79.12,1.52-.52,1.87h0C1617.05,947.64,1616.55,948.32,1615.85,946.61Z"/><path d="M1570.32,901c8.52,12.59,15.65,9.65,20.87-2.7.7-1.67,1.79-.64,2.37-.14h0c.58.51,1.26.64.31,2.43-7,13.3-17.51,15.26-26.35,2-1.19-1.77-.39-1.59.37-2.06h0C1568.64,900.09,1569.18,899.3,1570.32,901Z"/><path d="M1640,889.09c8.52,12.59,15.65,9.66,20.87-2.7.7-1.67,1.79-.64,2.37-.14h0c.58.51,1.26.64.31,2.44-7,13.29-17.51,15.25-26.35,2-1.19-1.78-.39-1.6.37-2.07h0C1638.33,888.2,1638.86,887.4,1640,889.09Z"/><path class="cls-32" d="M1535.8,758.77c-.29-5.19,1.37-9.14,3.1-13.94-66.09,39.38-7.09,69.73,22.84,106.61,5.23-2.66,10.74-2.73,16.46-3.37C1529.26,798.92,1501.67,813.33,1535.8,758.77Z"/><path class="cls-32" d="M1536,758c-4.51.3-7.73-.3-12.17-1.15,55.28-50.72,47.59,28.37,53.31,96-5.76,2.29-9.74,6.58-14.63,10.26C1562,852.61,1556.91,699.45,1536,758Z"/><path class="cls-33" d="M520.15,917.31c8.88,19.42,18.48,39,18.31,60.47a7.22,7.22,0,0,1-3.64,6.13c-14.29,8.29-28.09,14.64-43.92,18.84a7.19,7.19,0,0,1-9-5.6c-1.54-8.72,1.1-15.62-6.41-19.37a7.08,7.08,0,0,1-3.59-3.94c-6.88-19.67-20.09-35-22-56.1a7.29,7.29,0,0,1,3.43-6.87c14.54-8.89,30.25-14.27,46.43-19.5a7.21,7.21,0,0,1,8.68,3.66c4.57,9.33-4.86,13.39,7.79,18.59A7.27,7.27,0,0,1,520.15,917.31Z"/><path class="cls-34" d="M511.6,880.23c4.54,7.94-27.08,25-31.1,26s-30,12.49-33.39,2.93,19-17,26.83-18.94S507.06,872.29,511.6,880.23Z"/><path class="cls-35" d="M491.14,890.07c1.11,2.19-3.39,5.26-5,5.64s-5.87,5.6-7.58,2.69,3.72-6.55,4.9-6.7S490,887.87,491.14,890.07Z"/><path class="cls-35" d="M484.22,893.48c.86.78-2.11,2.84-2.72,3.36s-3.18,1.69-3.69.85,1.26-1,1.86-1.34S483.37,892.7,484.22,893.48Z"/><path class="cls-35" d="M508.93,881.94c3.88,6.63-24.81,21.82-28.43,22.8S453.41,916,450.56,908,468,893.18,475,891.31,505.05,875.31,508.93,881.94Z"/><path d="M510.54,933.31c-4.93,5.16-2.81,7.72,3.48,8.27.85.07.49.65.31,1h0c-.17.3-.16.6-1.09.44-6.92-1.17-8.95-5.24-3.76-10.61.7-.72.7-.37,1-.12h0C510.78,932.5,511.2,932.62,510.54,933.31Z"/><path d="M480.21,943.62c6.23,3.49,5,6.56-.9,8.92-.79.32-.28.77,0,1h0c.25.25.33.53,1.18.11,6.27-3.15,7-7.64.48-11.25-.88-.49-.78-.15-1,.18h0C479.74,942.92,479.37,943.15,480.21,943.62Z"/><path d="M503.59,962.54c.44-5.82,3.16-5.93,6.93-2.4.51.47.67-.06.76-.34h0c.09-.27.28-.43-.33-.91-4.5-3.57-8.08-2.57-8.51,3.52-.06.82.16.63.47.68h0C503.23,963.13,503.54,963.33,503.59,962.54Z"/><path class="cls-36" d="M1137.79,1051.11c-9.12,4.43-18.59,7.84-27.88,11.91a11.5,11.5,0,0,1-14.12-4c-19.46-28.3-38.31-48.87-52.48-80.76a11.46,11.46,0,0,1,8-15.93c19.45-4,39.13-4.58,59-5.5a11.49,11.49,0,0,1,11.8,9.24c7.68,38.91,4.92,35.6,20.9,69.9A11.44,11.44,0,0,1,1137.79,1051.11Z"/><path class="cls-37" d="M1127.28,960.54c-43.8,11.19-55.19,10.3-98.65,12.12a2,2,0,0,1-2.1-2.21c.57-5.83.91-4.46-1.19-9.77a2,2,0,0,1,1.67-2.75c32.56-3.49,60.72-11.22,97-13.66a2,2,0,0,1,2.16,2.11c-.26,6.87,0,5.3,2.47,11.44A2,2,0,0,1,1127.28,960.54Z"/><path class="cls-38" d="M1094.3,893.35c-4.89,1.41-15,8.24-20.93,11.77a2,2,0,0,1-3-1.11c-.1-.33-.21-.65-.32-1a2,2,0,0,1,1.14-2.52c8.39-3.48,12.76-8,21.86-11.06a2,2,0,0,1,2.65,2.28v0A2,2,0,0,1,1094.3,893.35Z"/><ellipse class="cls-39" cx="1080.47" cy="952.58" rx="7.56" ry="2.84" transform="translate(-90.36 113.54) rotate(-5.77)"/><path class="cls-38" d="M1073.85,900.7l-2.52,1a2,2,0,0,0-1.19,2.45c5.22,17.5,10.37,26.52,8.68,45.87a2.06,2.06,0,0,0,1.43,2.13c.39.12.77.26,1.15.41a2,2,0,0,0,2.73-1.92c-.25-21.08-.78-28-7.63-48.69A2,2,0,0,0,1073.85,900.7Z"/><path d="M1112.64,1022.82c-4.65-4.56-6.87-2.63-7.21,3.12,0,.77-.57.44-.85.28h0c-.27-.16-.53-.16-.41-1,.89-6.32,4.44-8.14,9.28-3.36.65.65.34.64.12.92h0C1113.36,1023,1113.27,1023.43,1112.64,1022.82Z"/><path d="M1077.58,1007.66c8.12,2,9.31-1.59,5.93-8.17-.45-.89.34-.86.75-.86h0c.41,0,.69-.18,1.12.84,3.15,7.57.42,11.9-8.06,9.79-1.14-.29-.8-.49-.74-.93h0C1076.64,1007.88,1076.49,1007.39,1077.58,1007.66Z"/><path d="M1115.49,994.13c-6.72,5.7-9.53,2.89-9.45-4.91,0-1.05-.72-.65-1.11-.46h0c-.38.19-.73.16-.65,1.32.59,8.62,5.21,11.42,12.21,5.43.94-.81.52-.84.26-1.23h0C1116.48,993.89,1116.39,993.36,1115.49,994.13Z"/><path class="cls-36" d="M671.92,858.92c-7.67,0-15.23-.85-22.88-1.18a8.71,8.71,0,0,1-8.27-7.39C637,824.68,631,804.46,632,778.11A8.67,8.67,0,0,1,642.73,770c14.54,3.74,28.09,9.89,41.89,15.88A8.68,8.68,0,0,1,689.56,796c-7.71,29-8.48,25.8-9,54.39A8.65,8.65,0,0,1,671.92,858.92Z"/><path class="cls-37" d="M694.86,794c-33.44-7-40.88-11.34-71-24.54a1.54,1.54,0,0,1-.7-2.2c2.33-3.76,2.1-2.72,2.44-7a1.53,1.53,0,0,1,2-1.32c23.25,8.45,44.93,12.56,70.37,23a1.53,1.53,0,0,1,.77,2.14c-2.46,4.58-1.78,3.59-2.13,8.59A1.53,1.53,0,0,1,694.86,794Z"/><path class="cls-38" d="M694.79,737.4c-3.79-.66-12.9.63-18.11,1a1.52,1.52,0,0,1-1.64-1.73c0-.26.07-.51.11-.77a1.52,1.52,0,0,1,1.61-1.33c6.85.42,11.31-1.2,18.51-.25a1.53,1.53,0,0,1,1,2.43l0,0A1.51,1.51,0,0,1,694.79,737.4Z"/><ellipse class="cls-39" cx="665.74" cy="773.01" rx="2.14" ry="5.71" transform="translate(-290.23 1129.21) rotate(-69.7)"/><path class="cls-38" d="M678.47,735.61l-2-.16a1.54,1.54,0,0,0-1.63,1.27c-2.27,13.61-1.77,21.44-9.34,34a1.56,1.56,0,0,0,.27,1.92l.64.66a1.52,1.52,0,0,0,2.49-.39c6.83-14.39,8.75-19.24,11-35.58A1.52,1.52,0,0,0,678.47,735.61Z"/><path d="M664.24,831.36c-1.64-4.63-3.78-4.06-5.93-.28-.29.51-.53.12-.66-.08h0c-.14-.2-.32-.29.05-.82,2.7-4,5.71-4.06,7.41.8.23.65,0,.55-.22.66h0C664.66,831.75,664.47,832,664.24,831.36Z"/><path d="M645.48,809.43c4.86,4.05,6.85,2,6.74-3.57,0-.76.52-.47.8-.34h0c.27.14.53.11.47.94-.37,6.19-3.66,8.22-8.71,4-.69-.57-.38-.59-.2-.88h0C644.77,809.27,644.83,808.89,645.48,809.43Z"/><path d="M675.7,812.84c-6.45,1.64-7.42-1.2-4.78-6.47.36-.71-.27-.68-.6-.68h0c-.32,0-.55-.14-.88.68-2.46,6-.26,9.48,6.49,7.74.9-.24.63-.39.58-.75h0C676.46,813,676.57,812.62,675.7,812.84Z"/><path class="cls-33" d="M1464.8,804.58c-7.39,17.28-14.44,35.11-28.56,47.73a6.34,6.34,0,0,1-6.15,1.26c-13.86-4.4-26.18-9.63-38.29-17.46a6.34,6.34,0,0,1-1.66-9.16c4.77-6.17,10.83-8.53,8.83-15.65a6.21,6.21,0,0,1,.44-4.67c8.74-16.13,10.93-33.83,23.54-47.54a6.41,6.41,0,0,1,6.5-1.84c14.41,4.21,27.22,11.26,40.21,18.71a6.35,6.35,0,0,1,2.76,7.82c-3.38,8.5-11.61,4.76-7.51,16.09A6.39,6.39,0,0,1,1464.8,804.58Z"/><path class="cls-34" d="M1483.9,777.05c-2.48,7.65-32.32-2.85-35.38-4.86s-25.88-12.12-21.68-20,22.31,2.36,28.23,6.27S1486.38,769.39,1483.9,777.05Z"/><path class="cls-35" d="M1465.37,769.54c-.77,2-5.44.91-6.63.09s-7.12-.5-6.24-3.34,6.48-1.45,7.27-.77S1466.15,767.52,1465.37,769.54Z"/><path class="cls-35" d="M1459.05,767.05c0,1-3.1.31-3.8.22s-3-1.08-2.74-1.91,1.39.24,2,.43S1459.06,766,1459.05,767.05Z"/><path class="cls-35" d="M1481.2,776.32c-2,6.45-28.91-3.24-31.69-5s-23.4-11-19.85-17.58,20,2.58,25.35,6S1483.22,769.87,1481.2,776.32Z"/><path d="M1448.68,807.79c-6.28-.16-6.7,2.74-3.32,7.16.45.6-.14.71-.44.78h0c-.31.06-.49.25-.94-.45-3.34-5.21-1.89-8.94,4.69-8.74.88,0,.65.24.66.58h0C1449.35,807.46,1449.53,807.81,1448.68,807.79Z"/><path d="M1424,794.13c1.42,6.12-1.34,7.11-6.35,4.69-.67-.32-.66.28-.67.59h0c0,.31-.14.53.63.83,5.77,2.22,9.13,0,7.62-6.35-.2-.86-.36-.59-.7-.54h0C1424.18,793.41,1423.81,793.31,1424,794.13Z"/><path d="M1425.52,820.57c4.06-3.16,5.74-1.45,5.67,3.1,0,.61.44.39.67.29h0c.23-.1.44-.07.4-.75-.34-5.05-3.11-6.79-7.34-3.47-.57.45-.31.48-.15.71h0C1424.92,820.69,1425,821,1425.52,820.57Z"/><path class="cls-32" d="M264,964.12c-25.87.62-21.79,5-41.59,12.07a11.38,11.38,0,0,1-15.07-9c-4.6-29.61,4.21-42.67,18.26-69.14a11.43,11.43,0,0,1,12.74-5.82c15.47,3.72,30.23,3.38,45.65,8.28a11.38,11.38,0,0,1,6.58,16.2c-12.9,24.19-10,4.17-15.64,37.92A11.37,11.37,0,0,1,264,964.12Z"/><path class="cls-32" d="M298,864.84c.07-.14.14-.28.22-.41a1.84,1.84,0,0,0-2.27-2.61c-22.49,8.31-10.15,22.16-11.64,41a1.83,1.83,0,0,0,1.3,1.86l.62.21a1.83,1.83,0,0,0,2.46-1.62c.75-14.87-10.4-33.6,8-37.42A2,2,0,0,0,298,864.84Z"/><path d="M249.94,941.43c-1.45-6-4.21-5.58-7.38-1.12-.43.6-.68.07-.82-.2h0c-.14-.27-.36-.39.17-1,3.9-4.64,7.67-4.32,9.17,2,.2.85-.05.69-.36.8h0C250.41,942,250.14,942.24,249.94,941.43Z"/><path d="M232.8,918c2.93,6.19,6.3,5.37,9.48.23.43-.7.84-.16,1.07.1h0c.22.27.51.37,0,1.11-4,5.44-8.85,5.59-11.89-.91-.4-.87-.06-.73.31-.89h0C232.11,917.45,232.4,917.13,232.8,918Z"/><path d="M264.66,917.46c2.93,6.2,6.31,5.38,9.49.24.43-.7.84-.17,1.06.1h0c.23.27.52.37,0,1.1-4.05,5.44-8.85,5.6-11.88-.9-.41-.87-.06-.73.31-.89h0C264,917,264.27,916.63,264.66,917.46Z"/><path class="cls-32" d="M227.21,852.22c.23-2.33,1.24-4,2.35-6-32.16,13-8,30.58,2.83,49.08,2.51-.83,5-.48,7.56-.37C221.53,869.66,208.25,874.18,227.21,852.22Z"/><path class="cls-32" d="M227.36,851.88a19.86,19.86,0,0,1-5.34-1.35c28.12-18.79,19.25,15.91,17.14,46.43-2.72.62-4.79,2.25-7.22,3.56C232.44,895.84,240.7,827.24,227.36,851.88Z"/><path class="cls-26" d="M807,981.9a9.07,9.07,0,0,1-5.08-.16c-1.67-.58-2.23-1.39-3-1.12-1.3.46-.85,2.87-2.23,6a9.19,9.19,0,0,1-3.18,4c-2.76,1.7-7.15.53-11.13-2.38-1.53,6.11-7,9.7-11.82,8.8-3.61-.67-5.93-4.29-7.25-6.7-8.21-14.92-17-43.77-19.56-52.14l-11.56-15.36a12.91,12.91,0,0,1,6.32-17.12l26.17-12.06a12.86,12.86,0,0,1,9.86-.39c2.86,1.06,5.13,3.21,7.25,6.71,7.28,12,18,48.07,18.49,49.86,4.6,3.85,9.94,9.69,12.63,17.64,2.09,6.18,1,8.83.38,9.86A9.76,9.76,0,0,1,807,981.9Z"/><path class="cls-26" d="M761.91,894.94c1,2.71-8.61,12.58-17.65,10.64a11.86,11.86,0,0,1-3-1.11l-1-2.07-.68-1.47-.55-1.2a3.88,3.88,0,0,1,1.91-5.16l13.59-6.27a3.9,3.9,0,0,1,5.17,1.91l1.22,2.66h0C761.21,893.42,761.8,894.64,761.91,894.94Z"/><rect class="cls-27" x="733.18" y="884.07" width="27.31" height="10.72" rx="1.14" transform="translate(-303.74 394.32) rotate(-24.75)"/><path d="M787.42,969.87c-4.87-4.32-7-2.29-7.06,3.47,0,.78-.54.47-.83.33h0c-.28-.15-.54-.13-.46-1,.58-6.36,4-8.36,9.11-3.82.69.62.37.63.17.91h0C788.15,970.06,788.08,970.45,787.42,969.87Z"/><path d="M787,950.78c5,3.62,7.29,1.51,7.57-3.91,0-.73.59-.49.88-.38h0c.29.11.57.07.46.88-.85,6-4.56,8.23-9.75,4.43-.7-.52-.37-.56-.15-.84h0C786.23,950.67,786.33,950.3,787,950.78Z"/><path d="M759.23,962.57c5,3.61,7.3,1.51,7.57-3.92,0-.73.6-.49.89-.38h0c.29.12.57.07.45.89-.84,6-4.56,8.23-9.75,4.42-.7-.51-.37-.55-.14-.84h0C758.47,962.46,758.56,962.08,759.23,962.57Z"/><path class="cls-28" d="M805.48,980.54a12.71,12.71,0,0,1-5.94.17c-1.34-.22-1.75-.48-2.36-.19-1.28.61-1,2.45-2,4.79a9.93,9.93,0,0,1-3.18,4c-2.65,1.7-7.08.52-11.13-2.39-3.63,4.63-7.5,7.38-10,7.47a6.4,6.4,0,0,1-2.69-.5,5.93,5.93,0,0,1-2.38-2.3c-4.7-7.49-8.91-21.76-10-25.69a25,25,0,0,0,10.37-1.65,28.77,28.77,0,0,0,12.58-8.93l4.59-2.12,4.59-2.12,4.59-2.11c3.64-1.74,3.94-2.1,4.6-2.12a1.5,1.5,0,0,1,1,.23c.89.57.62,1.87,1.23,3.77a11.55,11.55,0,0,0,1,2.07c1.77,3.36,3.89,4.27,5.87,7.31a15.66,15.66,0,0,1,1.91,4.13,10.83,10.83,0,0,1,2.88,6.44,10.34,10.34,0,0,1-1.17,5.68A8.26,8.26,0,0,1,805.48,980.54Z"/><rect class="cls-29" x="743.85" y="936.21" width="13.65" height="2.28" rx="0.19" transform="matrix(0.92, -0.39, 0.39, 0.92, -308.65, 371.69)"/><rect class="cls-29" x="780.38" y="927.25" width="12.67" height="2.11" rx="0.19" transform="translate(-271.8 328.13) rotate(-20.17)"/><g class="cls-30"><circle class="cls-31" cx="764.53" cy="976.09" r="2.58"/></g><path class="cls-8" d="M765.37,974.1s0,0,0,0-.1.1-.22.06a1.74,1.74,0,0,0-.76-.06c-.14,0-.1-.13,0-.22h0a.3.3,0,0,1,.25-.13,1.3,1.3,0,0,1,.65.12C765.37,973.92,765.46,974,765.37,974.1Z"/><g class="cls-30"><circle class="cls-31" cx="770.59" cy="978.28" r="1.97"/></g><path class="cls-8" d="M771.24,976.76s0,0,0,0-.08.08-.17,0a1.42,1.42,0,0,0-.59,0c-.1,0-.07-.09,0-.16h0a.21.21,0,0,1,.19-.1.85.85,0,0,1,.5.09C771.23,976.63,771.3,976.71,771.24,976.76Z"/><path class="cls-8" d="M807.31,975.18c0-.06,0,.05,0,0-.47-.6-.63-.7-.29-1.48a11.42,11.42,0,0,0,.8-5c0-.93.87-.55,1.44,0,.06.06,0-.06,0,0a1.9,1.9,0,0,1,.75,1.69,8.56,8.56,0,0,1-1.11,4.26C808.51,975.24,807.78,975.78,807.31,975.18Z"/><path class="cls-36" d="M1237.93,883.72c-7.29-1.92-14.28-4.58-21.49-6.79a8.56,8.56,0,0,1-6-9.09c2.74-25.38,2.08-46.12,9.54-71a8.52,8.52,0,0,1,12.26-5.08c12.91,7.16,24.29,16.38,36,25.5a8.54,8.54,0,0,1,2.17,10.92c-14.52,25.67-14.47,22.47-22.08,49.55A8.5,8.5,0,0,1,1237.93,883.72Z"/><path class="cls-37" d="M1275.89,827.56c-30.12-14.92-36.11-20.94-61.5-41a1.51,1.51,0,0,1-.11-2.27c3.14-3,2.67-2.07,4.06-6.08a1.5,1.5,0,0,1,2.27-.75c20.05,13.81,39.68,23.1,61.32,39.31a1.51,1.51,0,0,1,.2,2.24c-3.47,3.75-2.58,3-4.15,7.65A1.51,1.51,0,0,1,1275.89,827.56Z"/><path class="cls-38" d="M1289.85,773.68c-3.44-1.57-12.44-2.6-17.51-3.5a1.51,1.51,0,0,1-1.13-2.06l.3-.7a1.5,1.5,0,0,1,1.86-.87c6.42,2.1,11.07,1.66,17.69,4.35a1.51,1.51,0,0,1,.39,2.57l0,0A1.49,1.49,0,0,1,1289.85,773.68Z"/><ellipse class="cls-39" cx="1253.35" cy="800.38" rx="2.11" ry="5.62" transform="translate(-120.17 1370.43) rotate(-55.1)"/><path class="cls-38" d="M1274.76,767.93l-1.91-.66a1.5,1.5,0,0,0-1.86.81c-5.54,12.39-7,20-17.33,30.07a1.52,1.52,0,0,0-.23,1.89c.16.26.31.52.45.79a1.5,1.5,0,0,0,2.47.24c10.08-12,13.11-16.14,19.29-31.15A1.49,1.49,0,0,0,1274.76,767.93Z"/><path d="M1237.46,855.58c-.42-4.82-2.6-4.81-5.58-1.74-.41.42-.54,0-.61-.24h0c-.08-.23-.23-.35.25-.77,3.57-3.14,6.45-2.44,6.86,2.6.06.68-.12.53-.37.58h0C1237.75,856.06,1237.51,856.23,1237.46,855.58Z"/><path d="M1225,830.05c3.62,5.05,6,3.61,7.31-1.74.17-.72.6-.32.83-.12h0c.24.2.48.23.23,1-1.89,5.8-5.53,6.92-9.29,1.62-.51-.72-.21-.66,0-.88h0C1224.39,829.72,1224.55,829.37,1225,830.05Z"/><path d="M1253,840.78c-6.55,0-6.77-3-2.94-7.34.51-.59-.1-.72-.41-.8h0c-.31-.08-.49-.27-1,.43-3.84,5.15-2.59,9,4.26,9,.92,0,.7-.22.74-.57h0C1253.64,841.13,1253.85,840.79,1253,840.78Z"/><path class="cls-32" d="M63.71,835.29c32.68,9.18,26.08,13.4,48.93,28.84a14.92,14.92,0,0,0,22.07-6.57c15.46-36.12,8.5-55.57-.76-93.76a15,15,0,0,0-14.29-11.54C98.79,752,80.15,746.75,59,748a14.91,14.91,0,0,0-13.61,18.44c8.54,34.92,11.32,8.54,7.57,53.26A14.91,14.91,0,0,0,63.71,835.29Z"/><path class="cls-32" d="M52.75,698.11c0-.2-.1-.4-.15-.59a2.42,2.42,0,0,1,3.73-2.58c25.88,17.86,5.7,31.45,1.47,55.93a2.4,2.4,0,0,1-2.26,1.94l-.85.08A2.42,2.42,0,0,1,52.08,750c3.88-19.13,24.11-39.3,2-50.13A2.55,2.55,0,0,1,52.75,698.11Z"/><path d="M89,811c3.79-7.16,7.15-5.72,9.74,1,.35.9.84.3,1.11,0h0c.26-.29.57-.38.11-1.35-3.45-7.17-8.35-8-12.29-.47-.53,1-.16.88.2,1.13h0C88.19,811.56,88.45,812,89,811Z"/><path d="M118.35,786.78c-5.73,6.92-9.76,4.79-12.12-2.79-.32-1-1-.47-1.39-.21h0c-.37.27-.78.31-.32,1.41,3.38,8.23,9.43,10,15.39,2.72.8-1,.32-.92-.1-1.24h0C119.39,786.35,119.12,785.85,118.35,786.78Z"/><path d="M78,775.8c-5.73,6.92-9.76,4.78-12.13-2.79-.31-1-1-.48-1.38-.21h0c-.38.26-.78.3-.33,1.41,3.39,8.23,9.44,10,15.39,2.71.81-1,.32-.91-.09-1.23h0C79.07,775.36,78.8,774.87,78,775.8Z"/><path class="cls-32" d="M146.79,705.06c.47-3-.29-5.46-1-8.38,36.64,27,.19,41.44-19.53,61.43-2.92-1.87-6.16-2.22-9.49-2.92C148.35,729.06,163.76,739.11,146.79,705.06Z"/><path class="cls-32" d="M146.71,704.58a26.13,26.13,0,0,0,7.23,0c-29.63-33-29.63,14-36.85,53.42,3.26,1.68,5.36,4.43,8,6.87C126,758.78,137.76,669,146.71,704.58Z"/></g><g id="Layer_4" data-name="Layer 4"><ellipse class="cls-40" cx="1323.7" cy="331.82" rx="335.88" ry="302.96"/><g class="cls-41"><path class="cls-8" d="M1578,198.08c-1.71.24.61,1.3,0,0-17.31,2.47-21.26,4.57-32.69-11.12-24.15-33.13-52.35-51-91.08-73.71-18.34-10.73-.93-23.52,16.63-28.67,1.81-.52-1.8.53,0,0,17.57-5.14,28.11-4.74,42.21,4.6,29.79,19.73,56.38,40,72.31,71C1593,174.86,1595.35,195.6,1578,198.08Z"/></g><g class="cls-42"><path class="cls-8" d="M1122.9,534.33c.51-.16-.24-.37,0,0,5.11-1.63,6.19-2.46,10.44,1.7,9,8.78,18.4,12.77,31.24,17.65,6.09,2.31,1.48,7.06-3.57,9.5h0c-5,2.44-8.25,2.86-13,.75-10-4.45-19-9.22-25.44-17.78C1119.57,542.09,1117.8,536,1122.9,534.33Z"/></g><path d="M1070.68,310.1c-.18-2-.49-4.89-.83-8.71a82,82,0,0,1-.33-10,62,62,0,0,1,1.11-9.39q.3-1.83,4.26-2.51c1.21-.25,2.45-.51,3.71-.81l3.51-.78a10.88,10.88,0,0,1,3.27-.2,6.57,6.57,0,0,1,2.91.92,9.36,9.36,0,0,1,4,4.67,33.22,33.22,0,0,1,1.51,7.65,16.36,16.36,0,0,1-2.41,10.79c-2,3.2-5.59,5.7-10.71,7.54a42,42,0,0,1-7.38,2.18C1071.66,311.57,1070.77,311.13,1070.68,310.1Zm15.5-26a3.89,3.89,0,0,0-2.77-1.25,6.5,6.5,0,0,0-3.49.9,3.07,3.07,0,0,0-1.07,1,4.13,4.13,0,0,0-.53,1.12,13.7,13.7,0,0,0-.26,1.39A59.51,59.51,0,0,0,1078,300a1.93,1.93,0,0,0,.84,1.65,3.54,3.54,0,0,0,2.37-.06,21.83,21.83,0,0,0,3.06-1.15,10.23,10.23,0,0,0,2.4-1.33,7.56,7.56,0,0,0,2.3-4.94,14.15,14.15,0,0,0-.54-5.84A11.39,11.39,0,0,0,1086.18,284.1Z"/><path d="M1101.68,297.37s0,0,0,0,0,0,0,0a2.58,2.58,0,0,0,1.13,1,3.62,3.62,0,0,0,1.27.37c.36,0,.95,0,1.76,0s1.37,0,1.68,0a11,11,0,0,0,3.34-.4,23.11,23.11,0,0,1,3-.67,7.48,7.48,0,0,1,3.15.13c.64.19.9.72.79,1.59a2.31,2.31,0,0,1-1.2,1.85,22.63,22.63,0,0,1-5.28,1.9,27.75,27.75,0,0,1-5.42.33,7,7,0,0,0-1,0h-1l-.89,0a6.54,6.54,0,0,1-.93-.08l-.79-.15a2.59,2.59,0,0,1-.82-.23,6.78,6.78,0,0,0-.69-.3,1.88,1.88,0,0,1-.68-.41c-.15-.15-.33-.33-.53-.55a3.09,3.09,0,0,1-.5-.7,10.72,10.72,0,0,1-1.32-3.66,11.64,11.64,0,0,1,0-3.68,29.33,29.33,0,0,1,1.16-4.32,10,10,0,0,1,5.85-5.88,21.29,21.29,0,0,1,5.7-1.92,9.88,9.88,0,0,1,5.23.47,3.41,3.41,0,0,1,2.31,2.24,13.64,13.64,0,0,1,.41,4.3q-.1,2.68-3.15,4.52a36.29,36.29,0,0,1-6.07,2.6A29,29,0,0,1,1101.68,297.37Zm4.46-11.28a6.46,6.46,0,0,0-2.57,1,4.62,4.62,0,0,0-1.56,1.78,8.88,8.88,0,0,0-.71,1.94,11,11,0,0,0-.24,2c.31-.13,1.81-.56,4.5-1.28a20.71,20.71,0,0,0,5.54-2.08,4.26,4.26,0,0,0,1.74-1.95c.21-.65,0-1.16-.81-1.55C1110.9,285.5,1108.94,285.52,1106.14,286.09Z"/><path d="M1129,291c0,.23.13.78.26,1.65s.22,1.46.23,1.75,0,.75,0,1.4a4.26,4.26,0,0,1-.33,1.72,7.62,7.62,0,0,1-.9,1.55,4.36,4.36,0,0,1-3,1.51,4.23,4.23,0,0,1-2.72-.39c-1.15-.78-1.75-4.15-1.54-10.15.08-2.52.33-6,.86-10.46a2.69,2.69,0,0,1,1.38-2,3.31,3.31,0,0,1,2.44-.63,2.75,2.75,0,0,1,2.18,1.59,10.2,10.2,0,0,1,2.75-2,9.88,9.88,0,0,1,3.48-.7,6.57,6.57,0,0,1,4.23,1.15,5.1,5.1,0,0,1,2,3.52,2.82,2.82,0,0,1-.64,2.37,3.24,3.24,0,0,1-2.11,1.06,5.07,5.07,0,0,1-2.51-.36,1.05,1.05,0,0,1-.6-.68,3,3,0,0,1-.16-1,1.3,1.3,0,0,0-.24-.81.64.64,0,0,0-.75-.19c-2.53.62-4.06,1.88-4.56,3.75C1128.84,288.44,1129,290.54,1129,291Z"/><path d="M1163.37,285.77s0,.05,0,0,0,0,0,0a2.82,2.82,0,0,0,1.13,1.06,3.78,3.78,0,0,0,1.27.44c.37,0,1,.08,1.77.12s1.38.07,1.7.1a11.22,11.22,0,0,0,3.36-.2,22.13,22.13,0,0,1,3.07-.5,7.66,7.66,0,0,1,3.17.32c.64.23.9.77.77,1.64a2.21,2.21,0,0,1-1.23,1.8,22.63,22.63,0,0,1-5.34,1.6,28,28,0,0,1-5.45,0,9.07,9.07,0,0,0-1-.09l-1-.06c-.09,0-.39,0-.88-.08a6.75,6.75,0,0,1-.94-.13l-.8-.2a2.68,2.68,0,0,1-.82-.28,7,7,0,0,0-.68-.34,2.16,2.16,0,0,1-.69-.45c-.15-.16-.32-.36-.52-.59a3.11,3.11,0,0,1-.5-.74,11,11,0,0,1-1.29-3.76,11.4,11.4,0,0,1,0-3.69,27.28,27.28,0,0,1,1.17-4.27,9.16,9.16,0,0,1,5.88-5.55,20.28,20.28,0,0,1,5.75-1.6,10.35,10.35,0,0,1,5.29.79,3.75,3.75,0,0,1,2.34,2.38,14,14,0,0,1,.41,4.34q-.12,2.7-3.19,4.35a34.3,34.3,0,0,1-6.14,2.26A27.75,27.75,0,0,1,1163.37,285.77Zm4.53-11.06a6.21,6.21,0,0,0-2.6.88,4.28,4.28,0,0,0-1.57,1.69,8.5,8.5,0,0,0-.71,1.91,10.71,10.71,0,0,0-.25,2c.32-.11,1.83-.45,4.54-1a19.83,19.83,0,0,0,5.59-1.75,4,4,0,0,0,1.76-1.86c.22-.64-.05-1.17-.81-1.61Q1172.13,274.1,1167.9,274.71Z"/><path d="M1190.93,281c0,.23.12.79.25,1.68s.2,1.48.21,1.76,0,.76,0,1.41a4.3,4.3,0,0,1-.36,1.71,7.3,7.3,0,0,1-.93,1.5,4.2,4.2,0,0,1-3.08,1.35,4.45,4.45,0,0,1-2.73-.56c-1.14-.85-1.69-4.27-1.45-10.3.1-2.52.37-6,.87-10.44a2.49,2.49,0,0,1,1.38-1.9,3.31,3.31,0,0,1,2.46-.49,3.06,3.06,0,0,1,2.21,1.73,7.82,7.82,0,0,1,6.28-2.33,7,7,0,0,1,4.27,1.41,5.44,5.44,0,0,1,2,3.64,2.72,2.72,0,0,1-.65,2.35,3.08,3.08,0,0,1-2.12.93,5.24,5.24,0,0,1-2.53-.5,1.14,1.14,0,0,1-.6-.73,3.29,3.29,0,0,1-.17-1,1.41,1.41,0,0,0-.24-.84.67.67,0,0,0-.76-.22c-2.55.47-4.08,1.64-4.58,3.49C1190.78,278.41,1190.89,280.52,1190.93,281Z"/><path d="M1228.67,279.23a3.35,3.35,0,0,0,1.9-.88,1,1,0,0,0,.13-1.44,7,7,0,0,0-3.19-1.92,11.83,11.83,0,0,1-3.22-1.56,3.73,3.73,0,0,1-1.33-2.85,6.8,6.8,0,0,1,.8-3.48,8.75,8.75,0,0,1,2.56-2.94,6.43,6.43,0,0,1,3.65-1.37,12.07,12.07,0,0,1,4.8.67,9.85,9.85,0,0,1,3.69,2.65c.51.54.48,1.21-.08,2a3.43,3.43,0,0,1-2.13,1.51,2.14,2.14,0,0,1-1.77-.33l-1.63-1.11a2.09,2.09,0,0,0-1.72-.33,2.17,2.17,0,0,0-1.63,2.66c.29.9,1.3,1.55,3,2a15.86,15.86,0,0,1,1.8.48,9.87,9.87,0,0,1,1.59.74,3.54,3.54,0,0,1,1.88,3.23,6.49,6.49,0,0,1-2.53,5.82,9.61,9.61,0,0,1-3.63,1.76,11.25,11.25,0,0,1-4,.16,14.4,14.4,0,0,1-4.27-.91,6.13,6.13,0,0,1-2.76-2.36,1.88,1.88,0,0,1,.25-2.17,3.83,3.83,0,0,1,2.23-1.55,3.23,3.23,0,0,1,2.79.7A3.65,3.65,0,0,0,1228.67,279.23Z"/><path d="M1247.73,258.19a3.11,3.11,0,0,1,2.75-1.4c1.37-.09,2.16.29,2.38,1.14a16.66,16.66,0,0,1,.42,5.55,27.33,27.33,0,0,1,5.9.75,1.55,1.55,0,0,1,1.07,1.77,4.65,4.65,0,0,1-1.08,2.52,1.86,1.86,0,0,1-1,.7,6.37,6.37,0,0,1-1.65.12c-.71,0-1.2,0-1.49,0-.64.05-1.51.14-2.59.28q-.24,1.84-.33,2.67a12.3,12.3,0,0,0,.07,2.42,10.29,10.29,0,0,0,.7,2.89c.37.9,1.22,1.3,2.56,1.2a5,5,0,0,0,3.34-1.49c.28-.28.36-.83.24-1.66s0-1.31.5-1.42a10.88,10.88,0,0,1,2.2-.8,4.64,4.64,0,0,1,2.11-.1,1,1,0,0,1,1,1.07c0,3.12-1.69,5.66-5.17,7.66a8.91,8.91,0,0,1-7.23.69,10.43,10.43,0,0,1-3.56-1.85,7.61,7.61,0,0,1-2.27-2.81,8.21,8.21,0,0,1-.6-2.12,6.74,6.74,0,0,1-.07-1.81c.06-.5.15-1.18.28-2.06s.21-1.57.27-2.1l-.86-.08a5,5,0,0,0-.67-.05,9.34,9.34,0,0,1-2.54-.59,2.3,2.3,0,0,1-1.3-1.47,2,2,0,0,1,.42-1.86,2.93,2.93,0,0,1,1.8-1.15l3.12-.6A11.2,11.2,0,0,1,1247.73,258.19Z"/><path d="M1285.49,279.13a13.6,13.6,0,0,1-3.06,1.52q-4.73,1.65-10.46-.58a6.38,6.38,0,0,1-3.84-7.71,4.81,4.81,0,0,1,2.85-3.16,20.77,20.77,0,0,1,10.8-1.52,2.31,2.31,0,0,0-1.49-2.14,5,5,0,0,0-2.9-.05,22.57,22.57,0,0,1-3.32.57,6,6,0,0,1-2.76-.26,2.42,2.42,0,0,1-1.19-2.55,2.63,2.63,0,0,1,1.69-2.42,36.17,36.17,0,0,1,4.74-1.53,13.76,13.76,0,0,1,4.3-.29,10.26,10.26,0,0,1,4.36,1.4,7.33,7.33,0,0,1,1.75,1.36,3.78,3.78,0,0,1,.88,1.71,10.77,10.77,0,0,1,.28,1.68c0,.45,0,1.16,0,2.15s0,1.73,0,2.25c0,.29,0,.9.08,1.84s.08,1.57.08,1.91,0,.86-.11,1.58a4.67,4.67,0,0,1-.43,1.67,10.07,10.07,0,0,1-.85,1.29A5.6,5.6,0,0,1,1285.49,279.13Zm-6.93-2.32a6.72,6.72,0,0,0,2.79-2.37,3.31,3.31,0,0,0,.39-3,2.1,2.1,0,0,0-2.19-1.28,5.56,5.56,0,0,0-3.09.77c-2.69,1.35-3.72,2.92-3.1,4.67a2.53,2.53,0,0,0,2.11,1.6A4.74,4.74,0,0,0,1278.56,276.81Z"/><path d="M1314.19,250c.55,3.54.91,6.4,1.08,8.56a52,52,0,0,1,0,7.29,53.58,53.58,0,0,1-1.3,8.65,6.66,6.66,0,0,1-3,4.29,11,11,0,0,1-5.61,1.75q-8.58.36-12.26-5.07-4-5.93.75-12.13a7.57,7.57,0,0,1,3-2.42,10.06,10.06,0,0,1,3.77-.9c1.3-.06,2.72-.09,4.26-.1a4.06,4.06,0,0,1,1.44.31c.1-1.19.35-2.93.75-5.2s.63-3.91.71-4.9a1.8,1.8,0,0,1,1-1.54,3.88,3.88,0,0,1,2.09-.5,5,5,0,0,1,2.11.54A1.85,1.85,0,0,1,1314.19,250Zm-9.11,14.73a5.36,5.36,0,0,0-3.91-1,9.58,9.58,0,0,0-4.21,1.48,3.3,3.3,0,0,0-1.49,3.22,8.3,8.3,0,0,0,1.52,3.76,5.67,5.67,0,0,0,2.53,2.26,9.35,9.35,0,0,0,4.22.5,3.85,3.85,0,0,0,2.62-1.5,5.58,5.58,0,0,0,1.05-2.73,6.79,6.79,0,0,0-.46-3.18A7.27,7.27,0,0,0,1305.08,264.74Z"/><path d="M1326.69,258.31q-3.81,1.2-6.25-1.29a4.9,4.9,0,0,1-1.47-2.86,4,4,0,0,1,.93-3q2-2.42,6.35-1.28c2.46.68,3.73,2,3.82,4a4.24,4.24,0,0,1-.85,2.74A5,5,0,0,1,1326.69,258.31Zm2.79,15.9v.72c0,.36,0,.6,0,.74a5.67,5.67,0,0,0,0,.62,3.93,3.93,0,0,1-.08.66c0,.14-.08.34-.14.58a2.77,2.77,0,0,1-.24.61l-.34.54a3.77,3.77,0,0,1-.48.61c-.93,1-2.49,1.37-4.7,1.08s-3.47-1.06-3.69-2.22-.45-2.22-.56-3.13a19.75,19.75,0,0,1-.12-2.93c0-1,.06-1.79.07-2.26s.13-1.43.32-2.91.33-2.52.39-3.12a3.39,3.39,0,0,1,2.22-3.06,4.21,4.21,0,0,1,3.3.2,7.69,7.69,0,0,1,2.9,2.26,6.51,6.51,0,0,1,.93,1.54,6.78,6.78,0,0,1,.43,1.88,13.38,13.38,0,0,1,.09,1.89c0,.5,0,1.39-.1,2.64S1329.52,273.43,1329.48,274.21Z"/><path d="M1348.87,276.31a20.8,20.8,0,0,1-6.78,2.18,11.76,11.76,0,0,1-5.27-.38,5.19,5.19,0,0,1-3-2.41,11.14,11.14,0,0,1-1.19-4.08,23.4,23.4,0,0,1,.06-5.4,8.64,8.64,0,0,1,1.17-3.88,8.42,8.42,0,0,1,2.65-2.79,16.11,16.11,0,0,1,3.58-1.76,20.14,20.14,0,0,1,4.26-1,16.68,16.68,0,0,1,5.63-.1,8.82,8.82,0,0,1,4.7,2.25,5.27,5.27,0,0,1,1.39,2,5.92,5.92,0,0,1,.43,2c0,.58,0,1.39-.13,2.42a19,19,0,0,0-.08,2.48c0,1.07.1,2.44.24,4.12s.22,3,.26,3.95a17.28,17.28,0,0,1-.29,3.49,14.25,14.25,0,0,1-1.33,4c-1.11,2.18-3.61,3.71-7.51,4.63a16.53,16.53,0,0,1-10.47-.58,1.61,1.61,0,0,1-1-1.66,2.05,2.05,0,0,1,1-1.81,7.43,7.43,0,0,1,3-1.12,33.52,33.52,0,0,1,3.71-.51,11.51,11.51,0,0,0,3.43-.81,4.58,4.58,0,0,0,2.41-2,2.41,2.41,0,0,0,.34-.76,2.16,2.16,0,0,0,.06-.82c0-.3-.06-.52-.07-.65s-.08-.4-.19-.81a6.71,6.71,0,0,0-.21-.69C1349.53,276,1349.26,276.14,1348.87,276.31Zm-5.22-15.5a12.75,12.75,0,0,0-3.75,1.18,4.86,4.86,0,0,0-2.17,2.38q-2,4.41,1,7.59a5.18,5.18,0,0,0,3.28,1.6,6.42,6.42,0,0,0,3.78-.76c1.7-.85,2.73-1.72,3.11-2.61a6.69,6.69,0,0,0,.18-3.6c0-.26-.08-.59-.14-1s-.11-.73-.14-1a8,8,0,0,0-.19-1,5.81,5.81,0,0,0-.28-.94,7.42,7.42,0,0,0-.43-.79,1.64,1.64,0,0,0-.63-.61l-.89-.43a2,2,0,0,0-1.2-.16A14.53,14.53,0,0,1,1343.65,260.81Z"/><path d="M1387,273.78a10.31,10.31,0,0,0,.29,1.92c.16.73.32,1.34.45,1.82a4.36,4.36,0,0,1,.12,1.64,3.52,3.52,0,0,1-.62,1.7,3,3,0,0,1-2.45,1.31,3.32,3.32,0,0,1-2.74-.9,12,12,0,0,1-.85-.93,4.5,4.5,0,0,1-.63-1.07c-.17-.4-.3-.72-.4-1a5.57,5.57,0,0,1-.22-1.14c-.06-.5-.1-.86-.13-1.06s-.07-.63-.11-1.27-.06-1.05-.06-1.26c-.08-.92-.17-1.9-.26-2.91a10,10,0,0,1-2.06-.65,3.6,3.6,0,0,1-2.17-2.64c-.36-1.35,0-2.2,1-2.57s1.87-.57,2.74-.8a27.48,27.48,0,0,1,1.4-9.57c1-2.9,3.64-4.48,7.79-4.7q4.26-.22,7.84,3.76,3.39,3.75,2.09,7.32a3.32,3.32,0,0,1-2.16,2.06,4.89,4.89,0,0,1-3.31,0,2.32,2.32,0,0,1-1.47-1.4c-.27-.69-.53-1.42-.79-2.19a2.92,2.92,0,0,0-1.3-1.67,1.75,1.75,0,0,0-1.87.14,2.11,2.11,0,0,0-1.05,1.58,35.86,35.86,0,0,0-.15,4,42.69,42.69,0,0,1,7.82,1.32,4.69,4.69,0,0,1,2.9,2.18,2.55,2.55,0,0,1,0,3.06,2.18,2.18,0,0,1-1.69.94,9.4,9.4,0,0,1-2.68-.3,12.16,12.16,0,0,0-2.55-.37c-.54,0-1.55.06-3,.19C1386.81,271.17,1386.91,272.3,1387,273.78Z"/><path d="M1409.56,261.16q6.57-.48,10.53,2.61a10.8,10.8,0,0,1,4.14,8.62,18,18,0,0,1-.75,6.55,7.17,7.17,0,0,1-3.85,4,10.87,10.87,0,0,1-4.8,1.12,12.94,12.94,0,0,1-4.7-.82,14.78,14.78,0,0,1-4-2.29q-4-3.21-4.44-7.13a15.88,15.88,0,0,1,.42-5.68,10.33,10.33,0,0,1,2.68-4.75A7.45,7.45,0,0,1,1409.56,261.16Zm2.48,6.16a2.91,2.91,0,0,0-3.14,2.55,9.87,9.87,0,0,0,0,3.47,5.85,5.85,0,0,0,2.29,3.83,4.9,4.9,0,0,0,4.41.51,4.73,4.73,0,0,0,2.86-1.9,4.06,4.06,0,0,0,.62-3,6.1,6.1,0,0,0-2.25-3.84A7.12,7.12,0,0,0,1412,267.32Z"/><path d="M1435.83,276.37c0,.23.09.81.19,1.73a17.43,17.43,0,0,1,.12,1.81c0,.28,0,.75-.08,1.4a3.59,3.59,0,0,1-.45,1.62,5.89,5.89,0,0,1-1,1.29,3.72,3.72,0,0,1-3.15.65,5.2,5.2,0,0,1-2.68-1.17c-1.09-1.11-1.38-4.64-1-10.62.15-2.5.47-5.92.91-10.27a1.81,1.81,0,0,1,1.36-1.59,3.09,3.09,0,0,1,2.46.07,4.23,4.23,0,0,1,2.26,2.24,7,7,0,0,1,2.75-1.21,9.2,9.2,0,0,1,3.52.3,9.1,9.1,0,0,1,4.32,2.39,7.09,7.09,0,0,1,2.05,4.11,2.28,2.28,0,0,1-.66,2.2,2.55,2.55,0,0,1-2.13.45,6,6,0,0,1-2.53-1.08,1.51,1.51,0,0,1-.6-.86,3.67,3.67,0,0,1-.16-1.05,1.67,1.67,0,0,0-.24-.89.82.82,0,0,0-.76-.4c-2.56-.11-4.09.71-4.61,2.45C1435.79,273.79,1435.8,275.93,1435.83,276.37Z"/><path d="M1466.67,286.47a72.56,72.56,0,0,1-.46-8.89c0-2.91.14-5.89.33-9a2.5,2.5,0,0,1,.73-1.74,2.79,2.79,0,0,1,1.88-.74,9.24,9.24,0,0,1,3.42.48,4.74,4.74,0,0,1,2.61,1.64,8.55,8.55,0,0,1,4.09-.8,8.22,8.22,0,0,1,7,3.61,10.73,10.73,0,0,1,1.09-1,3.79,3.79,0,0,1,2.28-.84,11.22,11.22,0,0,1,3,.4,7.83,7.83,0,0,1,2.72,1.27,8.39,8.39,0,0,1,1.94,1.91,9.61,9.61,0,0,1,1.24,2.57,17.54,17.54,0,0,1,.69,2.83,25.4,25.4,0,0,1,.27,3.15q.06,1.84,0,3.09c0,.83-.09,1.87-.16,3.11s-.13,2.16-.15,2.76a1.63,1.63,0,0,1-1.56,1.63c-1.7.34-2.77.35-3.2,0a1.18,1.18,0,0,1-.41-.58,12.26,12.26,0,0,1-.5-3.51,35.26,35.26,0,0,1,.21-3.88,23.82,23.82,0,0,0,.19-3c0-.15,0-.55,0-1.23s0-1.22,0-1.64a5.29,5.29,0,0,0-.27-1.44,2.82,2.82,0,0,0-.78-1.29,1.76,1.76,0,0,0-2.29-.18,5.28,5.28,0,0,0-1.83,2.18,12.52,12.52,0,0,0-1,4.14,52.8,52.8,0,0,0-.16,5.62c0,2,0,3.16,0,3.36,0,.49-.46.76-1.32.83a6.46,6.46,0,0,1-2.67-.4c-.91-.33-1.43-.73-1.57-1.21-.23-.7-.22-2.76,0-6.19.28-4.35,0-7.2-.85-8.55-.91-1.51-2.46-1.87-4.63-1.06a2.39,2.39,0,0,0-.81.54c0,1.22,0,3.27-.22,6.16s-.29,5.4-.34,7.53c0,.86-.74,1.32-2.12,1.39a9.18,9.18,0,0,1-4.2-.84C1467.53,288.05,1466.77,287.32,1466.67,286.47Z"/><path d="M1507.48,286.35s0,0,0,0,0,0,0,0a4.23,4.23,0,0,0,1.06,1.41,5.29,5.29,0,0,0,1.24.85c.36.16.94.38,1.74.67s1.36.51,1.67.65a11.81,11.81,0,0,0,3.34.86,21.33,21.33,0,0,1,3.06.49,8.92,8.92,0,0,1,3.1,1.32,1.59,1.59,0,0,1,.63,1.86,1.62,1.62,0,0,1-1.36,1.38,20.51,20.51,0,0,1-5.39-.12,30,30,0,0,1-5.37-1.71c-.06,0-.37-.17-.94-.4l-1-.37q-.15,0-.87-.36a7.63,7.63,0,0,1-.91-.43l-.77-.45a3.93,3.93,0,0,1-.79-.54c-.14-.13-.35-.32-.65-.55a3.24,3.24,0,0,1-.64-.67l-.47-.74a5.72,5.72,0,0,1-.45-.89,15.23,15.23,0,0,1-1.07-4.15,12.27,12.27,0,0,1,.18-3.67,23.81,23.81,0,0,1,1.23-3.88c.9-2.28,2.83-3.51,5.84-3.68a18.13,18.13,0,0,1,5.72.25,13.52,13.52,0,0,1,5.31,2.49,5.93,5.93,0,0,1,2.35,3.13,14.23,14.23,0,0,1,.37,4.47c-.12,1.76-1.23,2.86-3.31,3.3a29.34,29.34,0,0,1-6.18.29A27.66,27.66,0,0,1,1507.48,286.35Zm4.76-9.58a5.31,5.31,0,0,0-2.59,0,2.72,2.72,0,0,0-1.57,1.19,6.75,6.75,0,0,0-.73,1.68,9.36,9.36,0,0,0-.29,1.94c.32,0,1.83.13,4.55.44a17.21,17.21,0,0,0,5.59,0,2.57,2.57,0,0,0,1.78-1.3c.22-.56,0-1.18-.8-1.86C1517,278,1515.06,277.27,1512.24,276.77Z"/><path d="M1541.9,296.28a18.53,18.53,0,0,1-6.78,1,12.33,12.33,0,0,1-5.18-1.31,6.26,6.26,0,0,1-2.83-2.91,12.87,12.87,0,0,1-1-4.24,25.79,25.79,0,0,1,.16-5.35,7.69,7.69,0,0,1,1.17-3.65,6.51,6.51,0,0,1,2.6-2.31,12.88,12.88,0,0,1,3.51-1.11,18.12,18.12,0,0,1,4.17-.2,16.92,16.92,0,0,1,5.54.9,11.1,11.1,0,0,1,4.66,3.09,6.64,6.64,0,0,1,1.39,2.28,6.47,6.47,0,0,1,.43,2.09c0,.58,0,1.37-.13,2.39a21.17,21.17,0,0,0-.11,2.43c0,1.07.07,2.44.16,4.13s.12,3,.13,4a15.36,15.36,0,0,1-.44,3.38,11.71,11.71,0,0,1-1.52,3.68c-1.22,1.94-3.8,3-7.71,3.22a17.27,17.27,0,0,1-10.29-2.43,1.75,1.75,0,0,1-.85-1.79,1.77,1.77,0,0,1,1.09-1.62,6.91,6.91,0,0,1,3-.57,33.42,33.42,0,0,1,3.7.16,11.27,11.27,0,0,0,3.43-.19,3.81,3.81,0,0,0,2.48-1.5,2.59,2.59,0,0,0,.37-.69,2,2,0,0,0,.09-.8c0-.3,0-.52,0-.65a8.12,8.12,0,0,0-.15-.83,6.46,6.46,0,0,0-.18-.73C1542.56,296.11,1542.29,296.18,1541.9,296.28ZM1537,280a11.17,11.17,0,0,0-3.7.51,3.78,3.78,0,0,0-2.14,2,6.83,6.83,0,0,0,.9,7.72,6.22,6.22,0,0,0,3.19,2.17,6,6,0,0,0,3.75-.09c1.7-.53,2.74-1.21,3.13-2a6.34,6.34,0,0,0,.24-3.53c0-.27-.08-.61-.13-1s-.11-.75-.14-1-.09-.61-.18-1a6.9,6.9,0,0,0-.28-1c-.1-.23-.24-.52-.43-.86a2.06,2.06,0,0,0-.61-.72c-.23-.14-.52-.34-.88-.58a2.24,2.24,0,0,0-1.19-.38A14.42,14.42,0,0,1,1537,280Z"/><path d="M1557.26,295.6s0,0,0,0a0,0,0,0,1,0,.05,4.38,4.38,0,0,0,1,1.45,5.1,5.1,0,0,0,1.23.9c.35.18.93.43,1.73.76s1.34.57,1.65.72a12.44,12.44,0,0,0,3.31,1,22.82,22.82,0,0,1,3,.62,9.56,9.56,0,0,1,3.07,1.46,1.64,1.64,0,0,1,.61,1.88,1.53,1.53,0,0,1-1.37,1.31,20.17,20.17,0,0,1-5.36-.36,31.54,31.54,0,0,1-5.32-2c-.06,0-.37-.19-.93-.43l-1-.43c-.1,0-.38-.16-.86-.39s-.78-.39-.91-.47-.37-.25-.76-.48a4.29,4.29,0,0,1-.78-.58c-.13-.14-.34-.33-.63-.58a3.17,3.17,0,0,1-.63-.69l-.47-.77a5.3,5.3,0,0,1-.43-.9,15.45,15.45,0,0,1-1-4.18,12.1,12.1,0,0,1,.18-3.65,25.1,25.1,0,0,1,1.23-3.82c.89-2.22,2.81-3.36,5.79-3.39a18.06,18.06,0,0,1,5.67.52,14.13,14.13,0,0,1,5.27,2.74,6.3,6.3,0,0,1,2.35,3.23,14.38,14.38,0,0,1,.36,4.47c-.12,1.76-1.23,2.8-3.29,3.14a28.89,28.89,0,0,1-6.15,0A27.6,27.6,0,0,1,1557.26,295.6Zm4.75-9.33a5.16,5.16,0,0,0-2.57-.08,2.55,2.55,0,0,0-1.56,1.11,6.32,6.32,0,0,0-.72,1.64,9,9,0,0,0-.29,1.92c.31,0,1.82.22,4.51.66a17.27,17.27,0,0,0,5.55.3,2.39,2.39,0,0,0,1.77-1.21c.22-.55,0-1.18-.79-1.89Q1566.22,287.22,1562,286.27Z"/><path d="M1582.42,283.74c.41-.7,1.29-.89,2.64-.56a2.91,2.91,0,0,1,2.39,1.89,17,17,0,0,1,.58,5.68,32.74,32.74,0,0,1,5.78,2.57,2.15,2.15,0,0,1,1,2.08,3.3,3.3,0,0,1-1.07,2.16,1.3,1.3,0,0,1-1,.37,6.32,6.32,0,0,1-1.62-.39c-.68-.24-1.17-.39-1.45-.46-.63-.15-1.47-.33-2.54-.53-.17,1.16-.3,2-.38,2.53a13.67,13.67,0,0,0,0,2.4,12.64,12.64,0,0,0,.54,3.06,3,3,0,0,0,2.42,1.95,4.08,4.08,0,0,0,3.35-.43c.29-.19.4-.7.33-1.55s.1-1.27.54-1.24a9.81,9.81,0,0,1,2.18-.11,5,5,0,0,1,2.06.56,1.42,1.42,0,0,1,.9,1.34c-.12,3.06-2,5-5.54,5.89-2.2.55-4.56,0-7.09-1.54a14.31,14.31,0,0,1-3.32-2.9,10.79,10.79,0,0,1-2-3.44,11.24,11.24,0,0,1-.47-2.26,7.57,7.57,0,0,1,0-1.8c.08-.47.2-1.12.34-1.95s.25-1.49.32-2c-.19-.07-.47-.18-.84-.34a6.49,6.49,0,0,0-.66-.26,11.86,11.86,0,0,1-2.48-1.37,3.43,3.43,0,0,1-1.26-1.86,1.7,1.7,0,0,1,.4-1.72,2,2,0,0,1,1.76-.58l3.06.37A9.58,9.58,0,0,1,1582.42,283.74Z"/><path d="M1084.75,355.74a3,3,0,0,0,1.66-1.07,1,1,0,0,0-.2-1.37,7.69,7.69,0,0,0-3.53-1.39,13.51,13.51,0,0,1-3.49-1.05,3.91,3.91,0,0,1-1.9-2.51,6.07,6.07,0,0,1,.06-3.38,7.63,7.63,0,0,1,1.93-3.12,6.22,6.22,0,0,1,3.33-1.8,12.71,12.71,0,0,1,4.85,0,10.78,10.78,0,0,1,4.13,2,1.41,1.41,0,0,1,.32,1.93,3.07,3.07,0,0,1-1.79,1.71,2.26,2.26,0,0,1-1.8-.08l-1.82-.83a2.17,2.17,0,0,0-1.76-.09,1.81,1.81,0,0,0-1.19,1.22,1.87,1.87,0,0,0,.14,1.52c.47.8,1.59,1.29,3.37,1.45.75.06,1.37.13,1.86.22a10.63,10.63,0,0,1,1.71.5,4.14,4.14,0,0,1,1.62,1.05,3.93,3.93,0,0,1,.89,1.75c.64,2.38.26,4.31-1.18,5.8a8.3,8.3,0,0,1-3.12,2.12,11.14,11.14,0,0,1-3.85.66,15.76,15.76,0,0,1-4.37-.31,7.1,7.1,0,0,1-3.24-1.85,1.71,1.71,0,0,1-.25-2.06A3.26,3.26,0,0,1,1079,355a3.45,3.45,0,0,1,2.88.29A3.93,3.93,0,0,0,1084.75,355.74Z"/><path d="M1098.51,356a67.27,67.27,0,0,1-2.18-7.28c-.59-2.49-1.06-4.75-1.41-6.8s-.86-4.63-1.46-7.8c-.29-1.53.51-3.12,2.38-4.74a7.72,7.72,0,0,1,1.16-.75,9.44,9.44,0,0,1,1.3-.54,2,2,0,0,1,1.11-.09.73.73,0,0,1,.59.6c.86,3.85,1.74,8.27,2.72,13.22a47.28,47.28,0,0,1,6-6.6,12.55,12.55,0,0,1,2.16-1.59,5.5,5.5,0,0,1,2.37-.79,1.41,1.41,0,0,1,1.56.87,3.44,3.44,0,0,1,.1,2.39,7,7,0,0,1-1.54,2.53c-.77.86-1.55,1.66-2.33,2.39s-1.72,1.57-2.79,2.51-1.9,1.72-2.48,2.33a16.61,16.61,0,0,0,3.6,1.85c1.81.75,3.61,1.55,5.4,2.38a12.22,12.22,0,0,1,3.64,2.3c.52.62.36,1.32-.48,2.12a2.76,2.76,0,0,1-2.58.9,37,37,0,0,1-10.69-4.2c.08.35.2.9.37,1.64s.29,1.3.38,1.68a2.51,2.51,0,0,1-.35,2.41,2.74,2.74,0,0,1-2,.89,8.38,8.38,0,0,1-2.68-.31A2.44,2.44,0,0,1,1098.51,356Z"/><path d="M1129.08,343.89c.07.22.25.75.54,1.6a17.46,17.46,0,0,1,.51,1.69q.09.42.24,1.35a4,4,0,0,1,0,1.67,6.75,6.75,0,0,1-.64,1.5,3.69,3.69,0,0,1-2.79,1.45,4.82,4.82,0,0,1-2.79-.4c-1.28-.76-2.46-4-3.31-9.81-.35-2.43-.7-5.79-1-10.1a2.11,2.11,0,0,1,1.06-1.91,3.18,3.18,0,0,1,2.37-.62,3.53,3.53,0,0,1,2.5,1.55,7.9,7.9,0,0,1,2.45-1.94,9.39,9.39,0,0,1,3.42-.68,7.7,7.7,0,0,1,4.48,1.11,6,6,0,0,1,2.59,3.41,2.42,2.42,0,0,1-.26,2.31,2.68,2.68,0,0,1-2,1,5.62,5.62,0,0,1-2.59-.34,1.29,1.29,0,0,1-.71-.67,3.52,3.52,0,0,1-.34-1,1.45,1.45,0,0,0-.37-.8.75.75,0,0,0-.79-.17c-2.46.6-3.79,1.82-4,3.63C1128.49,341.45,1129,343.48,1129.08,343.89Z"/><path d="M1161.24,344.8a12.1,12.1,0,0,1-2.69,1.81q-4.26,2.1-10.21.56a6.67,6.67,0,0,1-3.92-2.71,6.1,6.1,0,0,1-1.15-4.31,4.3,4.3,0,0,1,2.25-3.36,20,20,0,0,1,10.28-2.68,2.38,2.38,0,0,0-1.77-1.9,4.88,4.88,0,0,0-2.84.27,20.43,20.43,0,0,1-3.15.92,6.09,6.09,0,0,1-2.74.06,2.48,2.48,0,0,1-1.56-2.33,2.45,2.45,0,0,1,1.3-2.54,36.37,36.37,0,0,1,4.42-2,13.68,13.68,0,0,1,4.17-.76,10.24,10.24,0,0,1,4.46.87,7.26,7.26,0,0,1,1.89,1.12,3.81,3.81,0,0,1,1.11,1.57,10.49,10.49,0,0,1,.51,1.6c.1.43.21,1.13.34,2.09s.23,1.68.31,2.19c0,.28.17.87.36,1.78s.32,1.52.37,1.84a13.59,13.59,0,0,1,.15,1.55,4.44,4.44,0,0,1-.14,1.66,8.43,8.43,0,0,1-.61,1.35A4.88,4.88,0,0,1,1161.24,344.8Zm-7.09-1.49a6.06,6.06,0,0,0,2.3-2.59,3.21,3.21,0,0,0-.1-2.94,2.17,2.17,0,0,0-2.33-1,5.28,5.28,0,0,0-2.89,1.08q-3.59,2.42-2.22,4.86a2.64,2.64,0,0,0,2.31,1.31A4.45,4.45,0,0,0,1154.15,343.31Z"/><path d="M1180.22,344.19a9.82,9.82,0,0,1-4.44.61,11.21,11.21,0,0,1-4.33-1.25,7.4,7.4,0,0,1-3-2.72,24,24,0,0,1-2-4.82,81,81,0,0,1-2.52-14.42,7.31,7.31,0,0,1,.62-4.18,3.94,3.94,0,0,1,2.75-1.52,1.92,1.92,0,0,1,2,.95,8,8,0,0,1,1.15,3.22c.23,1.39.42,2.78.54,4.17s.26,2.89.39,4.48.28,2.74.41,3.43c0,.2.09.52.17.95s.14.74.18.93.11.43.21.74a5.37,5.37,0,0,0,.34.88c.14.27.29.55.46.84a5.3,5.3,0,0,0,2.26,2,4.79,4.79,0,0,0,2.39.48,8,8,0,0,1,2,0,1.48,1.48,0,0,1,1.27.84,4.34,4.34,0,0,1,.45,2.52A2.05,2.05,0,0,1,1180.22,344.19Z"/><path d="M1203.24,310.87c.85,3.45,1.48,6.23,1.86,8.35a58.18,58.18,0,0,1,.77,7.17,59.3,59.3,0,0,1-.23,8.63,6.39,6.39,0,0,1-2.31,4.49,10.08,10.08,0,0,1-5.16,2.24c-5.47.76-9.66-.5-12.55-3.83-3.12-3.6-3.44-7.58-.87-11.93a7.23,7.23,0,0,1,2.67-2.68,10,10,0,0,1,3.59-1.25c1.26-.18,2.65-.35,4.15-.51a3.94,3.94,0,0,1,1.44.17c0-1.18,0-2.91.19-5.19s.24-3.92.22-4.9a1.83,1.83,0,0,1,.87-1.62,3.93,3.93,0,0,1,2-.7,4.89,4.89,0,0,1,2.12.32A1.84,1.84,0,0,1,1203.24,310.87Zm-7.41,15.4a5.28,5.28,0,0,0-3.93-.58,9,9,0,0,0-3.92,1.85,3.16,3.16,0,0,0-1,3.29,8.46,8.46,0,0,0,2,3.55,6,6,0,0,0,2.76,2,9.05,9.05,0,0,0,4.15.1,3.57,3.57,0,0,0,2.33-1.72,5.53,5.53,0,0,0,.68-2.78,7,7,0,0,0-.84-3.08A7.56,7.56,0,0,0,1195.83,326.27Z"/><path d="M1229.89,313a2.84,2.84,0,0,1,2.61-1.43c1.35-.11,2.17.26,2.45,1.1a17.19,17.19,0,0,1,.87,5.5,27.66,27.66,0,0,1,5.86.67,1.66,1.66,0,0,1,1.2,1.74,4.51,4.51,0,0,1-.87,2.52,1.69,1.69,0,0,1-1,.71,6,6,0,0,1-1.62.13c-.69,0-1.17,0-1.45,0-.63,0-1.47.16-2.52.31,0,1.21-.08,2.1-.1,2.65a13.29,13.29,0,0,0,.27,2.4,11.29,11.29,0,0,0,.93,2.86,2.34,2.34,0,0,0,2.59,1.16,4.5,4.5,0,0,0,3.13-1.52c.26-.28.29-.83.11-1.65s-.06-1.3.36-1.42a11.49,11.49,0,0,1,2.09-.82,4.53,4.53,0,0,1,2.05-.12,1.12,1.12,0,0,1,1,1.05q.38,4.65-4.45,7.67a8.23,8.23,0,0,1-7,.76,10.73,10.73,0,0,1-3.61-1.8,8.39,8.39,0,0,1-2.47-2.76,8.8,8.8,0,0,1-.77-2.09,6.68,6.68,0,0,1-.23-1.79c0-.5,0-1.18.08-2.05s.08-1.56.09-2.08l-.85-.07c-.38,0-.6-.05-.67-.05a9.17,9.17,0,0,1-2.55-.55,2.51,2.51,0,0,1-1.4-1.44,1.9,1.9,0,0,1,.23-1.84,2.55,2.55,0,0,1,1.67-1.16l3-.64A10.82,10.82,0,0,1,1229.89,313Z"/><path d="M1257.64,314.19a5.58,5.58,0,0,1-6.21-.89,5,5,0,0,1-1.63-2.76,4,4,0,0,1,.74-3c1.21-1.68,3.28-2.24,6.19-1.67,2.46.52,3.79,1.77,4,3.72a4.27,4.27,0,0,1-.69,2.77A5,5,0,0,1,1257.64,314.19Zm3.78,15.65c0,.11,0,.35,0,.71a5.64,5.64,0,0,1,0,.74v.62a4,4,0,0,1,0,.65q0,.22-.09.6a2.59,2.59,0,0,1-.19.61c-.08.17-.17.36-.28.56a3.9,3.9,0,0,1-.42.64q-1.21,1.59-4.44,1.34t-3.75-2c-.34-1.16-.61-2.19-.79-3.09a18.14,18.14,0,0,1-.35-2.89c-.06-1-.09-1.79-.11-2.25s0-1.43.09-2.91.13-2.52.15-3.13a3.33,3.33,0,0,1,2-3.17,4,4,0,0,1,3.24,0,7.63,7.63,0,0,1,3,2.07,7,7,0,0,1,1,1.47,7.57,7.57,0,0,1,.54,1.85,16.35,16.35,0,0,1,.21,1.87c0,.51,0,1.39.08,2.64S1261.4,329.06,1261.42,329.84Z"/><path d="M1278,335a9.56,9.56,0,0,1-4.46.21,10.62,10.62,0,0,1-4.17-1.65,7.28,7.28,0,0,1-2.7-3,25.44,25.44,0,0,1-1.48-5.05c-.31-1.51-.63-3.87-.94-7.09a71.82,71.82,0,0,1-.41-7.68c0-2,.33-3.41.9-4.16a3.76,3.76,0,0,1,2.84-1.27,2,2,0,0,1,1.9,1.14,8.21,8.21,0,0,1,.93,3.35c.14,1.42.22,2.84.24,4.25s0,2.93,0,4.55,0,2.79.11,3.5c0,.21,0,.53.08,1s.08.77.1.95.08.45.14.77a5,5,0,0,0,.27.92c.11.28.23.58.37.89a5.31,5.31,0,0,0,2,2.23,4.69,4.69,0,0,0,2.33.7,8.15,8.15,0,0,1,2,.22,1.48,1.48,0,0,1,1.17,1,4.39,4.39,0,0,1,.2,2.59A2.1,2.1,0,0,1,1278,335Z"/><path d="M1314.6,331.52a12.83,12.83,0,0,1-2.94,1.44c-3,1-6.39.71-10.12-.89a6.51,6.51,0,0,1-3.44-3.29,6.41,6.41,0,0,1-.48-4.52,4.38,4.38,0,0,1,2.69-3.08,19.41,19.41,0,0,1,10.51-1.21,2.41,2.41,0,0,0-1.5-2.18,4.68,4.68,0,0,0-2.84-.13,20.11,20.11,0,0,1-3.23.47,6.1,6.1,0,0,1-2.71-.33,2.61,2.61,0,0,1-1.25-2.59,2.42,2.42,0,0,1,1.59-2.37,34.38,34.38,0,0,1,4.62-1.4,13.05,13.05,0,0,1,4.22-.17,10.43,10.43,0,0,1,4.32,1.52,7.86,7.86,0,0,1,1.74,1.4,4,4,0,0,1,.89,1.75,11.18,11.18,0,0,1,.31,1.68c0,.45,0,1.17,0,2.15s0,1.73,0,2.25c0,.29,0,.91.1,1.85s.09,1.57.1,1.9,0,.86-.09,1.59a4.86,4.86,0,0,1-.39,1.65,9.82,9.82,0,0,1-.82,1.27A5,5,0,0,1,1314.6,331.52Zm-6.75-2.51a6.09,6.09,0,0,0,2.67-2.3,3.3,3.3,0,0,0,.33-3,2.15,2.15,0,0,0-2.15-1.34,5.1,5.1,0,0,0-3,.67c-2.59,1.28-3.55,2.82-2.91,4.59a2.64,2.64,0,0,0,2.07,1.66A4.41,4.41,0,0,0,1307.85,329Z"/><path d="M1326.75,308.09a2.74,2.74,0,0,1,2.69-1.21q2,0,2.37,1.32a16.76,16.76,0,0,1,.47,5.59,27.32,27.32,0,0,1,5.79,1.18,1.68,1.68,0,0,1,1,1.85,4.39,4.39,0,0,1-1.07,2.45,1.68,1.68,0,0,1-1,.62,6.09,6.09,0,0,1-1.61,0,13.76,13.76,0,0,0-1.46-.11c-.62,0-1.47,0-2.53.09-.15,1.21-.26,2.09-.32,2.64a13.8,13.8,0,0,0,.05,2.43,11.27,11.27,0,0,0,.66,2.95,2.34,2.34,0,0,0,2.47,1.39,4.52,4.52,0,0,0,3.25-1.25c.28-.26.37-.81.26-1.65s.06-1.3.5-1.39a10.91,10.91,0,0,1,2.15-.64,4.38,4.38,0,0,1,2,.06,1.12,1.12,0,0,1,.93,1.14q-.06,4.68-5.17,7.29a8.19,8.19,0,0,1-7,.17,10.84,10.84,0,0,1-3.42-2.12,8.37,8.37,0,0,1-2.18-3,9.09,9.09,0,0,1-.57-2.16,7.28,7.28,0,0,1-.07-1.82q.09-.74.27-2c.12-.87.2-1.56.26-2.08l-.84-.15a5.7,5.7,0,0,0-.66-.1,9.64,9.64,0,0,1-2.49-.78,2.53,2.53,0,0,1-1.28-1.57,1.93,1.93,0,0,1,.38-1.83,2.54,2.54,0,0,1,1.75-1l3.06-.38A10.85,10.85,0,0,1,1326.75,308.09Z"/><path d="M1362,330c-.06-8.44.15-15.85.7-22.23,0-.2,0-.53.07-1s.07-.8.09-1,.06-.47.13-.82a3.43,3.43,0,0,1,.28-.84,3.87,3.87,0,0,1,.51-.68,5,5,0,0,1,.78-.65,6.41,6.41,0,0,1,3.65-1,2.56,2.56,0,0,1,2.61,1.45,30.88,30.88,0,0,1,1.18,10.49,12.77,12.77,0,0,0,2.3.17c1.07,0,2,0,2.74.06a26,26,0,0,0,2.69-.06c.2-2.22.35-4.11.43-5.67q.07-.94.12-1.38a3.16,3.16,0,0,1,.31-1,2.72,2.72,0,0,1,.82-1,8.19,8.19,0,0,1,1.91-1.09,5.81,5.81,0,0,1,2.72-.33,3.36,3.36,0,0,1,2.53,1.5,5.63,5.63,0,0,1,.87,1.73,8.16,8.16,0,0,1,.32,1.45c0,.35,0,1,0,1.89s0,1.51,0,1.79a173,173,0,0,1-.85,19.82c-.06.55-.11.93-.14,1.16a2,2,0,0,1-.34.81,1.45,1.45,0,0,1-.83.61,12.94,12.94,0,0,1-1.48.32,7,7,0,0,1-.7.07,3.81,3.81,0,0,1-1-.21c-.5-.16-1-.29-1.39-.39-.73-.18-1.28-.33-1.64-.44a3.71,3.71,0,0,1-1.15-.66,1.62,1.62,0,0,1-.67-1.18,75.23,75.23,0,0,1-.42-9.34c-.72,0-1.49,0-2.32-.05h-1.8c-.37,0-.89,0-1.54-.1s-1.42-.18-2.29-.32c0,1.27-.06,2.25,0,2.94a17.34,17.34,0,0,0,.09,2.07,19,19,0,0,1,.08,2.06,5.8,5.8,0,0,1-.36,1.66,4.94,4.94,0,0,1-1.11,1.76,4.67,4.67,0,0,1-3.12,1.51,10,10,0,0,1-3.73-.63,1.2,1.2,0,0,1-.63-.34,1.32,1.32,0,0,1-.31-.55,3.6,3.6,0,0,1-.12-.72,5.34,5.34,0,0,1,0-.8A5.74,5.74,0,0,0,1362,330Z"/><path d="M1402.05,335.61c-2.6-4.9-5.42-11-8.51-18.18A2.12,2.12,0,0,1,1394,315a6,6,0,0,1,2.65-1.71c1-.32,1.86.35,2.69,2l2.12,4.2c.91,1.79,1.59,3.23,2.07,4.3s.94,2.24,1.38,3.51c.6-.92,1.23-1.84,1.9-2.78s1.24-1.7,1.7-2.29l2.16-2.71c1-1.22,1.72-2.14,2.23-2.77.07-.08.19-.24.36-.47a4.18,4.18,0,0,1,.41-.51c.1-.11.23-.23.38-.37a1.44,1.44,0,0,1,.49-.29,1.58,1.58,0,0,1,.59-.06,2.57,2.57,0,0,1,2.81,1.82,1.56,1.56,0,0,1,.11,1.24,4.89,4.89,0,0,1-.41,1.12c-.14.25-.39.63-.74,1.15-.53.8-1.28,2-2.25,3.5s-1.72,2.69-2.23,3.48-1.3,1.89-2.35,3.32-2.24,2.94-3.54,4.53a3.46,3.46,0,0,1-2.36,1.3A2,2,0,0,1,1402.05,335.61Z"/><path d="M1436,336.12a13,13,0,0,1-3.1,1.1c-3.15.67-6.45,0-10-2a6.73,6.73,0,0,1-3-8.16,4.36,4.36,0,0,1,3-2.75,19.53,19.53,0,0,1,10.59,0,2.47,2.47,0,0,0-1.26-2.33,4.86,4.86,0,0,0-2.82-.44,20.7,20.7,0,0,1-3.26.11,6,6,0,0,1-2.66-.63,2.61,2.61,0,0,1-1-2.71,2.38,2.38,0,0,1,1.81-2.17,34.33,34.33,0,0,1,4.72-.87,13.15,13.15,0,0,1,4.22.31,10.49,10.49,0,0,1,4.15,2,7.5,7.5,0,0,1,1.6,1.58,4.11,4.11,0,0,1,.72,1.82,11.9,11.9,0,0,1,.13,1.71c0,.44-.07,1.15-.17,2.12s-.19,1.72-.24,2.23c0,.29-.06.9-.11,1.83s-.09,1.57-.12,1.9-.13.84-.28,1.55a4.53,4.53,0,0,1-.59,1.59,9.59,9.59,0,0,1-1,1.17A5.22,5.22,0,0,1,1436,336.12Zm-6.39-3.22a6.37,6.37,0,0,0,2.93-2,3.29,3.29,0,0,0,.67-2.91,2.14,2.14,0,0,0-2-1.56,5.12,5.12,0,0,0-3.06.34c-2.72,1-3.85,2.39-3.43,4.21a2.58,2.58,0,0,0,1.86,1.87A4.42,4.42,0,0,0,1429.62,332.9Z"/><path d="M1454.43,340.19a9.53,9.53,0,0,1-4.44-.5,10.31,10.31,0,0,1-3.81-2.28,7.13,7.13,0,0,1-2.11-3.39,26.19,26.19,0,0,1-.59-5.19c-.06-1.54,0-3.91.18-7.13s.37-5.77.65-7.65.74-3.31,1.39-3.95a3.63,3.63,0,0,1,3-.79,2.12,2.12,0,0,1,1.75,1.44,8.39,8.39,0,0,1,.5,3.45,42.08,42.08,0,0,1-.32,4.23c-.17,1.4-.37,2.89-.61,4.49s-.38,2.74-.42,3.46c0,.2,0,.52-.07,1s0,.76-.06,1,0,.45,0,.78a5.39,5.39,0,0,0,.11.94c.06.3.14.61.23.94a5.16,5.16,0,0,0,1.64,2.51,4.61,4.61,0,0,0,2.17,1.06,7.36,7.36,0,0,1,2,.54,1.44,1.44,0,0,1,1,1.12,4.32,4.32,0,0,1-.29,2.57A2.19,2.19,0,0,1,1454.43,340.19Z"/><path d="M1460.71,337.65a94.57,94.57,0,0,1,.43-10c.32-3,.66-5.53,1.06-7.47s1.15-5.09,2.18-9.44c.1-.54.53-.87,1.27-1a4.15,4.15,0,0,1,2.2.23,1.9,1.9,0,0,1,1.3,1.22,11.5,11.5,0,0,1,.08,3.67c-.17.94-.42,2.25-.78,3.9a23.2,23.2,0,0,0-.58,4.17,5.12,5.12,0,0,1,2.21-1.13,4.59,4.59,0,0,1,2.08-.1,7.66,7.66,0,0,0,1.37.21,6.25,6.25,0,0,1,3.44,1.73,7.44,7.44,0,0,1,2,3.2,15.42,15.42,0,0,1,.65,3.82,15.74,15.74,0,0,1-.25,3.71,9.09,9.09,0,0,1-.9,2.72,8,8,0,0,1-4,3.63,19.1,19.1,0,0,1-7.47.89,10.22,10.22,0,0,1-4.7-1A3.12,3.12,0,0,1,1460.71,337.65Zm11.39-12.33a3,3,0,0,0-3,1.18,8.37,8.37,0,0,0-1.78,4.8,4.52,4.52,0,0,0,1.05,3,4.06,4.06,0,0,0,2.59,1.86,3.25,3.25,0,0,0,2.8-.84,5.67,5.67,0,0,0,1.65-2.75c0-.05,0-.17.09-.33.17-.56.29-1,.37-1.34a7.17,7.17,0,0,0,.1-1.5,3.94,3.94,0,0,0-.34-1.67,4.07,4.07,0,0,0-1.23-1.37A6.32,6.32,0,0,0,1472.1,325.32Z"/><path d="M1491.83,323.24c4.35,0,7.7,1.12,10,3.32a9.8,9.8,0,0,1,2.89,8.71,18.13,18.13,0,0,1-1.68,6.32,7.92,7.92,0,0,1-4.35,3.64,11.1,11.1,0,0,1-4.83.77,12.05,12.05,0,0,1-4.44-1.12,12.88,12.88,0,0,1-3.57-2.51q-3.5-3.42-3.36-7.29a16.57,16.57,0,0,1,1.12-5.54,10.9,10.9,0,0,1,3.21-4.46A7.64,7.64,0,0,1,1491.83,323.24Zm1.67,6.21a3,3,0,0,0-3.4,2.28,10,10,0,0,0-.45,3.39,5.32,5.32,0,0,0,1.72,3.9,4.61,4.61,0,0,0,4.21.81,5.1,5.1,0,0,0,3.07-1.66,4.24,4.24,0,0,0,1-2.87,5.51,5.51,0,0,0-1.67-3.9A6.61,6.61,0,0,0,1493.5,329.45Z"/><path d="M1515.52,340c0,.23,0,.79-.09,1.69a17.29,17.29,0,0,1-.16,1.76c0,.28-.15.73-.3,1.36a4,4,0,0,1-.7,1.54,7.12,7.12,0,0,1-1.2,1.19,3.84,3.84,0,0,1-3.18.41,4.42,4.42,0,0,1-2.41-1.32c-.89-1.15-.62-4.6.64-10.39.52-2.42,1.32-5.74,2.34-9.95a2,2,0,0,1,1.56-1.45,3.09,3.09,0,0,1,2.43.25,3.81,3.81,0,0,1,1.92,2.35,7.52,7.52,0,0,1,2.88-1,9.28,9.28,0,0,1,3.44.55,8.15,8.15,0,0,1,3.92,2.64,6.23,6.23,0,0,1,1.41,4.13,2.4,2.4,0,0,1-1,2.09,2.71,2.71,0,0,1-2.18.29,5.63,5.63,0,0,1-2.32-1.23,1.37,1.37,0,0,1-.45-.88,3,3,0,0,1,0-1,1.6,1.6,0,0,0-.1-.88.77.77,0,0,0-.7-.45q-3.75-.43-4.9,2.06C1515.87,337.44,1515.56,339.52,1515.52,340Z"/><path d="M1544,349.7a20.63,20.63,0,0,1-6.93.92,11.25,11.25,0,0,1-5-1.26,4.93,4.93,0,0,1-2.36-2.82,11.33,11.33,0,0,1-.38-4.12,24.81,24.81,0,0,1,1-5.19,8.64,8.64,0,0,1,1.75-3.55,8.08,8.08,0,0,1,3-2.23,15.68,15.68,0,0,1,3.74-1.07,20.51,20.51,0,0,1,4.27-.17,16.27,16.27,0,0,1,5.47.91,8.88,8.88,0,0,1,4.22,3,5.22,5.22,0,0,1,1,2.21,5.84,5.84,0,0,1,.06,2c-.1.55-.28,1.32-.55,2.3a21.64,21.64,0,0,0-.54,2.35c-.17,1-.35,2.35-.56,4s-.39,2.89-.55,3.81a15.65,15.65,0,0,1-1,3.26,13.79,13.79,0,0,1-2.16,3.55c-1.55,1.88-4.3,2.91-8.21,3.13a15.5,15.5,0,0,1-9.8-2.31,1.47,1.47,0,0,1-.56-1.74,2.13,2.13,0,0,1,1.34-1.56,7.32,7.32,0,0,1,3.07-.56,32.69,32.69,0,0,1,3.65.13,11.51,11.51,0,0,0,3.45-.18,4.77,4.77,0,0,0,2.72-1.46,2.81,2.81,0,0,0,.49-.66,2.23,2.23,0,0,0,.23-.78c0-.29.06-.5.07-.63a7.5,7.5,0,0,0,0-.8c0-.4,0-.64-.06-.7C1544.71,349.53,1544.43,349.61,1544,349.7Zm-2.21-15.77a12.3,12.3,0,0,0-3.82.48,4.67,4.67,0,0,0-2.48,1.9q-2.64,3.92-.34,7.49a5,5,0,0,0,2.85,2.11,6.32,6.32,0,0,0,3.77-.09,6.14,6.14,0,0,0,3.48-1.95,6.37,6.37,0,0,0,.84-3.42c0-.25,0-.58,0-1s0-.73,0-1,0-.59,0-1a4.94,4.94,0,0,0-.12-.95,6.49,6.49,0,0,0-.29-.83,1.49,1.49,0,0,0-.5-.7l-.79-.57a2,2,0,0,0-1.14-.37A14.42,14.42,0,0,1,1541.82,333.93Z"/><path d="M1097.81,408.67c-1.34-2.23-2.57-4.53-3.68-6.88s-2-4.5-2.83-6.43-1.82-4.39-3.07-7.38c-.61-1.45-.16-3,1.37-4.49a5.41,5.41,0,0,1,1-.71,7.49,7.49,0,0,1,1.17-.52,2.13,2.13,0,0,1,1.1-.09,1,1,0,0,1,.71.57c1.64,3.66,3.41,7.85,5.39,12.54a33.3,33.3,0,0,1,4.55-6.25,8.66,8.66,0,0,1,1.81-1.5,4.6,4.6,0,0,1,2.17-.75,1.72,1.72,0,0,1,1.7.83,3.46,3.46,0,0,1,.57,2.28,5.16,5.16,0,0,1-1,2.4,28.6,28.6,0,0,1-1.81,2.27c-.62.7-1.37,1.49-2.23,2.38a24.12,24.12,0,0,0-1.94,2.19,20.69,20.69,0,0,0,3.88,1.78c1.93.73,3.84,1.49,5.73,2.3a15.09,15.09,0,0,1,4,2.22c.63.59.61,1.26,0,2a2.27,2.27,0,0,1-2.31.83,46,46,0,0,1-11.24-4.08l.69,1.56c.31.7.56,1.23.73,1.59q.7,1.52.15,2.28a2.1,2.1,0,0,1-1.73.83,9.49,9.49,0,0,1-2.67-.32A3.24,3.24,0,0,1,1097.81,408.67Z"/><path d="M1135.31,401.93a8.91,8.91,0,0,1-2.19,1.75c-2.44,1.38-5.65,1.58-9.68.66a8.4,8.4,0,0,1-4.36-2.52,6.93,6.93,0,0,1-2-4.07,3.23,3.23,0,0,1,1.47-3.23,17,17,0,0,1,9.4-2.71,3,3,0,0,0-2.1-1.79,4.53,4.53,0,0,0-2.7.31,17.74,17.74,0,0,1-2.86.93,5.86,5.86,0,0,1-2.64.1,3,3,0,0,1-2-2.19,1.92,1.92,0,0,1,.73-2.43,27.26,27.26,0,0,1,3.9-2,12,12,0,0,1,3.9-.81,11.16,11.16,0,0,1,4.51.74,9.32,9.32,0,0,1,2,1,4.75,4.75,0,0,1,1.37,1.48,13.59,13.59,0,0,1,.82,1.52c.17.42.42,1.08.73,2s.56,1.61.74,2.1c.09.26.33.83.69,1.69s.61,1.45.73,1.75.26.81.45,1.49a4.42,4.42,0,0,1,.2,1.59,7.92,7.92,0,0,1-.31,1.29A3.58,3.58,0,0,1,1135.31,401.93Zm-7.11-1.33a4.38,4.38,0,0,0,1.69-2.51,3.33,3.33,0,0,0-.7-2.8,2.53,2.53,0,0,0-2.45-.91,4.23,4.23,0,0,0-2.57,1.07c-2,1.57-2.35,3.12-1.13,4.66a3.29,3.29,0,0,0,2.5,1.22A3.72,3.72,0,0,0,1128.2,400.6Z"/><path d="M1140.39,400.15a113.12,113.12,0,0,1-4.26-11.45c-.19-.54-.36-1.07-.52-1.58s-.31-1-.43-1.4a4.06,4.06,0,0,1-.16-1.37,3.32,3.32,0,0,1,.4-1.44c.61-1.25,2-1.73,4.14-1.42a3.32,3.32,0,0,1,2.5,2.18,6.44,6.44,0,0,1,1-2.2,3,3,0,0,1,1.58-1,7.46,7.46,0,0,1,3.63-.25,8.08,8.08,0,0,1,3,1.21,9.55,9.55,0,0,1,2.45,2.58,33,33,0,0,1,2,3.25,32.41,32.41,0,0,1,1.67,3.9q.87,2.37,1.32,3.84c.31,1,.68,2.23,1.15,3.73.16.46-.1.91-.78,1.36a4.66,4.66,0,0,1-2.33.75,2.09,2.09,0,0,1-1.9-.69,23,23,0,0,1-2-4.39,56.5,56.5,0,0,0-2.25-5.3,8.44,8.44,0,0,0-2.3-2.92,2.59,2.59,0,0,0-2.69-.24,1.46,1.46,0,0,0-.62.43,1.82,1.82,0,0,0-.29.69,2.54,2.54,0,0,0-.08.64c0,.14,0,.41,0,.81.84,2.2,1.44,3.86,1.77,5s.78,3.06,1.41,5.78c.12.47-.29.93-1.21,1.38a4.87,4.87,0,0,1-2.31.62,5.13,5.13,0,0,1-2.43-.62A3.81,3.81,0,0,1,1140.39,400.15Z"/><path d="M1181.44,390.91A2.32,2.32,0,0,0,1183,390a1,1,0,0,0-.25-1.39,8.75,8.75,0,0,0-3.46-1.75,14.71,14.71,0,0,1-3.41-1.4,4.87,4.87,0,0,1-2-2.68,6.14,6.14,0,0,1-.17-3.36,6,6,0,0,1,1.65-2.9,4.93,4.93,0,0,1,3.1-1.45,12.15,12.15,0,0,1,4.7.48,12.47,12.47,0,0,1,4.12,2.43,1.54,1.54,0,0,1,.41,1.95,2.38,2.38,0,0,1-1.62,1.52,2.2,2.2,0,0,1-1.74-.26l-1.8-1a2.12,2.12,0,0,0-1.7-.26,1.39,1.39,0,0,0-1.07,1.09,2,2,0,0,0,.23,1.52c.5.85,1.61,1.44,3.32,1.79.72.13,1.32.27,1.79.4a10.86,10.86,0,0,1,1.66.67,4.84,4.84,0,0,1,1.6,1.21,4.79,4.79,0,0,1,.94,1.84c.71,2.44.42,4.32-.87,5.66a6.38,6.38,0,0,1-2.86,1.79,9.44,9.44,0,0,1-3.62.26,14.91,14.91,0,0,1-4.16-.77,8.23,8.23,0,0,1-3.18-2.17,1.86,1.86,0,0,1-.36-2.08,2.5,2.5,0,0,1,1.64-1.54,3.34,3.34,0,0,1,2.77.58A3.9,3.9,0,0,0,1181.44,390.91Z"/><path d="M1202.74,394.23c-3.91-4.25-8.33-9.58-13.2-16a2.12,2.12,0,0,1-.24-2.38,5.07,5.07,0,0,1,2-2.11c.8-.47,1.81,0,3,1.48l3.1,3.67c1.33,1.57,2.36,2.82,3.11,3.77s1.5,2,2.29,3.14c.26-1,.57-2,.91-3s.65-1.85.9-2.49.66-1.65,1.22-3,1-2.36,1.31-3.06c0-.09.11-.26.21-.52a5.45,5.45,0,0,1,.24-.57c.07-.12.15-.26.25-.41a1.21,1.21,0,0,1,.38-.37,1.44,1.44,0,0,1,.53-.17,2.62,2.62,0,0,1,3,1.27,1.74,1.74,0,0,1,.42,1.18,5,5,0,0,1-.08,1.15c-.07.27-.19.69-.37,1.25-.27.87-.64,2.12-1.1,3.77s-.8,2.89-1,3.73-.63,2-1.16,3.6-1.13,3.2-1.8,4.94a2.59,2.59,0,0,1-1.71,1.64A2,2,0,0,1,1202.74,394.23Z"/><path d="M1221.47,370.65a13.79,13.79,0,0,1,8.47.14l.41-.47a3,3,0,0,0,.41-.51c.62-.78,1.71-.82,3.26-.12.55.27.79.92.72,2a4.57,4.57,0,0,1-.58,2.21,12.64,12.64,0,0,1,2.52,5.44,21,21,0,0,1,.57,6.54,6.66,6.66,0,0,1-2.57,4.52,9.59,9.59,0,0,1-5.66,2,12.36,12.36,0,0,1-5.88-1.5,9.14,9.14,0,0,1-1.39,1.22,1.79,1.79,0,0,1-2.23.13,1.74,1.74,0,0,1-.78-2.29c.06-.15.18-.42.37-.8a5.84,5.84,0,0,0,.4-.88,10.2,10.2,0,0,1-2.63-4.05,16.38,16.38,0,0,1-.84-5.58,10,10,0,0,1,1.48-5.06A6.52,6.52,0,0,1,1221.47,370.65Zm3.36,5.63a2.64,2.64,0,0,0-2.32,3,10,10,0,0,0,.38,2.39c1.1-2,2.19-3.87,3.25-5.5A5,5,0,0,0,1224.83,376.28Zm1.57,9.92a4.32,4.32,0,0,0,3.65-.34,4.12,4.12,0,0,0,2.15-2.31,4.36,4.36,0,0,0,0-3,6.58,6.58,0,0,0-.94-1.82Q1228.55,383,1226.4,386.2Z"/><path d="M1242.32,388.53a64.48,64.48,0,0,1-2.12-8.65c-.5-2.87-.89-5.83-1.19-8.89a2.78,2.78,0,0,1,.41-1.88,2.73,2.73,0,0,1,1.6-1.1,8,8,0,0,1,3.18-.22,4,4,0,0,1,2.59,1.1,8,8,0,0,1,3.63-1.62,6.73,6.73,0,0,1,6.8,2.16,9.76,9.76,0,0,1,.87-1.22,3.76,3.76,0,0,1,2-1.3,9.34,9.34,0,0,1,2.78-.22,6.29,6.29,0,0,1,2.62.7,6.91,6.91,0,0,1,2,1.51,8.77,8.77,0,0,1,1.4,2.3,18.51,18.51,0,0,1,1,2.67q.33,1.26.63,3.09c.19,1.21.33,2.24.41,3.07l.3,3.12c.11,1.25.21,2.18.28,2.78a1.69,1.69,0,0,1-1.1,1.92c-1.43.69-2.36.91-2.79.68a1.18,1.18,0,0,1-.46-.5,12.92,12.92,0,0,1-1-3.38,34.74,34.74,0,0,1-.4-3.89,29.6,29.6,0,0,0-.27-3.06q0-.21-.12-1.23c-.07-.67-.13-1.21-.2-1.63a5.65,5.65,0,0,0-.43-1.38,2.45,2.45,0,0,0-.86-1.12,1.52,1.52,0,0,0-2.09.29,5.77,5.77,0,0,0-1.36,2.53,13.58,13.58,0,0,0-.26,4.3,51,51,0,0,0,.76,5.6c.38,2,.59,3.12.62,3.31.06.49-.27.85-1,1.09a5.15,5.15,0,0,1-2.39.13c-.86-.15-1.39-.44-1.6-.89a27,27,0,0,1-1.12-6.11c-.49-4.35-1.16-7.12-2.09-8.29s-2.48-1.35-4.32-.12a2.21,2.21,0,0,0-.65.7c.21,1.19.47,3.24.81,6.12s.7,5.39,1.07,7.49c.14.86-.38,1.45-1.56,1.78a7.38,7.38,0,0,1-3.82,0C1243.4,389.92,1242.58,389.34,1242.32,388.53Z"/><path d="M1275.62,386.36a68.29,68.29,0,0,1-1.59-8.75q-.48-4.35-.68-9a2.79,2.79,0,0,1,.51-1.86,2.85,2.85,0,0,1,1.66-1.07,7.93,7.93,0,0,1,3.18-.11,3.79,3.79,0,0,1,2.52,1.18,8.16,8.16,0,0,1,3.71-1.51,6.55,6.55,0,0,1,6.66,2.38,10.84,10.84,0,0,1,.94-1.21,4,4,0,0,1,2-1.24,9.73,9.73,0,0,1,2.79-.14,6.34,6.34,0,0,1,2.58.79,6.81,6.81,0,0,1,1.88,1.57,8.63,8.63,0,0,1,1.27,2.35,19.18,19.18,0,0,1,.8,2.71c.18.85.32,1.89.45,3.11s.2,2.26.23,3.1.06,1.88.11,3.14.07,2.19.11,2.79a1.78,1.78,0,0,1-1.22,1.9c-1.48.64-2.41.84-2.83.59a1.1,1.1,0,0,1-.42-.5,13.34,13.34,0,0,1-.81-3.43,34.94,34.94,0,0,1-.16-3.92,30.18,30.18,0,0,0-.09-3.07c0-.14,0-.56,0-1.23s-.06-1.23-.1-1.65a5.72,5.72,0,0,0-.35-1.4,2.47,2.47,0,0,0-.79-1.14,1.51,1.51,0,0,0-2.1.22,6,6,0,0,0-1.51,2.5,13.64,13.64,0,0,0-.5,4.3,51.28,51.28,0,0,0,.41,5.65c.26,2,.39,3.14.41,3.34,0,.49-.32.84-1.08,1.06a5.05,5.05,0,0,1-2.39.06c-.84-.17-1.35-.49-1.53-.94q-.43-1-.74-6.17c-.22-4.38-.74-7.18-1.6-8.38s-2.4-1.44-4.29-.25a2.22,2.22,0,0,0-.69.68q.2,1.8.44,6.17t.62,7.56c.08.86-.48,1.44-1.67,1.74a7.3,7.3,0,0,1-3.81-.13C1276.6,387.79,1275.83,387.19,1275.62,386.36Z"/><path d="M1311.91,379.17s0,0,0,0,0,0,0,0a3.41,3.41,0,0,0,1,1.22,4,4,0,0,0,1.17.63q.51.15,1.62.36c.73.15,1.25.27,1.54.35a9.6,9.6,0,0,0,3.05.27,16.43,16.43,0,0,1,2.77-.07,6.71,6.71,0,0,1,2.86.75,1.53,1.53,0,0,1,.67,1.76,1.85,1.85,0,0,1-1.13,1.63,16.87,16.87,0,0,1-4.8.87,23.16,23.16,0,0,1-4.9-.76,7.68,7.68,0,0,0-.86-.23l-.91-.2c-.09,0-.35-.08-.8-.2s-.73-.22-.85-.27l-.72-.31a3.62,3.62,0,0,1-.75-.4,6.32,6.32,0,0,0-.62-.44,2.54,2.54,0,0,1-.63-.56c-.13-.18-.3-.4-.48-.66a4.63,4.63,0,0,1-.47-.81,14.45,14.45,0,0,1-1.27-4,12.92,12.92,0,0,1-.09-3.71,26,26,0,0,1,.91-4.11,6.73,6.73,0,0,1,5.25-4.75,16.1,16.1,0,0,1,5.32-.79,10.11,10.11,0,0,1,5,1.53,4.55,4.55,0,0,1,2.23,2.71,15.31,15.31,0,0,1,.44,4.42,4.29,4.29,0,0,1-2.9,3.93,25.69,25.69,0,0,1-5.58,1.4A22.14,22.14,0,0,1,1311.91,379.17Zm3.87-10.48a4.77,4.77,0,0,0-2.39.52,3.18,3.18,0,0,0-1.4,1.48,8.28,8.28,0,0,0-.59,1.81,11.83,11.83,0,0,0-.16,2c.29-.06,1.68-.19,4.16-.38a14.83,14.83,0,0,0,5.12-1,3,3,0,0,0,1.58-1.62c.19-.61-.07-1.18-.78-1.73C1320.24,369.05,1318.4,368.68,1315.78,368.69Z"/><path d="M1357.33,383a17.38,17.38,0,0,1-6.13,2.14,9.4,9.4,0,0,1-4.71-.41,4.76,4.76,0,0,1-2.61-2.43,12.19,12.19,0,0,1-1-4.09,25.51,25.51,0,0,1,.12-5.4,9.09,9.09,0,0,1,1.11-3.87,8.26,8.26,0,0,1,2.47-2.77,14.48,14.48,0,0,1,3.34-1.73,17.66,17.66,0,0,1,4-.94,14.28,14.28,0,0,1,5.21-.06,7.61,7.61,0,0,1,4.26,2.27,5,5,0,0,1,1.19,2.05,6.15,6.15,0,0,1,.3,2c0,.57-.11,1.38-.23,2.42a23.21,23.21,0,0,0-.19,2.47c0,1.07,0,2.44,0,4.12s.06,3,0,3.94a19.49,19.49,0,0,1-.43,3.48,16.18,16.18,0,0,1-1.37,4c-1.08,2.17-3.36,3.69-6.82,4.59a12.84,12.84,0,0,1-9.2-.64,1.6,1.6,0,0,1-.82-1.66,2.15,2.15,0,0,1,.9-1.81,6.4,6.4,0,0,1,2.66-1.1,29.17,29.17,0,0,1,3.31-.49,9.51,9.51,0,0,0,3.08-.78,4.55,4.55,0,0,0,2.22-2,3.31,3.31,0,0,0,.33-.76,2.63,2.63,0,0,0,.08-.82c0-.3,0-.52,0-.65a7.94,7.94,0,0,0-.13-.8,6.16,6.16,0,0,0-.17-.7C1357.93,382.75,1357.68,382.88,1357.33,383Zm-4.25-15.52a11.43,11.43,0,0,0-3.48,1.16,4.8,4.8,0,0,0-2,2.36c-1.26,2.93-1,5.46.79,7.6a4.48,4.48,0,0,0,2.92,1.62,5.36,5.36,0,0,0,3.42-.74,6.07,6.07,0,0,0,2.9-2.59,7.33,7.33,0,0,0,.3-3.59c0-.26-.05-.59-.1-1s-.07-.74-.09-1a8.69,8.69,0,0,0-.14-1,5.59,5.59,0,0,0-.23-.94,7,7,0,0,0-.36-.78,1.44,1.44,0,0,0-.56-.62l-.8-.43a1.65,1.65,0,0,0-1.1-.17A13,13,0,0,1,1353.08,367.52Z"/><path d="M1378.68,387.77a8.24,8.24,0,0,1-4.12-.18,9.23,9.23,0,0,1-3.61-2,6.93,6.93,0,0,1-2.09-3.25,27.4,27.4,0,0,1-.75-5.16c-.12-1.54-.14-3.93-.08-7.16s.19-5.81.41-7.71a7.85,7.85,0,0,1,1.23-4.06,3.53,3.53,0,0,1,2.8-1,1.89,1.89,0,0,1,1.68,1.32,8.56,8.56,0,0,1,.54,3.42c0,1.43-.09,2.86-.22,4.27s-.29,2.92-.47,4.53-.27,2.78-.29,3.5c0,.21,0,.53,0,1s0,.76,0,.95,0,.45,0,.78a5.33,5.33,0,0,0,.13.94c.07.29.15.6.24.92a5,5,0,0,0,1.61,2.4,3.87,3.87,0,0,0,2,.9,7,7,0,0,1,1.83.4,1.33,1.33,0,0,1,1,1.06,4.62,4.62,0,0,1-.18,2.59A2.19,2.19,0,0,1,1378.68,387.77Z"/><path d="M1399,386.56a12.63,12.63,0,0,1-2.9,1.22c-2.93.79-6,.26-9.21-1.6a5.91,5.91,0,0,1-2.75-3.53,6.79,6.79,0,0,1,.1-4.52,4.48,4.48,0,0,1,2.85-2.86,17.34,17.34,0,0,1,9.93-.44,2.32,2.32,0,0,0-1.13-2.27,4.2,4.2,0,0,0-2.64-.34,18.27,18.27,0,0,1-3.07.23,5.22,5.22,0,0,1-2.48-.53,2.59,2.59,0,0,1-.88-2.67,2.51,2.51,0,0,1,1.74-2.23,32,32,0,0,1,4.48-1,11.72,11.72,0,0,1,4,.15,9,9,0,0,1,3.87,1.83,7.1,7.1,0,0,1,1.46,1.52,3.9,3.9,0,0,1,.62,1.79,10.61,10.61,0,0,1,.07,1.7c0,.44-.09,1.16-.22,2.13s-.22,1.72-.28,2.23c0,.29-.08.9-.15,1.84s-.13,1.56-.17,1.89-.14.85-.29,1.56a5.28,5.28,0,0,1-.59,1.62,11,11,0,0,1-.93,1.2A5.65,5.65,0,0,1,1399,386.56Zm-5.88-3a6.45,6.45,0,0,0,2.76-2.08,3.56,3.56,0,0,0,.69-2.93,1.88,1.88,0,0,0-1.83-1.49,4.71,4.71,0,0,0-2.87.45c-2.56,1.08-3.63,2.54-3.26,4.35a2.31,2.31,0,0,0,1.7,1.79A3.84,3.84,0,0,0,1393.16,383.59Z"/><path d="M1428.87,360.5c.06,3.56,0,6.41-.16,8.56a52.37,52.37,0,0,1-1.07,7.18,58,58,0,0,1-2.55,8.4,7.26,7.26,0,0,1-3.35,3.95,9.68,9.68,0,0,1-5.26,1.23c-5.1-.28-8.45-2.32-10.15-6.15-1.83-4.16-1.15-8.15,2.21-11.94a7.29,7.29,0,0,1,3.06-2.11,9,9,0,0,1,3.56-.53c1.2.08,2.5.18,3.91.32a3.65,3.65,0,0,1,1.28.44q.38-1.74,1.36-5.07c.65-2.21,1.06-3.8,1.25-4.77a1.84,1.84,0,0,1,1.13-1.42,3.49,3.49,0,0,1,2-.29,4.47,4.47,0,0,1,1.91.74A1.81,1.81,0,0,1,1428.87,360.5Zm-10.32,13.67a4.51,4.51,0,0,0-3.43-1.33,8.26,8.26,0,0,0-4,1.06,3.46,3.46,0,0,0-1.76,3,8.78,8.78,0,0,0,.87,3.87,5.14,5.14,0,0,0,2,2.47,7.42,7.42,0,0,0,3.7.89,3.64,3.64,0,0,0,2.57-1.24,6.17,6.17,0,0,0,1.35-2.6,7.07,7.07,0,0,0,.06-3.18A7.17,7.17,0,0,0,1418.55,374.17Z"/><path d="M1451.76,384.36c0,.23-.07.79-.16,1.69s-.17,1.48-.23,1.77-.18.73-.34,1.36a4.67,4.67,0,0,1-.73,1.59,7.54,7.54,0,0,1-1.17,1.26,4.12,4.12,0,0,1-5.2-.52c-.79-1.08-.42-4.54,1-10.4.59-2.45,1.5-5.8,2.69-10.06a2.23,2.23,0,0,1,1.56-1.55,2.8,2.8,0,0,1,2.31.09,3.18,3.18,0,0,1,1.7,2.22,7.85,7.85,0,0,1,2.82-1.17,8.25,8.25,0,0,1,3.26.32,6.56,6.56,0,0,1,3.59,2.36,5.66,5.66,0,0,1,1.09,4,2.8,2.8,0,0,1-1.07,2.14,2.6,2.6,0,0,1-2.09.43,4.46,4.46,0,0,1-2.14-1.06,1.23,1.23,0,0,1-.38-.84,3.49,3.49,0,0,1,.06-1,1.58,1.58,0,0,0,0-.87.61.61,0,0,0-.64-.39q-3.56-.18-4.77,2.37C1452.21,381.84,1451.82,383.93,1451.76,384.36Z"/><path d="M1484,390.32a10.43,10.43,0,0,1-5.2,4.72,10.76,10.76,0,0,1-7.4.56,7.63,7.63,0,0,1-4.94-3.71,11.07,11.07,0,0,1-1.11-6.59,31.59,31.59,0,0,1,1-5.58,28.53,28.53,0,0,1,2.16-5.31,2.32,2.32,0,0,1,1.3-1.2,3.39,3.39,0,0,1,1.93-.13,2.76,2.76,0,0,1,1.56.84,2.11,2.11,0,0,1,.54,1.54,18.19,18.19,0,0,1-1.43,5.6,16.3,16.3,0,0,0-1.37,5.61,2.67,2.67,0,0,0,.84,1.81,5.81,5.81,0,0,0,2,1.39,4.53,4.53,0,0,0,2.45.31,3,3,0,0,0,2.08-1.29,12.67,12.67,0,0,0,1.21-3.35c.39-1.55.72-3.1,1-4.66a16.54,16.54,0,0,1,1.3-4.2c.59-1.25,1.3-1.92,2.14-2a2.41,2.41,0,0,1,2.74,1.62,8.34,8.34,0,0,1,.26,4.56,38,38,0,0,1-1.33,5.3A27.93,27.93,0,0,1,1484,390.32Z"/><path d="M1486.38,394.09c1.14-4.52,2.21-8.47,3.26-11.83q.22-.83.45-1.62c.15-.52.29-1,.42-1.42a4.65,4.65,0,0,1,.63-1.32,5,5,0,0,1,1.18-1.21q1.88-1.45,4.53,0a2.42,2.42,0,0,1,1,2.78,9.46,9.46,0,0,1,2.12-1.73,3.76,3.76,0,0,1,2-.45,6.77,6.77,0,0,1,3.42.89,5.67,5.67,0,0,1,2,2,6.78,6.78,0,0,1,.75,3.11,25.28,25.28,0,0,1-.12,3.55,26.31,26.31,0,0,1-.85,4q-.67,2.4-1.2,3.87c-.35,1-.8,2.21-1.36,3.7-.16.47-.69.8-1.59,1a5.36,5.36,0,0,1-2.58,0c-.82-.21-1.24-.6-1.26-1.18a22.82,22.82,0,0,1,1-4.57,39.45,39.45,0,0,0,1.26-5.49,6.2,6.2,0,0,0-.32-3.36,2.11,2.11,0,0,0-2.29-1,1.86,1.86,0,0,0-.81.2,2.79,2.79,0,0,0-.68.55,4.14,4.14,0,0,0-.45.56c-.08.13-.24.38-.46.75-.56,2.27-1.06,4-1.47,5.1s-1.22,3-2.43,5.7c-.2.46-.87.76-2,.9a5.23,5.23,0,0,1-2.47-.1,3.37,3.37,0,0,1-1.76-1.28A2.84,2.84,0,0,1,1486.38,394.09Z"/><path d="M1536.37,375c-.48,3.44-1,6.18-1.5,8.23a49,49,0,0,1-2.29,6.8,55.51,55.51,0,0,1-4.06,7.82,8.29,8.29,0,0,1-4.12,3.46,10.76,10.76,0,0,1-5.53.68c-5.09-.75-8.06-3-9.06-6.86-1.07-4.17.33-8,4.34-11.3a8.15,8.15,0,0,1,3.43-1.73,9.28,9.28,0,0,1,3.66-.16c1.19.18,2.48.41,3.88.68a3.52,3.52,0,0,1,1.21.55c.44-1.09,1.17-2.68,2.18-4.75s1.66-3.57,2-4.48a2,2,0,0,1,1.35-1.27,3.84,3.84,0,0,1,2.07-.08,4.41,4.41,0,0,1,1.79.91A1.63,1.63,0,0,1,1536.37,375Zm-12.58,12.16a4.29,4.29,0,0,0-3.22-1.62,9.33,9.33,0,0,0-4.21.63,3.76,3.76,0,0,0-2.3,2.77,8,8,0,0,0,.19,3.81,4.34,4.34,0,0,0,1.51,2.56,7.4,7.4,0,0,0,3.56,1.21,4.17,4.17,0,0,0,2.81-.95,6.66,6.66,0,0,0,2.45-5.42A6.14,6.14,0,0,0,1523.79,387.14Z"/><path d="M1545.25,381.55a3,3,0,0,1,2.89-.62c1.26.26,1.85.81,1.78,1.66a16,16,0,0,1-1.38,5.26,23,23,0,0,1,5,2.13,1.38,1.38,0,0,1,.34,1.89,5.21,5.21,0,0,1-1.85,2.05,2,2,0,0,1-1.15.4,5.65,5.65,0,0,1-1.49-.3c-.61-.19-1-.3-1.31-.36-.58-.11-1.36-.23-2.36-.37-.57,1.09-1,1.89-1.24,2.38a14.67,14.67,0,0,0-.83,2.24,10.72,10.72,0,0,0-.49,2.82c0,.9.55,1.47,1.74,1.69a5.05,5.05,0,0,0,3.47-.57,2.32,2.32,0,0,0,.86-1.46c.21-.79.53-1.18,1-1.18a11.73,11.73,0,0,1,2.21-.21,4.08,4.08,0,0,1,1.88.41.85.85,0,0,1,.42,1.2c-1.19,2.84-3.74,4.74-7.53,5.75a7.63,7.63,0,0,1-8.77-3.56,6.36,6.36,0,0,1-.88-3.12,8.61,8.61,0,0,1,.26-2.09,8,8,0,0,1,.6-1.69l1-1.83c.42-.78.74-1.41,1-1.88l-.73-.28a4.75,4.75,0,0,0-.57-.21,7.44,7.44,0,0,1-2-1.17,2,2,0,0,1-.65-1.69,2.14,2.14,0,0,1,1-1.62,2.9,2.9,0,0,1,2-.63l3,.21A12.36,12.36,0,0,1,1545.25,381.55Z"/><path d="M1565.14,403a3.69,3.69,0,0,1,.35,3.4,6,6,0,0,1-2.63,3.07,5.31,5.31,0,0,1-4,.66,4.79,4.79,0,0,1-3.05-2.08,2.65,2.65,0,0,1-.41-2.32,4.63,4.63,0,0,1,1.14-2.05,10.71,10.71,0,0,1,1.9-1.54,5.35,5.35,0,0,1,3.44-.83A4.45,4.45,0,0,1,1565.14,403Z"/><path d="M1577.36,405.62a3.62,3.62,0,0,1,.27,3.38,5.93,5.93,0,0,1-2.7,3,5.42,5.42,0,0,1-4,.61,4.75,4.75,0,0,1-3-2.11,2.6,2.6,0,0,1-.36-2.3,4.68,4.68,0,0,1,1.19-2,11,11,0,0,1,1.94-1.51,5.48,5.48,0,0,1,3.46-.78A4.42,4.42,0,0,1,1577.36,405.62Z"/><path class="cls-43" d="M1217.83,200.58c-.39,3.17-2.27,4.62-6.32,4.6s-9.27-1.48-15.59-4.13-11.79-5.72-15.7-9.61-5-7.4-3.6-10.86c-7.5-5.43-12.88-11.6-14.73-19.32-3.32-13.44,5.54-28.09,20.74-42.6,15.44-14.49,31.1-24,45-27.1,8.11-1.77,14.74-1.19,20.75,1.63,4.48-4.36,9.06-6.87,13.8-7.43a11.79,11.79,0,0,1,11.4,4.7c2.93,3.68,4.29,8.38,3.88,14a23.3,23.3,0,0,1-6.28,14.55,71.45,71.45,0,0,1,5.78,26,77.9,77.9,0,0,1-10.16,43.12c-6.86,11.86-13.94,17.29-26,17.2C1234,205.26,1226.49,203.54,1217.83,200.58Zm17.25-38.39A20.39,20.39,0,0,0,1238.4,148a19.37,19.37,0,0,0-6.53-13.12,15.77,15.77,0,0,0-13.65-3.61,23,23,0,0,0-13.78,8c-3.73,4.39-5.33,9.11-4.46,14.13s4,8.9,8.69,11.91a22.75,22.75,0,0,0,14.78,3.73A15.19,15.19,0,0,0,1235.08,162.19Z"/><path class="cls-43" d="M1343.28,141.72c8.2-14.72,15.56-29.12,19.13-43.4,1.2-4.59,3.6-7.37,7.57-8.24s8.39.46,13.69,3.93a42.42,42.42,0,0,1,13.25,13.77c3.26,5.59,4.09,10.45,2.38,14.69-8.72,23.32-30.16,46.82-49.36,72.46-5,6.9-10.51,10.46-16.72,10.48s-9.73-3.59-11.44-10.9c-7.19-27.06-22.87-54.56-35.33-81.08a19.34,19.34,0,0,1-.52-15.4,23.14,23.14,0,0,1,9.63-12.33,14.8,14.8,0,0,1,13.54-1.42c4.67,1.76,8.35,5.21,11,10.24C1328.07,110.18,1336.57,126,1343.28,141.72Z"/><path class="cls-43" d="M1424.92,169.75a16,16,0,0,1-11.43-7.22,19.82,19.82,0,0,1-3-13.68,82.59,82.59,0,0,0-3-33.22c-1.6-5.43-1.7-9.7-.22-12.67s4.14-3.75,8.77-2.26,9.88,4.82,15.64,9.83,10.14,10.22,12.39,15.47c4.74,11.06,6.15,21.48,4.69,31.18-.7,4.6-3.79,7.9-8.66,10.28A24.87,24.87,0,0,1,1424.92,169.75Zm-26.61,35.45c-4.11,0-6-1.47-6.34-4.73s.91-7.32,3.84-12A32.39,32.39,0,0,1,1407.72,177a23.22,23.22,0,0,1,15.29-3.1c5,.79,8.63,3.12,10.13,6.61s.37,7.12-3.54,11-9.42,6.95-15.71,9.61S1402.38,205.19,1398.31,205.2Z"/></g></svg>
