<svg xmlns="http://www.w3.org/2000/svg" viewBox="0 0 390 380"><defs><style>.cls-1{fill:#007199;}.cls-2,.cls-4{fill:#fff;}.cls-3{fill:#fc697a;opacity:0.4;}.cls-4{opacity:0.62;}.cls-5{fill:#005185;opacity:0.82;}.cls-6{fill:#fadae5;}</style></defs><g id="hvalborg"><path class="cls-1" d="M274.17,264.43C269.79,366.38,259.06,375.78,151.09,373s-128.63.64-140.75-117.74S41.16,82.42,162.05,90.41,278.55,162.49,274.17,264.43Z"/><path class="cls-1" d="M334.32,271.73c-6,55.88-15.35,71.77-75.48,90.71s-89.26,18.19-54.59-51.9,32-37.57,68.38-23.65S340.33,215.85,334.32,271.73Z"/><path class="cls-1" d="M343.39,229.06c2.82,9.95,11,33.5-3.67,35s-29.66-11.2-33.7-25.81,3.77-30.28,18.59-30.13S340.57,219.11,343.39,229.06Z"/><path class="cls-1" d="M345.75,234c-7.66,6.95-27.1,22.59-15.38,31.62s31.09,6.17,42.24-4.09,12.82-27.69.16-35.4S353.4,227,345.75,234Z"/><circle cx="51.93" cy="228.07" r="27.04"/><ellipse class="cls-2" cx="66.81" cy="220.28" rx="7.65" ry="7.89" transform="translate(-156.07 277.82) rotate(-87.6)"/><circle class="cls-2" cx="35.64" cy="243.65" r="2.26"/><circle cx="234.7" cy="228.07" r="27.04"/><ellipse class="cls-2" cx="219.82" cy="220.28" rx="7.89" ry="7.65" transform="translate(-9.01 9.38) rotate(-2.4)"/><circle class="cls-2" cx="250.99" cy="243.65" r="2.26"/><ellipse class="cls-3" cx="25.02" cy="274.82" rx="9.04" ry="9.6" transform="translate(-250.61 288.33) rotate(-87.6)"/><ellipse class="cls-3" cx="255.95" cy="269.16" rx="9.04" ry="9.6" transform="translate(-23.67 513.63) rotate(-87.6)"/><path class="cls-4" d="M56.41,360.47c.07,1,1.81,1.88,5.27,3.62,10,5,18.6,4.82,37.71,6.42,11.48,1,8.82,1.06,17.42,1.69,12.33.92,18.69.79,35.52,1,7.38.09,20.38.22,46.4.48,17,.17,22.62.25,23.59-1.92,2.12-4.71-19.89-15.35-21-15.89C145.72,329.31,55.72,351.3,56.41,360.47Z"/><path class="cls-5" d="M272.09,300c6.1,4.6,3.45,23-4.66,26.75-2.2,1-8.8-1.06-21.92-5.21-5.72-1.82-6.64-2.22-6.93-3.18C236.74,312.23,263.68,293.68,272.09,300Z"/><ellipse class="cls-5" cx="150" cy="98.4" rx="3.06" ry="10.41" transform="translate(45.41 244.16) rotate(-87.6)"/><ellipse class="cls-6" cx="167.41" cy="63.03" rx="8.75" ry="12.93" transform="translate(-10.39 82.69) rotate(-26.94)"/><ellipse class="cls-6" cx="174.49" cy="63.74" rx="12.94" ry="8.75" transform="translate(25.97 175.32) rotate(-56.99)"/><ellipse class="cls-6" cx="147.01" cy="34.19" rx="6.24" ry="9.22" transform="translate(0.46 70.32) rotate(-26.94)"/><ellipse class="cls-6" cx="152.06" cy="34.69" rx="9.23" ry="6.24" transform="translate(40.12 143.3) rotate(-56.99)"/><ellipse class="cls-6" cx="176.25" cy="15.32" rx="6.24" ry="9.22" transform="translate(1.17 40.7) rotate(-13.22)"/><ellipse class="cls-6" cx="181.04" cy="17.01" rx="9.23" ry="6.24" transform="translate(37.54 128.69) rotate(-43.26)"/><path d="M152.78,268.73c-7.65,16.29-15.24,13.45-21.7-1.11-.87-2-1.9-.59-2.45.09h0c-.56.68-1.24.91-.11,3,8.42,15.52,19.36,16.81,27.29-.26,1.07-2.3.26-2-.56-2.49h0C154.43,267.46,153.81,266.54,152.78,268.73Z"/></g></svg>
