<svg xmlns="http://www.w3.org/2000/svg" viewBox="0 0 160 165"><defs><style>.cls-1{fill:#e88064;}.cls-2{fill:#fc697a;}.cls-3{fill:#fff;}</style></defs><g id="hvalborg"><path class="cls-1" d="M129.31,87.66c-2.23,15.2-37.45,21.65-50.08,20.15s-46.9-7.62-48.4-24.08S75.16,47.12,88.49,52.34,131.54,72.46,129.31,87.66Z"/><path class="cls-1" d="M123.4,77c1.22-6.79,4.77-11.44,12.68-15a13.05,13.05,0,0,1,9.25-.62c.64.22-7.13,10.42-5.55,11.72,1.42,1.16,11.55-7.53,11.9-7.11,2,2.34,1.65,7.3-.19,11.42C146.76,88.09,138,88.5,133.72,88.05S122.19,83.71,123.4,77Z"/><path class="cls-1" d="M36.6,72.78c-1.22-6.79-4.77-11.44-12.68-15a13.11,13.11,0,0,0-9.25-.62c-.64.23,7.13,10.43,5.55,11.72C18.8,70,8.67,61.32,8.32,61.73c-2,2.34-1.65,7.3.19,11.43C13.24,83.84,22,84.25,26.28,83.79S37.81,79.45,36.6,72.78Z"/><path class="cls-1" d="M42.73,101.28c-.56,2,1.15,7-1.42,8s-6.59-7.81-5.56-10,2.93-5.31,5.3-4.52S43.29,99.24,42.73,101.28Z"/><path class="cls-1" d="M53.49,105.4c-.56,2,1.15,7-1.42,8s-6.59-7.82-5.56-10,2.93-5.3,5.3-4.52S54.05,103.37,53.49,105.4Z"/><path class="cls-1" d="M122,101.52c.55,2-1.15,7,1.41,8s6.6-7.82,5.56-10-2.93-5.3-5.3-4.52S121.4,99.49,122,101.52Z"/><path class="cls-1" d="M112.65,105.22c.55,2-1.15,7,1.41,8s6.6-7.82,5.56-10-2.93-5.3-5.3-4.52S112.09,103.19,112.65,105.22Z"/><ellipse class="cls-2" cx="116.11" cy="88.31" rx="5.69" ry="6.05" transform="translate(23.02 200.63) rotate(-87.6)"/><ellipse class="cls-2" cx="47.64" cy="91.02" rx="5.69" ry="6.05" transform="translate(-45.28 134.81) rotate(-87.6)"/><circle cx="54.03" cy="77.23" r="6.67"/><ellipse class="cls-3" cx="57.7" cy="75.31" rx="1.89" ry="1.95" transform="translate(-19.95 129.81) rotate(-87.6)"/><circle class="cls-3" cx="50.01" cy="81.08" r="0.56"/><circle cx="105.8" cy="77.17" r="6.67"/><ellipse class="cls-3" cx="102.13" cy="75.25" rx="1.95" ry="1.89" transform="translate(-3.06 4.33) rotate(-2.4)"/><circle class="cls-3" cx="109.82" cy="81.02" r="0.56"/><path d="M84.69,92.63c-2.26,4.33-4.29,3.48-5.87-.54-.22-.55-.51-.19-.67,0h0c-.16.18-.35.24-.06.81,2.11,4.31,5.06,4.78,7.4.24.32-.61.09-.53-.12-.68h0C85.15,92.31,85,92.05,84.69,92.63Z"/></g></svg>
