<svg xmlns="http://www.w3.org/2000/svg" viewBox="0 0 160 165"><defs><style>.cls-1{fill:#e0ccd4;}.cls-2{fill:#009e43;}.cls-3{fill:#bf0050;}.cls-4{fill:#006a3e;}</style></defs><g id="hvalborg"><path class="cls-1" d="M125.14,146.27c-7.75,3.77-15.8,6.67-23.69,10.12a9.78,9.78,0,0,1-12-3.37C72.91,129,56.88,111.48,44.84,84.37a9.74,9.74,0,0,1,6.84-13.54c16.53-3.41,33.27-3.89,50.17-4.67a9.74,9.74,0,0,1,10,7.84c6.54,33.08,4.19,30.26,17.77,59.42A9.71,9.71,0,0,1,125.14,146.27Z"/><path class="cls-2" d="M116.21,69.29C79,78.8,69.3,78,32.36,79.59a1.72,1.72,0,0,1-1.79-1.88c.49-5,.78-3.79-1-8.3A1.72,1.72,0,0,1,31,67.07c27.68-3,51.61-9.54,82.46-11.61a1.73,1.73,0,0,1,1.84,1.79c-.22,5.84,0,4.51,2.1,9.73A1.72,1.72,0,0,1,116.21,69.29Z"/><path class="cls-3" d="M88.18,12.18c-4.16,1.19-12.73,7-17.79,10a1.71,1.71,0,0,1-2.51-.94c-.09-.28-.18-.56-.28-.83a1.71,1.71,0,0,1,1-2.14c7.14-3,10.84-6.81,18.58-9.41A1.72,1.72,0,0,1,89.4,10.8v0A1.75,1.75,0,0,1,88.18,12.18Z"/><ellipse class="cls-4" cx="76.43" cy="62.52" rx="6.43" ry="2.41" transform="translate(-5.9 8.01) rotate(-5.77)"/><path class="cls-3" d="M70.8,18.43l-2.14.85a1.73,1.73,0,0,0-1,2.09c4.44,14.87,8.82,22.54,7.38,39a1.74,1.74,0,0,0,1.22,1.81l1,.35a1.72,1.72,0,0,0,2.33-1.63C79.32,43,78.87,37.12,73.05,19.5A1.71,1.71,0,0,0,70.8,18.43Z"/><path d="M103.77,122.22c-4-3.87-5.84-2.23-6.13,2.66,0,.65-.49.37-.72.23h0c-.23-.13-.45-.13-.35-.85.76-5.37,3.77-6.92,7.89-2.86.55.55.29.55.1.78h0C104.38,122.41,104.3,122.74,103.77,122.22Z"/><path d="M74,109.34c6.9,1.69,7.91-1.35,5-7-.39-.75.29-.73.64-.73h0c.34,0,.58-.15.94.72,2.68,6.43.37,10.11-6.84,8.32-1-.25-.68-.42-.63-.79h0C73.17,109.53,73,109.11,74,109.34Z"/><path d="M106.19,97.84c-5.71,4.84-8.1,2.46-8-4.17,0-.9-.61-.56-.94-.39h0c-.33.16-.63.13-.56,1.12.51,7.33,4.43,9.71,10.38,4.61.8-.69.44-.71.22-1h0C107,97.64,107,97.19,106.19,97.84Z"/></g></svg>
