<svg id="Layer_1" data-name="Layer 1" xmlns="http://www.w3.org/2000/svg" viewBox="0 0 750 1334"><defs><style>.cls-1{fill:#efd4ca;}.cls-2{fill:#e0ac89;}.cls-3{fill:#476861;}.cls-4{fill:#a36d48;}.cls-5{fill:#7a311e;}.cls-6{fill:#7a3f34;}.cls-7{fill:#4c1b0a;}</style></defs><rect class="cls-1" x="-601.75" width="1920" height="1260.47"/><path class="cls-2" d="M488.25,976.87h-1163V9.69c72.2-21.7,123.18-3.21,157,18.76,44.66,29,91.66,35.66,139,92.11,35.2,42,40.68,68.52,74,88.7,39.23,23.76,48.56-2.78,100,13.65,56.42,18,57.58,53.91,109,63.11,38.8,7,42.17-12.76,86-5.11,42.24,7.37,73.24,31.63,87,42.64,53.18,42.55,59.53,82.11,104,129.64,40.94,43.76,68.54,45.48,125,69.94,50.09,21.7,120.06,60.07,203,133Z"/><path class="cls-3" d="M155.25,951.19h1163V289.44c-72.2-14.84-123.18-2.19-157,12.84-44.66,19.85-91.66,24.4-139,63-35.2,28.72-40.68,46.89-74,60.69-39.23,16.26-48.56-1.9-100,9.34-56.42,12.33-57.58,36.89-109,43.18-38.8,4.75-42.17-8.73-86-3.5-42.24,5.05-73.24,21.65-87,29.18-53.18,29.11-59.53,56.18-104,88.7-40.94,29.94-68.54,31.11-125,47.85-50.09,14.85-120.06,41.1-203,91Z"/><path class="cls-4" d="M1081,1250H-365V707.28c79.72,41.77,141.16,46.18,182.53,42.5C-118.86,744.11-73,716.64-7.6,738.88c19.76,6.72,32.39,15,55.74,14.17,42-1.4,54.52-29.77,92.91-40.32a69.42,69.42,0,0,1,24.19-2.7c43.08,3.34,63,17.48,94.94,26.67,52,15,104.35-4.54,124.79-12.16,28.49-10.63,51.73-25.9,84.7-22,7.15.85,20.2,2.4,34.79,10.28,19.78,10.69,21.58,21.78,34.16,26.56,21,8,34.74-15.87,62.93-23.69C653,701.45,670,763.43,734,757.45c27.48-2.57,44.49-15.9,94.36-16.2,8.72,0,12.1.34,24.21.9,33.8,1.57,86.22,4,130.74-2.75,24-3.63,57.92-11.8,97.69-32.12Z"/><path class="cls-5" d="M561.25,1260.47h-1163V598.72c72.2-14.84,123.18-2.19,157,12.84,44.66,19.85,91.66,24.4,139,63,35.2,28.71,40.68,46.88,74,60.69,39.23,16.25,48.56-1.91,100,9.33,56.42,12.33,57.58,36.89,109,43.19,38.8,4.75,42.17-8.74,86-3.51,42.24,5.05,73.24,21.65,87,29.18,53.18,29.11,59.53,56.18,104,88.7,40.94,29.94,68.54,31.12,125,47.85,50.09,14.85,120.06,41.1,203,91Z"/><path class="cls-6" d="M220.81,1333H1318V647c-68.12-15.39-116.21-2.28-148.12,13.31-42.13,20.58-86.47,25.29-131.13,65.33-33.21,29.77-38.38,48.61-69.81,62.92-37,16.85-45.81-2-94.34,9.68C821.36,811,820.28,836.45,771.76,843c-36.6,4.92-39.78-9.06-81.13-3.63-39.85,5.23-69.09,22.44-82.08,30.25-50.16,30.18-56.16,58.24-98.11,91.95-42.12,33.85-48,11.91-117.93,49.61-48.34,26.05-56.53,40.72-103.78,63.49A416.83,416.83,0,0,1,201,1105.53Z"/><path class="cls-7" d="M1318,1334H-602V1030.55l78,17.51a143.8,143.8,0,0,0,28,5.84c42.31,4.44,62.69-13,101.5-13.43,22.17-.22,29.1,6.28,54,10.51,61,10.34,96.66-4,147-10.51,73.35-9.43,65,12.43,174,12.84,116.64.44,113.41-24.63,182-10.5,56.15,11.57,83.46,33.55,136,22.17,36.89-8,43.42-23.16,74.87-34,66.32-22.88,93.5,25.2,186.13,43.35,129.48,25.37,188.19-46.67,278,0,11.8,6.13,34.48,19.68,68,24.51,32.61,4.69,41.93-3.71,93-7,59.73-3.86,57.12,7,95,0,47.74-8.81,50.31-25.73,91-26.85,33-.9,41.84,10,69,4.67,28.86-5.61,50.5-24,64.5-39.1Z"/></svg>
