<svg xmlns="http://www.w3.org/2000/svg" viewBox="0 0 160 165"><defs><style>.cls-1{fill:#f8e200;}</style></defs><g id="hvalborg"><path class="cls-1" d="M97.28,138c-28.4,2.66-23.58,7.15-44.8,16.47a12.55,12.55,0,0,1-17.27-8.76C27.88,113.5,36.57,98.47,50,68.29A12.62,12.62,0,0,1,63.54,60.9c17.3,2.91,33.5,1.4,50.84,5.6a12.53,12.53,0,0,1,8.47,17.3c-12.33,27.59-10.64,5.36-14.28,42.9A12.54,12.54,0,0,1,97.28,138Z"/><path class="cls-1" d="M127,26.21c.07-.16.14-.31.22-.47a2,2,0,0,0-2.7-2.69c-24.09,10.86-9.46,25.15-9.65,46A2,2,0,0,0,116.48,71l.69.19a2,2,0,0,0,2.59-2c-.33-16.4-14-36.14,5.88-41.76A2.12,2.12,0,0,0,127,26.21Z"/><path d="M80.07,114.12c-2.06-6.5-5-5.81-8.21-.67-.42.7-.74.13-.91-.15h0c-.18-.28-.42-.41.11-1.13,3.93-5.41,8.11-5.35,10.23,1.46.29.91,0,.75-.33.9h0C80.62,114.68,80.34,115,80.07,114.12Z"/><path d="M59.42,89.64c3.69,6.58,7.34,5.43,10.44-.48.42-.79.91-.24,1.18,0h0c.27.27.6.37,0,1.21-4,6.3-9.3,6.83-13.13-.07-.52-.93-.13-.81.27-1h0C58.62,89.12,58.92,88.75,59.42,89.64Z"/><path d="M94.42,86.64c3.69,6.58,7.34,5.43,10.44-.48.42-.79.91-.24,1.18,0h0c.27.27.6.37,0,1.21-4,6.3-9.3,6.83-13.13-.07-.52-.93-.13-.81.27-1h0C93.62,86.12,93.92,85.75,94.42,86.64Z"/><path class="cls-1" d="M48.22,17.78c.08-2.58,1.06-4.47,2.12-6.78C16,27.76,43.93,45.24,57.22,64.74c2.71-1.1,5.43-.9,8.29-1C43.32,37.39,29.06,43.38,48.22,17.78Z"/><path class="cls-1" d="M48.36,17.39a21.87,21.87,0,0,1-6-1.07c29.48-22.83,22.39,16,22.42,49.73-2.95.89-5.1,2.85-7.67,4.47C57.33,65.33,61.14-10.72,48.36,17.39Z"/></g></svg>
