<svg xmlns="http://www.w3.org/2000/svg" xmlns:xlink="http://www.w3.org/1999/xlink" viewBox="0 0 1920 1080"><defs><style>.cls-1{fill:none;}.cls-2{fill:#8fedf7;opacity:0.26;}.cls-3{fill:#3f90ff;stroke:#fff;stroke-miterlimit:10;opacity:0.09;}.cls-4{opacity:0.66;}.cls-5{fill:#ffe37c;opacity:0.79;}.cls-6{fill:url(#linear-gradient);}.cls-7{fill:url(#linear-gradient-2);}.cls-8{fill:url(#linear-gradient-3);}.cls-9{fill:url(#linear-gradient-4);}.cls-10{fill:url(#linear-gradient-5);}.cls-11{fill:url(#linear-gradient-6);}.cls-12{fill:url(#linear-gradient-7);}.cls-13{fill:url(#linear-gradient-8);}.cls-14{fill:url(#linear-gradient-9);}.cls-15{fill:url(#linear-gradient-10);}.cls-16{fill:url(#linear-gradient-11);}.cls-17{fill:url(#linear-gradient-12);}.cls-18{fill:url(#linear-gradient-13);}.cls-19{fill:url(#linear-gradient-14);}.cls-20{fill:#7fc0ff;opacity:0.54;}.cls-21{fill:#fff;}</style><linearGradient id="linear-gradient" x1="-85.94" y1="836.86" x2="250.5" y2="836.86" gradientUnits="userSpaceOnUse"><stop offset="0" stop-color="#fff"/><stop offset="0" stop-color="#003f19"/><stop offset="0.13" stop-color="#003f19"/><stop offset="0.53" stop-color="#013e19"/><stop offset="1"/></linearGradient><linearGradient id="linear-gradient-2" x1="248.37" y1="947.79" x2="428.99" y2="947.79" gradientTransform="translate(-10.09 -1.1) rotate(-0.21)" xlink:href="#linear-gradient"/><linearGradient id="linear-gradient-3" x1="-29.66" y1="812.15" x2="354.42" y2="812.15" gradientTransform="matrix(-1.06, 0, 0, 1, 2037.87, -0.27)" xlink:href="#linear-gradient"/><linearGradient id="linear-gradient-4" x1="351.89" y1="936.24" x2="532.51" y2="936.24" gradientTransform="matrix(-1, -0.05, -0.05, 1, 2082.45, 40.73)" gradientUnits="userSpaceOnUse"><stop offset="0" stop-color="#fff"/><stop offset="0" stop-color="#003f19"/><stop offset="0.17" stop-color="#003f19"/><stop offset="0.59" stop-color="#013e19"/><stop offset="1"/></linearGradient><linearGradient id="linear-gradient-5" x1="496" y1="1027" x2="558" y2="1027" gradientTransform="translate(1554 500) rotate(90)" gradientUnits="userSpaceOnUse"><stop offset="0" stop-color="#754c24"/><stop offset="0.38" stop-color="#724a24"/><stop offset="1"/></linearGradient><linearGradient id="linear-gradient-6" x1="569.14" y1="1050.09" x2="614.51" y2="1050.09" gradientTransform="translate(1600.63 390.34) rotate(86.22)" gradientUnits="userSpaceOnUse"><stop offset="0" stop-color="#c69c6d"/><stop offset="0.71" stop-color="#724a24"/><stop offset="1"/></linearGradient><linearGradient id="linear-gradient-7" x1="1346.52" y1="872.52" x2="1408.52" y2="872.52" gradientTransform="translate(2258.37 -448.61) rotate(90)" xlink:href="#linear-gradient-5"/><linearGradient id="linear-gradient-8" x1="1233.16" y1="944.91" x2="1278.53" y2="944.91" gradientTransform="translate(2115.94 -370.48) rotate(86.22)" xlink:href="#linear-gradient-6"/><linearGradient id="linear-gradient-9" x1="591.01" y1="958.59" x2="676.71" y2="958.59" gradientTransform="translate(-10.09 -1.1) rotate(-0.21)" xlink:href="#linear-gradient"/><linearGradient id="linear-gradient-10" x1="1297.95" y1="911.54" x2="1361.76" y2="911.54" gradientTransform="translate(-10.09 -1.1) rotate(-0.21)" xlink:href="#linear-gradient"/><linearGradient id="linear-gradient-11" x1="1386.59" y1="876.48" x2="1429.67" y2="876.48" gradientTransform="translate(-10.09 -1.1) rotate(-0.21)" xlink:href="#linear-gradient"/><linearGradient id="linear-gradient-12" x1="840.53" y1="905.07" x2="902.53" y2="905.07" gradientTransform="translate(1783.88 56.51) rotate(90)" xlink:href="#linear-gradient-5"/><linearGradient id="linear-gradient-13" x1="907.13" y1="965.04" x2="952.5" y2="965.04" gradientTransform="translate(1831.48 -26.35) rotate(86.22)" xlink:href="#linear-gradient-6"/><linearGradient id="linear-gradient-14" x1="463.67" y1="839.64" x2="506.76" y2="839.64" gradientTransform="translate(-10.09 -1.1) rotate(-0.21)" xlink:href="#linear-gradient"/></defs><g id="Layer_1" data-name="Layer 1"><rect class="cls-1" x="-9" y="8" width="1920" height="1080"/><rect class="cls-2" x="1" width="1920" height="1080" transform="translate(1922 1080) rotate(180)"/></g><g id="havbund_dybde" data-name="havbund &amp; dybde"><path class="cls-3" d="M1909.5,1091.5H-4.5V624l189,31.75c4.82,1,13.36,2.65,24,4.38,131.05,21.34,234.78-4.28,260-9.85,191.92-42.44,389.21,69.09,811,28.46,109.85-10.58,173.43-25.56,366-40.51,111-8.61,202.61-12.39,264-14.23Z"/><g class="cls-4"><path class="cls-5" d="M1915,1088H-5V848a868.1,868.1,0,0,1,168-27c125.06-7.62,199.32,15.46,301.11,27C595,862.85,601.77,839.38,799,836c312.27-5.34,305.26,53.32,520,30,150.44-16.34,201.28-50.28,363-47a1142.39,1142.39,0,0,1,233,29Z"/></g></g><g id="planter_sten" data-name="planter &amp; sten"><path class="cls-6" d="M-18.72,1090.61c23.94-38.27,45.74-94,11.15-123-19.77-16.57-50.83-15.46-68.77-34-23.25-24-1-72.79,32.33-71,39,2,70.92,56,105.66,38.17,30-15.42,15-62.39-9.57-85.48S-6,768.72-2.87,735.14c2.94-31.89,48.33-49.88,72.32-28.67,5.8,5.13,10.38,11.91,17.37,15.24,18.56,8.88,38.85-13.45,39-34s-11.07-39.36-15.8-59.39.87-46.27,20.7-51.79c10.37-2.89,21.6,1.09,30.34,7.37,36,25.87,33.84,80.77,17.74,122.09s-42.51,80.5-43.11,124.85c-.14,10.49,2.78,23.09,12.71,26.47,18.88,6.43,25.79-23.88,38.93-38.88,14.35-16.38,44.12-12.29,56.31,5.76s7.3,44.34-8.15,59.7C218.23,901,192.39,905.1,168.75,911S119.41,927.74,111,950.57s17.14,53.71,37.75,40.75c7.67-4.82,11.75-13.75,18.64-19.63,18.69-16,51.71.73,54.83,25.1s-17.69,47.3-41.66,52.71c-18.78,4.24-38.85,0-57.35,5.35s-34.45,28.29-22.45,43.34"/><path class="cls-7" d="M278.34,1081.86c12.78-20.59,24.38-50.54,5.75-66-10.65-8.86-27.32-8.2-37-18.12-12.53-12.85-.71-39.07,17.22-38.19,20.95,1,38.18,29.94,56.8,20.29,16.07-8.34,7.94-33.53-5.31-45.88S284.55,909,286.15,891c1.52-17.13,25.85-26.87,38.77-15.53,3.12,2.74,5.6,6.37,9.35,8.15,10,4.72,20.84-7.3,20.88-18.35s-6-21.11-8.6-31.86.38-24.84,11-27.84c5.56-1.57,11.6.54,16.31,3.9,19.38,13.82,18.32,43.29,9.76,65.51s-22.67,43.3-22.9,67.1c-.06,5.63,1.54,12.39,6.88,14.19,10.14,3.41,13.79-12.87,20.82-20.95,7.67-8.82,23.66-6.68,30.24,3s4,23.79-4.26,32.07c-9.23,9.24-23.1,11.49-35.78,14.67s-26.45,9.11-30.95,21.39,9.31,28.79,20.35,21.8c4.11-2.61,6.28-7.41,10-10.58,10-8.6,27.76.29,29.48,13.37s-9.4,25.43-22.26,28.38c-10.07,2.31-20.86.08-30.77,3s-18.45,15.26-12,23.31"/><path class="cls-8" d="M1993,1101.72c-29.07-43.82-55.63-107.54-14.07-140.49,23.76-18.82,61.21-17.4,82.75-38.48,27.91-27.33.9-83.11-39.34-81.28-47,2.15-85.23,63.64-127.21,43.07-36.23-17.76-18.41-71.33,11.11-97.57s69.77-52.91,65.86-91.27c-3.71-36.43-58.52-57.21-87.34-33.1-7,5.83-12.46,13.54-20.86,17.32-22.35,10-46.92-15.56-47.21-39.06s13.15-44.9,18.75-67.75-1.28-52.84-25.22-59.24c-12.52-3.35-26,1.13-36.55,8.26-43.3,29.36-40.39,92.06-20.78,139.34s51.67,92.14,52.62,142.78c.22,12-3.25,26.36-15.2,30.17-22.73,7.25-31.21-27.4-47.13-44.59-17.38-18.79-53.25-14.26-67.86,6.29s-8.58,50.6,10.12,68.21c20.91,19.69,52.09,24.48,80.62,31.28s59.57,19.42,69.88,45.54-20.4,61.24-45.31,46.34c-9.27-5.55-14.24-15.76-22.58-22.51-22.62-18.31-62.34.58-66,28.39s21.57,54.1,50.5,60.4c22.66,4.94,46.85.2,69.18,6.4s41.68,32.48,27.28,49.6"/><path class="cls-9" d="M1646.24,1094.49c-11.91-21.11-22.25-51.51-3-66.22,11-8.41,27.64-7.06,37.71-16.57,13-12.32,2.34-39-15.61-38.87-21,.15-39.4,28.32-57.6,17.9-15.7-9-6.53-33.83,7.22-45.61s32.27-23.57,31.42-41.66c-.8-17.17-24.7-27.92-38.08-17.13-3.24,2.61-5.86,6.13-9.69,7.75-10.17,4.31-20.51-8.16-20.09-19.2s6.89-20.84,9.92-31.47.66-24.83-9.84-28.27c-5.5-1.8-11.61.05-16.46,3.21-19.94,13-20.11,42.49-12.48,65s20.84,44.21,20.08,68c-.18,5.62-2.06,12.31-7.47,13.88-10.27,3-13.24-13.43-19.92-21.79-7.3-9.14-23.36-7.67-30.34,1.71s-5,23.61,2.91,32.22c8.85,9.62,22.61,12.44,35.14,16.15s26,10.21,30,22.66-10.5,28.38-21.24,20.93c-4-2.77-6-7.66-9.52-11-9.63-9-27.74-.87-30,12.13s8.33,25.79,21.06,29.28c10,2.73,20.83,1,30.62,4.26s17.79,16,11,23.79"/><ellipse class="cls-10" cx="527" cy="1027" rx="11" ry="31" transform="translate(-532.5 1485.17) rotate(-86.22)"/><ellipse class="cls-11" cx="591.83" cy="1050.09" rx="8.06" ry="22.73" transform="translate(-494.98 1571.43) rotate(-86.22)"/><ellipse class="cls-12" cx="1385.85" cy="928.91" rx="11" ry="31" transform="translate(367.63 2250.52) rotate(-86.22)"/><ellipse class="cls-13" cx="1255.85" cy="944.91" rx="8.06" ry="22.73" transform="translate(230.23 2135.75) rotate(-86.22)"/><path class="cls-14" d="M601.79,1019.89c6.07-9.77,11.57-24,2.73-31.34-5.06-4.2-13-3.89-17.55-8.6-6-6.1-.34-18.54,8.17-18.12,9.94.49,18.12,14.21,27,9.63,7.62-4,3.76-15.91-2.52-21.77s-14.83-11.81-14.07-20.37c.72-8.13,12.26-12.75,18.39-7.37,1.48,1.3,2.66,3,4.44,3.87,4.74,2.24,9.89-3.47,9.91-8.71s-2.86-10-4.08-15.11.17-11.79,5.22-13.22c2.64-.74,5.5.26,7.74,1.85,9.2,6.56,8.69,20.55,4.63,31.09S641,942.26,640.88,953.56c0,2.67.74,5.88,3.27,6.73,4.81,1.62,6.54-6.1,9.88-9.94,3.64-4.18,11.22-3.17,14.35,1.42s1.9,11.29-2,15.21c-4.39,4.39-11,5.45-17,7s-12.55,4.33-14.69,10.15,4.42,13.67,9.66,10.35c1.95-1.24,3-3.52,4.73-5,4.75-4.08,13.17.14,14,6.34s-4.46,12.07-10.56,13.47c-4.78,1.1-9.9,0-14.61,1.41s-8.75,7.24-5.67,11.06"/><path class="cls-15" d="M1304.12,953.75c4.51-7.28,8.61-17.86,2-23.33-3.76-3.13-9.65-2.9-13.07-6.41-4.43-4.54-.25-13.8,6.08-13.49,7.4.36,13.49,10.58,20.07,7.17,5.68-3,2.8-11.85-1.87-16.21s-11-8.79-10.48-15.17c.53-6,9.13-9.49,13.69-5.48,1.11,1,2,2.25,3.31,2.88,3.53,1.67,7.36-2.58,7.37-6.48s-2.12-7.46-3-11.26.13-8.78,3.89-9.84a7,7,0,0,1,5.76,1.38c6.85,4.88,6.47,15.3,3.45,23.15s-8,15.29-8.09,23.7c0,2,.54,4.38,2.43,5,3.58,1.2,4.87-4.55,7.35-7.41,2.71-3.11,8.36-2.36,10.68,1.06s1.42,8.4-1.5,11.33c-3.26,3.26-8.16,4.06-12.64,5.18s-9.35,3.22-10.93,7.56,3.28,10.17,7.18,7.7c1.46-.92,2.22-2.62,3.53-3.74,3.53-3,9.8.1,10.41,4.73s-3.32,9-7.86,10c-3.56.82-7.37,0-10.87,1.05s-6.52,5.39-4.23,8.24"/><path class="cls-16" d="M1388.43,902.75c3-4.91,5.82-12.06,1.37-15.75-2.54-2.12-6.52-2-8.82-4.33-3-3.06-.17-9.32,4.11-9.11,5,.25,9.11,7.14,13.55,4.84,3.83-2,1.89-8-1.27-10.94s-7.46-5.94-7.08-10.24c.37-4.09,6.17-6.41,9.25-3.71a11.07,11.07,0,0,0,2.23,2c2.39,1.12,5-1.75,5-4.38s-1.43-5-2-7.6.09-5.93,2.63-6.64a4.68,4.68,0,0,1,3.89.93c4.63,3.29,4.37,10.32,2.33,15.63s-5.41,10.32-5.46,16c0,1.35.36,3,1.64,3.39,2.42.81,3.29-3.07,5-5,1.83-2.1,5.65-1.59,7.22.71a6.25,6.25,0,0,1-1,7.65c-2.2,2.21-5.51,2.74-8.53,3.5s-6.31,2.18-7.39,5.1,2.22,6.87,4.86,5.2c1-.62,1.5-1.76,2.38-2.52,2.38-2,6.62.07,7,3.19s-2.24,6.07-5.31,6.77c-2.4.55-5,0-7.34.71s-4.4,3.64-2.86,5.56"/><ellipse class="cls-17" cx="878.81" cy="928.04" rx="11" ry="31" transform="translate(-105.12 1743.78) rotate(-86.22)"/><ellipse class="cls-18" cx="929.81" cy="965.04" rx="8.06" ry="22.73" transform="translate(-94.41 1829.23) rotate(-86.22)"/><path class="cls-19" d="M465.39,869.3c3.05-4.92,5.81-12.06,1.37-15.76-2.54-2.11-6.52-1.95-8.82-4.32-3-3.07-.17-9.32,4.1-9.11,5,.24,9.11,7.14,13.55,4.84,3.84-2,1.9-8-1.26-11s-7.46-5.93-7.08-10.24c.36-4.08,6.17-6.41,9.25-3.7a11,11,0,0,0,2.23,1.94c2.39,1.13,5-1.74,5-4.37s-1.43-5-2-7.6.09-5.93,2.63-6.65a4.72,4.72,0,0,1,3.89.93c4.62,3.3,4.37,10.33,2.33,15.63s-5.41,10.33-5.47,16c0,1.34.37,3,1.65,3.39,2.42.81,3.29-3.08,5-5,1.83-2.11,5.65-1.6,7.22.71s.95,5.67-1,7.65c-2.2,2.2-5.51,2.74-8.53,3.5s-6.32,2.17-7.39,5.1,2.22,6.87,4.86,5.2c1-.62,1.49-1.76,2.37-2.52,2.39-2.05,6.63.07,7,3.19s-2.25,6.06-5.31,6.77c-2.41.55-5,0-7.34.71s-4.4,3.64-2.86,5.56"/></g><g id="bobler"><circle class="cls-20" cx="645.94" cy="259.02" r="19.25"/><path class="cls-21" d="M649.69,244.73c-.06.06.06,0,0,0-.62.6-.71.8-1.62.5a13,13,0,0,0-5.73-.3c-1,.1-.71-.91-.16-1.62.05-.07-.06.07,0,0a2.11,2.11,0,0,1,1.8-1,9.56,9.56,0,0,1,4.91.74C649.62,243.38,650.31,244.14,649.69,244.73Z"/><circle class="cls-20" cx="607.95" cy="297.25" r="10.58"/><path class="cls-21" d="M610,289.4s0,0,0,0c-.34.33-.39.44-.89.27a7.17,7.17,0,0,0-3.15-.16c-.57.05-.39-.5-.09-.89h0a1.19,1.19,0,0,1,1-.57,5.19,5.19,0,0,1,2.69.41C610,288.66,610.35,289.07,610,289.4Z"/><path class="cls-21" d="M609.61,305.91s0,0,0,0c.15-.28.16-.36.51-.36a4.89,4.89,0,0,0,2-.56c.36-.16.36.23.25.55h0a.79.79,0,0,1-.52.57,3.46,3.46,0,0,1-1.81.31C609.8,306.38,609.46,306.19,609.61,305.91Z"/><circle class="cls-20" cx="1526.82" cy="445.02" r="19.25"/><path class="cls-21" d="M1541.54,446.11c-.07-.05,0,.07,0,0-.7-.49-.91-.55-.78-1.5a13.1,13.1,0,0,0-.74-5.69c-.29-1,.76-.86,1.56-.45.08,0-.08-.05,0,0a2.1,2.1,0,0,1,1.34,1.59,9.63,9.63,0,0,1,.17,5C1542.86,445.8,1542.24,446.61,1541.54,446.11Z"/><circle class="cls-20" cx="1482.33" cy="414.58" r="10.58"/><path class="cls-21" d="M1490.43,415.18s0,0,0,0c-.39-.27-.5-.3-.43-.82a7.35,7.35,0,0,0-.41-3.13c-.16-.55.42-.47.86-.25,0,0,0,0,0,0a1.16,1.16,0,0,1,.73.88,5.14,5.14,0,0,1,.09,2.72C1491.15,415,1490.81,415.46,1490.43,415.18Z"/><path class="cls-21" d="M1474.11,417.78s0,0,0,0c.31.1.39.09.45.44a4.85,4.85,0,0,0,.93,1.91c.21.32-.17.4-.5.35h0a.8.8,0,0,1-.66-.41,3.57,3.57,0,0,1-.63-1.72C1473.69,418.05,1473.81,417.69,1474.11,417.78Z"/><circle class="cls-20" cx="675.63" cy="594.91" r="19.25"/><path class="cls-21" d="M679.38,580.62c-.06.06.06,0,0,0-.61.6-.71.8-1.61.5a13.06,13.06,0,0,0-5.74-.3c-1,.1-.71-.91-.16-1.62,0-.07-.06.07,0,0a2.12,2.12,0,0,1,1.81-1,9.59,9.59,0,0,1,4.91.74C679.31,579.27,680,580,679.38,580.62Z"/><circle class="cls-20" cx="637.64" cy="633.14" r="10.58"/><path class="cls-21" d="M639.7,625.29s0,0,0,0c-.33.33-.39.44-.88.27a7.18,7.18,0,0,0-3.15-.16c-.57.05-.4-.5-.09-.89,0,0,0,0,0,0a1.16,1.16,0,0,1,1-.57,5.24,5.24,0,0,1,2.7.41C639.66,624.55,640,625,639.7,625.29Z"/><path class="cls-21" d="M639.3,641.8s0,0,0,0c.15-.28.16-.36.51-.36a4.89,4.89,0,0,0,2.05-.56c.36-.16.36.23.25.55h0a.8.8,0,0,1-.51.57,3.52,3.52,0,0,1-1.82.31C639.49,642.27,639.16,642.08,639.3,641.8Z"/><circle class="cls-20" cx="1270.63" cy="709.91" r="19.25"/><path class="cls-21" d="M1274.38,695.62c-.06.06.06,0,0,0-.61.6-.71.8-1.61.5a13.06,13.06,0,0,0-5.74-.3c-1,.1-.71-.91-.16-1.62.05-.07-.06.07,0,0a2.12,2.12,0,0,1,1.81-1,9.59,9.59,0,0,1,4.91.74C1274.31,694.27,1275,695,1274.38,695.62Z"/><circle class="cls-20" cx="1232.64" cy="748.14" r="10.58"/><path class="cls-21" d="M1234.7,740.29s0,0,0,0c-.33.33-.39.44-.88.27a7.18,7.18,0,0,0-3.15-.16c-.57.05-.4-.5-.09-.89h0a1.16,1.16,0,0,1,1-.57,5.24,5.24,0,0,1,2.7.41C1234.66,739.55,1235,740,1234.7,740.29Z"/><path class="cls-21" d="M1234.3,756.8s0,0,0,0c.15-.28.16-.36.51-.36a4.89,4.89,0,0,0,2-.56c.36-.16.36.23.25.55h0a.8.8,0,0,1-.51.57,3.52,3.52,0,0,1-1.82.31C1234.49,757.27,1234.16,757.08,1234.3,756.8Z"/><circle class="cls-20" cx="337.63" cy="497.91" r="19.25"/><path class="cls-21" d="M341.38,483.62c-.06.06.06,0,0,0-.61.6-.71.8-1.61.5a13.06,13.06,0,0,0-5.74-.3c-1,.1-.71-.91-.16-1.62.05-.07-.06.07,0,0a2.12,2.12,0,0,1,1.81-1,9.59,9.59,0,0,1,4.91.74C341.31,482.27,342,483,341.38,483.62Z"/><circle class="cls-20" cx="299.64" cy="536.14" r="10.58"/><path class="cls-21" d="M301.7,528.29s0,0,0,0c-.33.33-.39.44-.88.27a7.18,7.18,0,0,0-3.15-.16c-.57.05-.4-.5-.09-.89h0a1.16,1.16,0,0,1,1-.57,5.24,5.24,0,0,1,2.7.41C301.66,527.55,302,528,301.7,528.29Z"/><path class="cls-21" d="M301.3,544.8s0,0,0,0c.15-.28.16-.36.51-.36a4.89,4.89,0,0,0,2.05-.56c.36-.16.36.23.25.55h0a.8.8,0,0,1-.51.57,3.52,3.52,0,0,1-1.82.31C301.49,545.27,301.16,545.08,301.3,544.8Z"/><ellipse class="cls-20" cx="274.12" cy="721.66" rx="61.89" ry="57.66"/><path class="cls-21" d="M286.17,678.88c-.2.17.2.1,0,0-2,1.78-2.29,2.37-5.2,1.49-6.14-1.86-11.39-1.56-18.43-.92-3.33.31-2.29-2.71-.53-4.84.19-.21-.18.22,0,0,1.77-2.12,3.15-3,5.81-3.08,5.63-.22,10.89-.11,15.79,2.21C285.93,674.83,288.15,677.09,286.17,678.88Z"/><ellipse class="cls-20" cx="401.25" cy="779.28" rx="27.75" ry="25.85"/><path class="cls-21" d="M406.66,760.1c-.09.08.08,0,0,0-.89.8-1,1.06-2.33.67-2.76-.84-5.11-.7-8.27-.42-1.49.14-1-1.21-.23-2.16h0a3.11,3.11,0,0,1,2.6-1.39,14.86,14.86,0,0,1,7.08,1C406.55,758.28,407.54,759.3,406.66,760.1Z"/><path class="cls-21" d="M405.6,800.45c0-.07-.06,0,0,0,.39-.69.42-.88,1.34-.89a13.39,13.39,0,0,0,5.38-1.37c.93-.38.94.58.65,1.34h0a2,2,0,0,1-1.35,1.4,10,10,0,0,1-4.76.77C406.09,801.59,405.22,801.14,405.6,800.45Z"/><ellipse class="cls-20" cx="1435.11" cy="1001.5" rx="69.1" ry="62.56"/><path class="cls-21" d="M1469.42,972.27c-.3,0,.11.2,0,0-3,.39-3.74.72-5.75-1.77-4.25-5.28-9.21-8.13-16-11.74-3.22-1.71-.16-3.75,2.93-4.57h0c3.09-.82,4.94-.75,7.42.73,5.24,3.15,9.92,6.37,12.72,11.31C1472.05,968.57,1472.47,971.87,1469.42,972.27Z"/><ellipse class="cls-20" cx="1490.85" cy="870.01" rx="33.15" ry="30.01"/><path class="cls-21" d="M1497.3,847.74c-.1.1.11.06,0,0-1.06.93-1.22,1.24-2.78.78-3.29-1-6.1-.81-9.87-.48-1.79.16-1.23-1.41-.28-2.52h0a3.74,3.74,0,0,1,3.11-1.6c3-.12,5.83-.06,8.45,1.15C1497.18,845.64,1498.37,846.82,1497.3,847.74Z"/><path class="cls-21" d="M1496.05,894.59c0-.07-.08,0,0,0,.46-.79.49-1,1.6-1a16.4,16.4,0,0,0,6.43-1.59c1.1-.44,1.11.67.77,1.56,0,.09,0-.09,0,0a2.32,2.32,0,0,1-1.62,1.62,12,12,0,0,1-5.68.89C1496.62,895.92,1495.59,895.39,1496.05,894.59Z"/><circle class="cls-20" cx="1253.82" cy="55.72" r="16.18"/><path class="cls-21" d="M1257,43.71s0,0,0,0c-.52.51-.6.67-1.36.42a11,11,0,0,0-4.82-.25c-.87.08-.6-.77-.13-1.36,0-.06-.05.06,0,0a1.78,1.78,0,0,1,1.51-.87,8.1,8.1,0,0,1,4.13.62C1256.91,42.58,1257.49,43.21,1257,43.71Z"/><circle class="cls-20" cx="1221.89" cy="87.85" r="8.89"/><path class="cls-21" d="M1223.62,81.26s0,0,0,0c-.28.27-.33.36-.74.23a6.15,6.15,0,0,0-2.65-.15c-.48,0-.33-.41-.08-.74h0a1,1,0,0,1,.84-.48,4.57,4.57,0,0,1,2.27.34C1223.59,80.63,1223.91,81,1223.62,81.26Z"/><path class="cls-21" d="M1223.29,95.13s0,0,0,0c.12-.23.13-.3.42-.3a4.31,4.31,0,0,0,1.73-.47c.3-.13.3.19.21.46h0a.69.69,0,0,1-.44.48,3,3,0,0,1-1.52.26C1223.44,95.53,1223.16,95.37,1223.29,95.13Z"/></g></svg>
