<svg xmlns="http://www.w3.org/2000/svg" viewBox="0 0 1920 1080"><defs><style>.cls-1,.cls-2{fill:#8fedf7;}.cls-1{opacity:0.44;}.cls-3{fill:#ff7bac;}.cls-4{fill:#9e005d;opacity:0.8;}.cls-28,.cls-5{fill:#fff;}.cls-6{fill:#ff94d3;}.cls-7{fill:#ffff94;}.cls-8{fill:#fff6fd;}.cls-9{fill:#c92200;}.cls-10,.cls-13{fill:#8ad5ff;}.cls-10{opacity:0.24;}.cls-11{fill:#f0eaf0;}.cls-12{opacity:0.45;}.cls-13,.cls-23{opacity:0.54;}.cls-14{fill:#009485;}.cls-15{stroke:#000;}.cls-15,.cls-26{stroke-miterlimit:10;}.cls-16,.cls-21{fill:#fc697a;}.cls-16{opacity:0.4;}.cls-17{fill:#e0ccd4;}.cls-18{fill:#009e43;}.cls-19{fill:#bf0050;}.cls-20{fill:#e88064;}.cls-22{fill:#f8e200;}.cls-23{fill:#7fc0ff;}.cls-24{fill:#cd3a00;}.cls-25{fill:#b3b3b3;}.cls-26{fill:none;stroke:#333;}.cls-27{fill:#007199;}.cls-28{opacity:0.62;}.cls-29{fill:#005185;}.cls-29,.cls-31{opacity:0.82;}.cls-30{fill:#fadae5;}</style></defs><g id="Layer_1" data-name="Layer 1"><rect class="cls-1" y="-1" width="1920" height="1080" transform="translate(1920 1078) rotate(180)"/><ellipse class="cls-2" cx="978.5" cy="436.5" rx="396.5" ry="355.5"/><path class="cls-3" d="M197.94,205.34a55.93,55.93,0,0,1-15.58-17.75c-19.07,9.46-31.74,13.45-34.87,9.51-.64-.81-2.2-2.73,1.11-10q5.46-11.94,10.91-23.86a133.78,133.78,0,0,1-13.32-14.76c-7.44-9.61-7.35-12.28-6.57-13.6s2.89-1.89,4.64-2a89.56,89.56,0,0,1,33.23-1c5.33-6.22,9.6-11.4,12.58-15.08,5.25-6.46,8-10.21,10.72-9.6,2.14.49,3.3,3.54,3.93,6s1.21,4.84,1.78,7.33q2.4,10.45,3.94,20.24c1.71.65,4.15,1.59,7.08,2.74,12.82,5,15.15,6.24,16.51,7,6.11,3.41,11.7,6.53,11.54,10.3,0,.77-.32,3.83-12.43,9.16a130.36,130.36,0,0,1-20.86,7.09c.13,1.18.29,2.74.45,4.59,1.45,16.61,2.36,27.1-1.61,29.34C208,212.77,203,209,197.94,205.34Z"/><rect class="cls-3" x="194.08" y="164.09" height="2.22" transform="translate(47.34 -43.19) rotate(14.44)"/><circle class="cls-4" cx="164.74" cy="156.5" r="3.1"/><circle class="cls-4" cx="212.07" cy="168.23" r="3.1"/><circle cx="207.08" cy="154.48" r="6.67"/><ellipse class="cls-5" cx="204.01" cy="151.7" rx="1.89" ry="1.95" transform="translate(13.07 319.55) rotate(-77.95)"/><circle class="cls-5" cx="210.02" cy="159.2" r="0.56"/><circle cx="172.66" cy="145.98" r="6.67"/><ellipse class="cls-5" cx="176.69" cy="145.03" rx="1.89" ry="1.95" transform="matrix(0.29, -0.96, 0.96, 0.29, -13.31, 272.14)"/><circle class="cls-5" cx="167.8" cy="148.7" r="0.56"/><path d="M192.27,168c-5.05,6.1-8,4.05-9.13-2.86-.15-.93-.74-.46-1-.23h0c-.31.23-.63.25-.38,1.27,1.89,7.53,6.41,9.29,11.67,2.88.7-.86.32-.82,0-1.12h0C193.11,167.6,193,167.14,192.27,168Z"/><path class="cls-6" d="M1557.66,336.4c.49-1.89,1.72-3.49,1.34-5.9-.33-2.05-.09-2.51-2.24-5.36-.68-.89-6.68-6.16-9.94-4.89-2.4.93-7.82,2.06-8.24,5.71-.06.55,1.13,1,1.65,1.29s1.34.83,1.78,1.07c2.39,1.34,13.92,10.15,14.8,9.73a2.55,2.55,0,0,0,.47-1.33c0-.18-.68,1.5-.47,1.33A4.47,4.47,0,0,0,1557.66,336.4Z"/><path class="cls-6" d="M1473.66,346.7c-1.37-2.5-9.58-2-11.14.62s.32,4.77,1.88,6.6,3.57,4.31,5.77,2.86S1475,349.19,1473.66,346.7Z"/><path class="cls-7" d="M1578.7,365.7c-.25,22.48-48.24,23.14-63.44,22.08s-28.88-6.8-43.46-21.52,28.65-63.72,49.49-51.86S1579,343.23,1578.7,365.7Z"/><path class="cls-7" d="M1598.86,393.59c-7.31,4.57-28.71-9.84-29.12-19.36s7.8-12.35,14.66-14.81,15.87-6,19.7,1.47S1606.17,389,1598.86,393.59Z"/><path class="cls-6" d="M1548.63,360.41c2.58-1,8.47,5.11,8,8.16s-3.2,3.38-5.51,3.69-5.37.8-6.13-1.82S1546.05,361.35,1548.63,360.41Z"/><circle cx="1489.9" cy="340.39" r="8.55"/><ellipse class="cls-5" cx="1494.83" cy="338.43" rx="2.42" ry="2.49" transform="translate(941.18 1767.6) rotate(-81.58)"/><circle class="cls-5" cx="1484.25" cy="344.75" r="0.71"/><circle cx="1533.29" cy="350.06" r="8.55"/><ellipse class="cls-5" cx="1528.87" cy="347.12" rx="2.42" ry="2.49" transform="translate(1085.69 1850.96) rotate(-86.37)"/><circle class="cls-5" cx="1537.9" cy="355.5" r="0.71"/><path d="M1509.76,365.34c-5.44,5.75-8.22,3.52-8.92-3.46-.09-.94-.71-.5-1-.3h0c-.32.21-.64.22-.45,1.25,1.38,7.64,5.78,9.69,11.44,3.64.77-.81.39-.8.11-1.12h0C1510.63,365,1510.49,364.56,1509.76,365.34Z"/><path class="cls-8" d="M326.61,940.72a11.2,11.2,0,0,1-6.22-.49c-2-.8-2.65-1.83-3.64-1.53-1.61.48-1.2,3.46-3.07,7.27a11.25,11.25,0,0,1-4.13,4.68c-3.47,1.92-8.79.24-13.49-3.56-2.23,7.41-9.18,11.5-15,10.12-4.38-1-7-5.6-8.5-8.63-9.21-18.74-18.39-54.61-21-65l-13.29-19.48A15.83,15.83,0,0,1,247,843.48l32.75-13.29a15.8,15.8,0,0,1,12.12.09c3.44,1.46,6.09,4.21,8.5,8.63,8.24,15.1,19.27,59.93,19.81,62.15,5.41,5,11.62,12.44,14.47,22.34,2.21,7.69.68,10.88-.09,12.11A12,12,0,0,1,326.61,940.72Z"/><path class="cls-8" d="M276.31,831.59c1,3.37-11.26,14.92-22.23,12a14,14,0,0,1-3.64-1.54l-1.05-2.58-.74-1.84-.61-1.5a4.78,4.78,0,0,1,2.63-6.22l17-6.9a4.76,4.76,0,0,1,6.22,2.63l1.35,3.33h0C275.54,829.69,276.2,831.21,276.31,831.59Z"/><rect class="cls-9" x="241.41" y="817.4" width="33.5" height="13.16" rx="1.14" transform="translate(-290.83 157.49) rotate(-22.08)"/><path d="M303.3,924.86c-5.72-5.57-8.44-3.21-8.84,3.86-.06.95-.7.54-1,.34h0c-.33-.19-.66-.18-.51-1.23,1.07-7.76,5.42-10,11.38-4.16.81.79.42.79.16,1.13h0C304.18,925.13,304.07,925.61,303.3,924.86Z"/><path d="M303.87,901.45c5.9,4.71,8.85,2.27,9.5-4.37.09-.89.76-.57,1.11-.41h0c.35.15.69.12.5,1.11-1.37,7.35-6.05,9.82-12.2,4.86-.82-.67-.42-.7-.13-1h0C302.94,901.27,303.08,900.81,303.87,901.45Z"/><path d="M269.18,914.31c5.9,4.71,8.85,2.27,9.5-4.37.09-.89.75-.57,1.1-.41h0c.36.15.7.11.51,1.1-1.38,7.35-6.05,9.83-12.2,4.87-.83-.67-.42-.7-.13-1h0C268.25,914.13,268.38,913.67,269.18,914.31Z"/><path class="cls-10" d="M324.82,939c-2.79.85-6.22.1-7.28-.13-1.63-.35-2.12-.69-2.89-.37-1.6.68-1.35,2.95-2.76,5.75a12.19,12.19,0,0,1-4.13,4.69c-3.33,1.93-8.69.23-13.49-3.57-4.71,5.47-9.61,8.62-12.63,8.59a7.84,7.84,0,0,1-3.27-.77,7.28,7.28,0,0,1-2.78-2.95c-5.34-9.45-9.68-27.17-10.84-32.06a30.44,30.44,0,0,0,12.81-1.43,35.35,35.35,0,0,0,15.93-10.22l5.74-2.33,5.75-2.34,5.75-2.33c4.55-1.92,4.94-2.34,5.74-2.33a2,2,0,0,1,1.19.33c1.06.75.65,2.34,1.28,4.7a14.54,14.54,0,0,0,1.05,2.58c2,4.23,4.53,5.46,6.78,9.3a19.19,19.19,0,0,1,2.1,5.17,13.26,13.26,0,0,1,3.17,8.06,12.67,12.67,0,0,1-1.76,6.88C329.65,935.23,328,938,324.82,939Z"/><rect class="cls-11" x="251.75" y="881.52" width="16.75" height="2.79" rx="0.19" transform="translate(-293.3 147.44) rotate(-20.54)"/><rect class="cls-11" x="297.03" y="872.59" width="15.54" height="2.59" rx="0.19" transform="translate(-248.7 132.12) rotate(-17.5)"/><g class="cls-12"><circle class="cls-13" cx="274.89" cy="931.18" r="3.16"/></g><path class="cls-5" d="M276,928.79s0,0,0,0-.13.12-.27.06a2,2,0,0,0-.93-.12c-.18,0-.11-.16,0-.27h0a.36.36,0,0,1,.31-.15,1.52,1.52,0,0,1,.79.19C276.05,928.57,276.15,928.7,276,928.79Z"/><g class="cls-12"><circle class="cls-13" cx="282.2" cy="934.21" r="2.42"/></g><path class="cls-5" d="M283.08,932.39h0c-.09.07-.1.09-.21.05a1.68,1.68,0,0,0-.72-.1c-.13,0-.08-.12,0-.2h0a.24.24,0,0,1,.24-.11,1,1,0,0,1,.6.14C283.08,932.22,283.16,932.32,283.08,932.39Z"/><path class="cls-5" d="M327.38,932.5c-.06-.08-.05.06,0,0-.54-.76-.74-.9-.28-1.82a14.29,14.29,0,0,0,1.27-6.12c.06-1.13,1.09-.62,1.77.09h0a2.32,2.32,0,0,1,.81,2.11,10.45,10.45,0,0,1-1.6,5.16C328.84,932.64,327.92,933.26,327.38,932.5Z"/><path class="cls-14" d="M1749.52,166c-15.35,26.81-32.57,16.53-54.08,5s-51.35-17.48-35.12-52.55,34.43-46.73,70.85-31.78S1764.86,139.23,1749.52,166Z"/><path class="cls-14" d="M1665.43,158.18c-1,2.4-6.17,7.86-9,6s1.75-7,2.35-9.37,2.65-8.61,6-7.4S1666.46,155.77,1665.43,158.18Z"/><path class="cls-14" d="M1673.43,165.58c-1.38,2-3.23,8.85-6.5,7.67s-1.59-8.5-.35-10.83,5.29-8.49,8.46-6.73S1674.81,163.53,1673.43,165.58Z"/><circle cx="1737.69" cy="126.94" r="11.77"/><ellipse class="cls-5" cx="1733.2" cy="121.18" rx="3.33" ry="3.43" transform="translate(970.4 1682.2) rotate(-67.96)"/><circle class="cls-5" cx="1741.34" cy="136.05" r="0.98"/><circle cx="1692.37" cy="106.98" r="11.77"/><ellipse class="cls-5" cx="1699.67" cy="106.57" rx="3.33" ry="3.43" transform="translate(837.34 1575.11) rotate(-63.17)"/><circle class="cls-5" cx="1683.11" cy="110.22" r="0.98"/><path class="cls-14" d="M1693.49,145.31a7.11,7.11,0,0,0,4.1,9.76,1.53,1.53,0,0,0,1.85-1,1.54,1.54,0,0,0-1-1.85l-.27-.09c-.31-.1.3.16,0,0l-.46-.25-.19-.12c-.27-.19,0-.09,0,0,0-.09-.35-.3-.42-.38a4.14,4.14,0,0,1-.35-.38c-.21-.23,0,0,0,.05a1,1,0,0,0-.17-.23c-.1-.16-.2-.32-.29-.49a2.12,2.12,0,0,1-.11-.21c0-.05-.14-.36-.06-.12s0,0,0-.09-.07-.18-.1-.27-.09-.33-.13-.5l-.06-.28c0-.27,0,0,0,.07a2.13,2.13,0,0,0,0-.56c0-.18,0-.35,0-.52,0-.35,0,.17,0,0s0-.16,0-.23a2.39,2.39,0,0,1,.15-.54l0-.09c0-.15,0-.12,0,.09,0,0,.1-.21.12-.26a1.5,1.5,0,1,0-2.59-1.51Z"/><path class="cls-15" d="M1709.52,144.5c-1,2.29-4.2,4.35-6.52,3.32s-3-4.09-2.17-6.56,3.19-1.24,4.74-.2S1710.5,142.22,1709.52,144.5Z"/><ellipse class="cls-16" cx="1738.54" cy="149.43" rx="5.68" ry="6.03" transform="translate(820.42 1633.31) rotate(-63.17)"/><ellipse class="cls-16" cx="1673.71" cy="119.95" rx="5.68" ry="6.03" transform="translate(811.16 1559.29) rotate(-63.17)"/><path class="cls-14" d="M1686.51,173.43c-1,2.4-6.17,7.86-9,6s1.75-7,2.35-9.37,2.65-8.61,6-7.4S1687.54,171,1686.51,173.43Z"/><path class="cls-14" d="M1698.3,178.72c-1.38,2.05-3.23,8.85-6.49,7.68s-1.6-8.5-.35-10.83,5.28-8.49,8.46-6.74S1699.68,176.67,1698.3,178.72Z"/><path class="cls-14" d="M1711.59,185.92c-1,2.41-6.18,7.86-8.95,6.06s1.75-7,2.35-9.38,2.65-8.6,6-7.39S1712.62,183.51,1711.59,185.92Z"/><path class="cls-14" d="M1722.56,188.1c-1.08,2.22-2,9.21-5.38,8.5s-2.75-8.21-1.83-10.69,4.07-9.13,7.45-7.82S1723.65,185.88,1722.56,188.1Z"/><path class="cls-17" d="M1805,905.84c-7.76,3.76-15.8,6.66-23.7,10.12a9.76,9.76,0,0,1-12-3.38c-16.54-24.05-32.57-41.54-44.61-68.65a9.75,9.75,0,0,1,6.84-13.54c16.53-3.4,33.27-3.89,50.17-4.67a9.77,9.77,0,0,1,10,7.85c6.53,33.07,4.18,30.26,17.76,59.42A9.72,9.72,0,0,1,1805,905.84Z"/><path class="cls-18" d="M1796.06,828.86c-37.23,9.51-46.91,8.75-83.85,10.29a1.71,1.71,0,0,1-1.78-1.87c.48-5,.77-3.79-1-8.31a1.72,1.72,0,0,1,1.42-2.34c27.68-3,51.61-9.53,82.46-11.6a1.73,1.73,0,0,1,1.84,1.79c-.22,5.84,0,4.51,2.1,9.72A1.73,1.73,0,0,1,1796.06,828.86Z"/><path class="cls-19" d="M1768,771.74c-4.16,1.2-12.73,7-17.79,10a1.72,1.72,0,0,1-2.51-.94l-.27-.83a1.72,1.72,0,0,1,1-2.15c7.14-3,10.85-6.8,18.58-9.4a1.73,1.73,0,0,1,2.26,1.94v0A1.71,1.71,0,0,1,1768,771.74Z"/><path class="cls-19" d="M1750.65,778l-2.14.86a1.73,1.73,0,0,0-1,2.08c4.44,14.88,8.82,22.55,7.38,39a1.75,1.75,0,0,0,1.22,1.81l1,.35a1.72,1.72,0,0,0,2.32-1.63c-.21-17.92-.67-23.76-6.49-41.39A1.72,1.72,0,0,0,1750.65,778Z"/><path d="M1783.62,881.79c-3.95-3.87-5.83-2.24-6.13,2.65,0,.66-.49.38-.72.24h0c-.23-.14-.45-.13-.35-.85.76-5.38,3.77-6.93,7.89-2.86.55.55.29.55.1.78h0C1784.23,882,1784.15,882.31,1783.62,881.79Z"/><path d="M1753.82,868.91c6.9,1.68,7.91-1.35,5-6.95-.38-.75.29-.73.64-.73h0c.34,0,.58-.15,1,.71,2.68,6.44.36,10.12-6.85,8.32-1-.24-.68-.41-.63-.79h0C1753,869.1,1752.89,868.68,1753.82,868.91Z"/><path d="M1786,857.4c-5.71,4.85-8.09,2.46-8-4.17,0-.89-.61-.55-.94-.39h0c-.33.17-.63.14-.56,1.12.51,7.33,4.43,9.71,10.38,4.62.81-.69.45-.71.22-1h0C1786.89,857.21,1786.81,856.75,1786,857.4Z"/><path class="cls-20" d="M492.19,444.94c-7.53,17.89-52.64,14.69-67.62,8.88s-55-24.1-51.62-44.72,65.76-30.82,80.42-20.23S499.71,427.05,492.19,444.94Z"/><path class="cls-20" d="M488.3,430.08c3.64-7.91,9.44-12.49,20.25-14.4a16.46,16.46,0,0,1,11.51,2.16c.72.48-12,10.51-10.48,12.58,1.37,1.88,16.51-5.56,16.81-4.95,1.69,3.5-.29,9.45-3.83,13.93-9.17,11.57-20.06,9.3-25.1,7.41S484.72,437.87,488.3,430.08Z"/><path class="cls-20" d="M383.46,397.53c.63-8.69-2.23-15.5-10.78-22.4a16.55,16.55,0,0,0-11.12-3.67c-.86.07,5.43,15,3.1,16.08-2.11,1-11.77-12.84-12.33-12.45-3.17,2.25-4.31,8.42-3.37,14,2.43,14.56,13.07,17.83,18.4,18.62S382.83,406.07,383.46,397.53Z"/><path class="cls-20" d="M382,434.32c-1.32,2.31-.8,8.91-4.26,9.36s-5.6-11.64-3.66-13.95,5.26-5.56,7.91-3.86S383.3,432,382,434.32Z"/><path class="cls-20" d="M393.84,442.75c-1.33,2.31-.8,8.92-4.26,9.37s-5.61-11.64-3.66-13.95,5.25-5.56,7.91-3.86S395.16,440.44,393.84,442.75Z"/><path class="cls-20" d="M478.82,459.58c0,2.67-3.61,8.19-.79,10.26s10.53-7.48,9.94-10.45-1.91-7.41-5.06-7.2S478.78,456.92,478.82,459.58Z"/><path class="cls-20" d="M466.26,461.17c.05,2.67-3.6,8.2-.79,10.26S476,464,475.41,461s-1.91-7.41-5.06-7.2S466.22,458.51,466.26,461.17Z"/><ellipse class="cls-21" cx="475.83" cy="441.58" rx="7.19" ry="7.64" transform="translate(-84.66 769.1) rotate(-73.16)"/><ellipse class="cls-21" cx="391.22" cy="423.31" rx="7.19" ry="7.64" transform="translate(-127.27 675.13) rotate(-73.16)"/><circle cx="403.37" cy="408.46" r="8.43"/><ellipse class="cls-5" cx="408.47" cy="407.27" rx="2.39" ry="2.46" transform="translate(-99.66 680.25) rotate(-73.16)"/><circle class="cls-5" cx="397.24" cy="411.9" r="0.7"/><circle cx="466.73" cy="424.7" r="8.43"/><ellipse class="cls-5" cx="462.84" cy="421.19" rx="2.39" ry="2.46" transform="translate(-45.68 785.92) rotate(-77.95)"/><circle class="cls-5" cx="470.43" cy="430.67" r="0.7"/><path d="M436,437c-4.13,4.58-6.34,2.9-7-2.52-.09-.73-.57-.39-.82-.22h0c-.25.17-.49.18-.33,1,1.22,5.92,4.69,7.44,9,2.62.58-.65.29-.63.07-.87h0C436.7,436.71,436.58,436.35,436,437Z"/><path class="cls-22" d="M158.91,596.79c-36,3.37-29.89,9.05-56.78,20.86a15.89,15.89,0,0,1-21.87-11.09C71,565.75,82,546.71,99,508.47a16,16,0,0,1,17.18-9.37c21.91,3.69,42.45,1.78,64.41,7.1a15.89,15.89,0,0,1,10.74,21.93c-15.62,35-13.49,6.78-18.1,54.36A15.89,15.89,0,0,1,158.91,596.79Z"/><path class="cls-22" d="M196.6,455.15c.08-.19.17-.39.27-.59a2.57,2.57,0,0,0-3.42-3.41c-30.52,13.76-12,31.86-12.22,58.32a2.56,2.56,0,0,0,2,2.47l.87.23a2.56,2.56,0,0,0,3.28-2.5c-.41-20.78-17.75-45.79,7.45-52.91A2.71,2.71,0,0,0,196.6,455.15Z"/><path d="M137.09,566.54c-2.61-8.23-6.4-7.36-10.39-.84-.54.87-.94.16-1.17-.2h0c-.22-.36-.53-.51.14-1.44,5-6.85,10.28-6.77,13,1.85.36,1.17,0,1-.42,1.15h0C137.79,567.25,137.44,567.65,137.09,566.54Z"/><path d="M110.93,535.52c4.68,8.35,9.3,6.88,13.23-.6.53-1,1.16-.31,1.49,0h0c.34.35.76.47.07,1.54-5.12,8-11.79,8.65-16.64-.1-.66-1.17-.16-1,.34-1.27h0C109.92,534.87,110.29,534.4,110.93,535.52Z"/><path d="M155.27,531.72c4.69,8.35,9.31,6.88,13.24-.6.52-1,1.15-.31,1.49,0h0c.34.35.76.47.07,1.54-5.12,8-11.79,8.65-16.64-.1-.66-1.18-.16-1,.34-1.27h0C154.27,531.07,154.64,530.6,155.27,531.72Z"/><path class="cls-22" d="M96.74,444.47c.09-3.27,1.35-5.67,2.68-8.58-43.54,21.23-8.12,43.37,8.73,68.09,3.42-1.4,6.88-1.15,10.5-1.25C90.53,469.31,72.46,476.91,96.74,444.47Z"/><path class="cls-22" d="M96.92,444a27.66,27.66,0,0,1-7.58-1.36c37.35-28.92,28.37,20.3,28.41,63-3.74,1.13-6.46,3.61-9.72,5.67C108.27,504.73,113.11,408.36,96.92,444Z"/><circle class="cls-23" cx="451.32" cy="168.3" r="25.68"/><path class="cls-5" d="M471,169.77c-.09-.07,0,.09,0,0-.93-.67-1.21-.74-1-2,.35-2.66-.18-4.78-1-7.6-.39-1.33,1-1.15,2.08-.6h0a2.82,2.82,0,0,1,1.78,2.12,12.75,12.75,0,0,1,.22,6.62C472.72,169.34,471.89,170.43,471,169.77Z"/><circle class="cls-23" cx="391.98" cy="127.7" r="14.11"/><path class="cls-5" d="M402.77,128.51s0,.05,0,0c-.51-.37-.67-.41-.57-1.1a9.76,9.76,0,0,0-.54-4.18c-.21-.73.56-.63,1.14-.33h0a1.54,1.54,0,0,1,1,1.17,6.91,6.91,0,0,1,.12,3.63C403.73,128.27,403.28,128.87,402.77,128.51Z"/><path class="cls-5" d="M381,132s0,0,0,0c.4.13.51.12.6.58a6.58,6.58,0,0,0,1.23,2.56c.29.42-.22.52-.66.45h0a1,1,0,0,1-.88-.53,4.74,4.74,0,0,1-.84-2.31C380.44,132.33,380.6,131.85,381,132Z"/><circle class="cls-23" cx="1594.35" cy="947.65" r="25.68"/><path class="cls-5" d="M1614.6,942.81c-.11,0,0,.1,0,0-1.09-.34-1.38-.32-1.62-1.57-.49-2.63-1.66-4.48-3.31-6.9-.78-1.15.6-1.42,1.78-1.23h0a2.85,2.85,0,0,1,2.37,1.45,12.75,12.75,0,0,1,2.28,6.22C1616.13,941.86,1615.69,943.15,1614.6,942.81Z"/><circle class="cls-23" cx="1534.35" cy="903.65" r="14.11"/><path class="cls-5" d="M1543.67,911.09c0-.06,0,0,0,0-.25-.58-.36-.69.07-1.24a9.63,9.63,0,0,0,1.69-3.85c.2-.74.81-.26,1.15.3,0,.06,0-.06,0,0a1.55,1.55,0,0,1,.24,1.51,7.08,7.08,0,0,1-1.77,3.18C1544.61,911.39,1543.92,911.67,1543.67,911.09Z"/><path class="cls-5" d="M1526.12,894.15s0,0,0,0c.13.4.2.49-.13.82a6.68,6.68,0,0,0-1.37,2.49c-.18.48-.55.12-.75-.28h0a1,1,0,0,1-.07-1,4.62,4.62,0,0,1,1.39-2C1525.5,893.89,1526,893.75,1526.12,894.15Z"/><path class="cls-5" d="M1580.67,965.82s0,0,0,0c.42-.05.51-.1.78.29a6.64,6.64,0,0,0,2.17,1.83c.44.27,0,.57-.41.68h0a1,1,0,0,1-1-.13,4.65,4.65,0,0,1-1.72-1.75C1580.29,966.38,1580.25,965.87,1580.67,965.82Z"/><circle class="cls-23" cx="563" cy="918.55" r="25.68"/><path class="cls-5" d="M565.68,939.2c.05-.1-.09,0,0,0,.45-1.05.47-1.34,1.74-1.44,2.67-.22,4.63-1.19,7.21-2.58,1.22-.65,1.35.75,1,1.91,0,.12,0-.12,0,0a2.85,2.85,0,0,1-1.69,2.2,12.76,12.76,0,0,1-6.42,1.61C566.47,940.82,565.23,940.25,565.68,939.2Z"/><circle class="cls-23" cx="613.05" cy="863.5" r="14.11"/><path class="cls-5" d="M604.67,872c.06,0,0,0,0,0,.6-.19.73-.29,1.23.2a9.58,9.58,0,0,0,3.65,2.09c.72.27.17.82-.42,1.11h0a1.56,1.56,0,0,1-1.52.08,7.1,7.1,0,0,1-3-2.1C604.28,872.9,604.07,872.17,604.67,872Z"/><path class="cls-5" d="M623.36,856.32s0,0,0,0c-.41.08-.5.14-.8-.22a6.49,6.49,0,0,0-2.33-1.62c-.46-.23-.06-.57.35-.72h0a1,1,0,0,1,1,0,4.76,4.76,0,0,1,1.87,1.59C623.69,855.73,623.78,856.23,623.36,856.32Z"/><path class="cls-5" d="M546.36,903s0,0,0,0c0,.42,0,.52-.36.75a6.39,6.39,0,0,0-2,2c-.31.4-.57,0-.64-.49,0,0,0,0,0,0a1,1,0,0,1,.24-1,4.7,4.7,0,0,1,1.92-1.52C545.85,902.61,546.35,902.62,546.36,903Z"/><circle class="cls-23" cx="1700.73" cy="354.06" r="25.68"/><path class="cls-5" d="M1703.42,374.71c0-.1-.09,0,0,0,.45-1,.47-1.34,1.73-1.44,2.68-.22,4.64-1.18,7.22-2.57,1.22-.66,1.34.75,1,1.9h0a2.83,2.83,0,0,1-1.69,2.2,12.91,12.91,0,0,1-6.43,1.62C1704.21,376.34,1703,375.76,1703.42,374.71Z"/><circle class="cls-23" cx="1750.79" cy="299.01" r="14.11"/><path class="cls-5" d="M1742.41,307.5c.06,0,0,0,0,0,.6-.19.73-.29,1.22.2a9.62,9.62,0,0,0,3.66,2.09c.71.27.17.83-.42,1.11h0a1.58,1.58,0,0,1-1.53.08,6.92,6.92,0,0,1-3-2.1C1742,308.41,1741.81,307.69,1742.41,307.5Z"/><path class="cls-5" d="M1761.1,291.83s0,0,0,0c-.41.09-.5.14-.81-.22A6.58,6.58,0,0,0,1758,290c-.46-.23-.06-.57.35-.72h0a1,1,0,0,1,1,0,4.76,4.76,0,0,1,1.87,1.59C1761.42,291.24,1761.52,291.74,1761.1,291.83Z"/><path class="cls-5" d="M1684.1,338.55s0,0,0,0c0,.42,0,.53-.37.75a6.47,6.47,0,0,0-2,2c-.32.41-.57,0-.64-.49,0,0,0,.05,0,0a1,1,0,0,1,.24-1,4.7,4.7,0,0,1,1.92-1.52C1683.59,338.12,1684.09,338.13,1684.1,338.55Z"/><circle class="cls-23" cx="150.81" cy="799.71" r="25.68"/><path class="cls-5" d="M171.59,801c-.09-.06,0,.09,0,0-.94-.64-1.23-.72-1.09-2,.29-2.66-.28-4.77-1.15-7.57-.42-1.32,1-1.18,2.06-.65h0a2.83,2.83,0,0,1,1.84,2.08,12.86,12.86,0,0,1,.37,6.61C173.34,800.52,172.54,801.63,171.59,801Z"/><circle class="cls-23" cx="106.25" cy="740.12" r="14.11"/><path class="cls-5" d="M113,750c0-.06,0,0,0,0-.07-.63-.14-.77.44-1.16a9.79,9.79,0,0,0,2.74-3.2c.4-.65.84,0,1,.63,0,.06,0-.07,0,0a1.58,1.58,0,0,1-.21,1.51,7,7,0,0,1-2.62,2.52C113.81,750.52,113.06,750.58,113,750Z"/><path class="cls-5" d="M101.15,728.63s0,0,0,0c0,.43,0,.53-.36.76a6.47,6.47,0,0,0-2,2c-.31.41-.57,0-.64-.48h0a1.07,1.07,0,0,1,.23-1,4.79,4.79,0,0,1,1.92-1.53C100.64,728.21,101.14,728.21,101.15,728.63Z"/><path class="cls-5" d="M132.42,813.1s0,0,0,0c.42.08.53.06.67.5a6.56,6.56,0,0,0,1.54,2.39c.34.38-.15.54-.6.53h0a1,1,0,0,1-.93-.42,4.72,4.72,0,0,1-1.13-2.18C131.9,813.52,132,813,132.42,813.1Z"/><circle class="cls-23" cx="1380.73" cy="128.06" r="25.68"/><path class="cls-5" d="M1383.42,148.71c0-.1-.09,0,0,0,.45-1.05.47-1.34,1.73-1.44,2.68-.22,4.64-1.18,7.22-2.57,1.22-.66,1.34.75,1,1.9h0a2.83,2.83,0,0,1-1.69,2.2,12.91,12.91,0,0,1-6.43,1.62C1384.21,150.34,1383,149.76,1383.42,148.71Z"/><circle class="cls-23" cx="1430.79" cy="73.01" r="14.11"/><path class="cls-5" d="M1422.41,81.5c.06,0,0,0,0,0,.6-.19.73-.29,1.22.2a9.62,9.62,0,0,0,3.66,2.09c.71.27.17.83-.42,1.11h0a1.58,1.58,0,0,1-1.53.08,6.92,6.92,0,0,1-3-2.1C1422,82.41,1421.81,81.69,1422.41,81.5Z"/><path class="cls-5" d="M1441.1,65.83s0,0,0,0c-.41.09-.5.14-.81-.22A6.58,6.58,0,0,0,1438,64c-.46-.23-.06-.57.35-.72,0,0,0,0,0,0a1,1,0,0,1,1,0,4.76,4.76,0,0,1,1.87,1.59C1441.42,65.24,1441.52,65.74,1441.1,65.83Z"/><path class="cls-5" d="M1364.1,112.55s0,0,0,0c0,.42,0,.53-.37.75a6.47,6.47,0,0,0-2,2c-.32.41-.57,0-.64-.49h0a1,1,0,0,1,.24-1,4.7,4.7,0,0,1,1.92-1.52C1363.59,112.12,1364.09,112.13,1364.1,112.55Z"/></g><g id="Layer_5" data-name="Layer 5"><path class="cls-24" d="M1700.3,536.18c-4.45,19.52-8.44,39.55-20.83,55.47a6.76,6.76,0,0,1-6.19,2.49c-15.37-2-29.28-5.1-43.46-11a6.74,6.74,0,0,1-3.49-9.28c3.82-7.37,9.72-11,6.27-18.08a6.64,6.64,0,0,1-.43-5c6.08-18.58,5-37.54,15.6-54.31a6.81,6.81,0,0,1,6.46-3.16c15.9,1.66,30.67,6.6,45.7,11.94a6.75,6.75,0,0,1,4.39,7.66c-1.92,9.56-11.26,7.21-4.8,18.29A6.88,6.88,0,0,1,1700.3,536.18Z"/><path class="cls-25" d="M1715.07,503.68c-1.15,8.5-34.41,3.18-38,1.67s-29.43-7.77-26.53-16.85,23.83-1.78,30.78,1.19S1716.21,495.19,1715.07,503.68Z"/><path class="cls-26" d="M1694.22,499.35c-.42,2.27-5.53,2-6.93,1.36s-7.56.83-7.18-2.31,6.51-2.75,7.47-2.19S1694.65,497.09,1694.22,499.35Z"/><path class="cls-26" d="M1687.12,498c.2,1.07-3.19.92-3.94.95s-3.33-.56-3.23-1.47,1.49,0,2.15.07S1686.93,496.88,1687.12,498Z"/><path class="cls-26" d="M1712.1,503.44c-.89,7.14-30.91,2.11-34.17.78s-26.61-7-24.16-14.64,21.42-1.12,27.72,1.5S1713,496.29,1712.1,503.44Z"/><path d="M1684,542.62c-6.61,1-6.49,4.15-2.12,8.14.59.53,0,.76-.31.89h0c-.3.13-.46.36-1.07-.29-4.49-4.82-3.68-9,3.25-10.05.93-.14.73.12.81.48h0C1684.66,542.15,1684.91,542.48,1684,542.62Z"/><path d="M1655.55,533c2.66,6.15,0,7.71-5.75,6.13-.77-.21-.64.42-.59.74h0c0,.33-.06.59.82.75,6.47,1.23,9.57-1.69,6.77-8.1-.38-.87-.5-.56-.84-.43h0C1655.61,532.22,1655.2,532.18,1655.55,533Z"/><path d="M1662.19,560.43c3.65-4.09,5.73-2.62,6.53,2.16.11.64.53.33.76.18h0c.22-.15.45-.16.27-.86-1.32-5.23-4.55-6.53-8.35-2.23-.51.57-.24.55,0,.77h0C1661.59,560.66,1661.7,561,1662.19,560.43Z"/><path class="cls-27" d="M1159.77,481.27c-7.87,183.3-27.17,200.22-221.31,195.13s-231.28,1.14-253.08-211.7S740.8,154,958.17,168.36,1167.64,298,1159.77,481.27Z"/><path class="cls-27" d="M1267.92,494.39c-10.82,100.49-27.6,129.05-135.71,163.11s-160.5,32.7-98.17-93.32,57.61-67.56,123-42.53S1278.74,393.91,1267.92,494.39Z"/><path class="cls-27" d="M1284.23,417.67c5.07,17.88,19.86,60.24-6.6,62.88s-53.32-20.15-60.58-46.41,6.77-54.45,33.41-54.18S1279.16,399.78,1284.23,417.67Z"/><path class="cls-27" d="M1288.47,426.53c-13.76,12.49-48.71,40.62-27.66,56.85s55.91,11.11,76-7.34,23-49.8.29-63.66S1302.23,414,1288.47,426.53Z"/><circle cx="760.17" cy="415.89" r="48.63"/><ellipse class="cls-5" cx="786.92" cy="401.88" rx="13.76" ry="14.18" transform="translate(352.51 1171.31) rotate(-87.6)"/><circle class="cls-5" cx="730.87" cy="443.91" r="4.06"/><circle cx="1088.79" cy="415.89" r="48.63"/><ellipse class="cls-5" cx="1062.05" cy="401.88" rx="14.18" ry="13.76" transform="translate(-15.87 44.74) rotate(-2.4)"/><circle class="cls-5" cx="1118.09" cy="443.91" r="4.06"/><ellipse class="cls-16" cx="711.77" cy="499.95" rx="16.25" ry="17.27" transform="translate(182.51 1190.21) rotate(-87.6)"/><ellipse class="cls-16" cx="1127.01" cy="489.76" rx="16.25" ry="17.27" transform="translate(590.57 1595.32) rotate(-87.6)"/><path class="cls-28" d="M768.22,651c.13,1.82,3.25,3.38,9.48,6.49,17.94,9,33.44,8.68,67.81,11.55,20.64,1.73,15.86,1.9,31.31,3,22.17,1.65,33.61,1.41,63.88,1.8,13.25.18,36.64.41,83.43.88,30.58.31,40.67.44,42.42-3.45,3.8-8.47-35.77-27.6-37.83-28.59C928.8,594.92,767,634.47,768.22,651Z"/><path class="cls-29" d="M1156,545.25c11,8.26,6.2,41.42-8.38,48.09-4,1.8-15.82-1.9-39.41-9.37-10.29-3.26-11.94-4-12.46-5.72C1092.46,567.21,1140.92,533.85,1156,545.25Z"/><ellipse class="cls-29" cx="936.5" cy="182.74" rx="5.5" ry="18.71" transform="translate(714.78 1110.78) rotate(-87.6)"/><ellipse class="cls-30" cx="967.8" cy="119.13" rx="15.74" ry="23.25" transform="translate(51.06 451.42) rotate(-26.94)"/><ellipse class="cls-30" cx="980.54" cy="120.4" rx="23.28" ry="15.74" transform="translate(345.33 877.01) rotate(-56.99)"/><ellipse class="cls-30" cx="931.12" cy="67.27" rx="11.22" ry="16.57" transform="translate(70.58 429.18) rotate(-26.94)"/><ellipse class="cls-30" cx="940.2" cy="68.18" rx="16.59" ry="11.22" transform="translate(370.75 819.42) rotate(-56.99)"/><ellipse class="cls-30" cx="983.7" cy="33.34" rx="11.22" ry="16.57" transform="translate(18.43 225.78) rotate(-13.22)"/><ellipse class="cls-30" cx="992.31" cy="36.38" rx="16.59" ry="11.22" transform="translate(244.72 689.92) rotate(-43.26)"/><path d="M941.5,489c-13.75,29.27-27.4,24.18-39-2-1.57-3.53-3.41-1.07-4.41.15h0c-1,1.23-2.23,1.65-.19,5.41,15.14,27.89,34.82,30.21,49.07-.48,1.92-4.14.47-3.58-1-4.48h0C944.46,486.71,943.35,485.06,941.5,489Z"/></g><g id="hvalen_hvalborg" data-name="hvalen hvalborg"><g class="cls-31"><path class="cls-27" d="M478.35,712.35h3a15.41,15.41,0,0,1,11.4,4.9,16.38,16.38,0,0,1,4.7,11.77v50.69a16.42,16.42,0,0,1-4.7,11.77,15.43,15.43,0,0,1-11.4,4.89h-3A15.43,15.43,0,0,1,467,791.48a16.42,16.42,0,0,1-4.7-11.77V766a4.72,4.72,0,0,0-1.34-3.38,4.29,4.29,0,0,0-3.24-1.4h-.22a4.32,4.32,0,0,0-3.25,1.4,4.72,4.72,0,0,0-1.34,3.38v13.63a16.38,16.38,0,0,1-4.69,11.77,15.09,15.09,0,0,1-11.29,4.89h-3.13a15.07,15.07,0,0,1-11.28-4.89,16.38,16.38,0,0,1-4.7-11.77V729a16.38,16.38,0,0,1,4.7-11.76,15,15,0,0,1,11.28-4.9h3.13a15.06,15.06,0,0,1,11.29,4.9A16.37,16.37,0,0,1,452.87,729v13.76a4.74,4.74,0,0,0,1.34,3.38,4.35,4.35,0,0,0,3.25,1.39h.22a4.31,4.31,0,0,0,3.24-1.39,4.74,4.74,0,0,0,1.34-3.38V729a16.38,16.38,0,0,1,4.7-11.76A15.4,15.4,0,0,1,478.35,712.35Z"/><path class="cls-27" d="M582.13,736q-6.36,16.2-19.33,48.59a18.17,18.17,0,0,1-6.71,8.51,17.08,17.08,0,0,1-10.17,3.26H541a17.08,17.08,0,0,1-10.17-3.26A17.91,17.91,0,0,1,524,784.6q-6.37-16.2-19.33-48.59a17.89,17.89,0,0,1-1.23-6.41,16.68,16.68,0,0,1,1.34-6.41,16.5,16.5,0,0,1,8.6-9.09c.23-.08.6-.23,1.12-.47a15.09,15.09,0,0,1,12.41,0,16.06,16.06,0,0,1,8.6,9.09q2.24,5.71,6.82,17.25a.94.94,0,0,0,1,.7,1.15,1.15,0,0,0,1.12-.7q2.24-5.82,6.82-17.25a16,16,0,0,1,8.72-9.09,15.38,15.38,0,0,1,6-1.28,15.66,15.66,0,0,1,6.15,1.28,7,7,0,0,0,1.23.47,16,16,0,0,1,8.71,9.09,15.44,15.44,0,0,1,1.23,6.52A17.21,17.21,0,0,1,582.13,736Z"/><path class="cls-27" d="M666,748.24V779.7a16.38,16.38,0,0,1-4.69,11.77,15.06,15.06,0,0,1-11.29,4.9h-9a10.77,10.77,0,0,1-10.53-11,2.26,2.26,0,0,0-.67-1.63,2.05,2.05,0,0,0-1.67-.82h-4.81a2,2,0,0,0-1.56.82,2.26,2.26,0,0,0-.67,1.63,10.77,10.77,0,0,1-10.53,11h-9a15.06,15.06,0,0,1-11.29-4.9,16.38,16.38,0,0,1-4.69-11.77V748.24a36.46,36.46,0,0,1,16.2-30.41,34.68,34.68,0,0,1,8.61-4,32.08,32.08,0,0,1,9.5-1.4h11.84a32.08,32.08,0,0,1,9.5,1.4,34.68,34.68,0,0,1,8.61,4A36.46,36.46,0,0,1,666,748.24Zm-35.42,4.08a4.7,4.7,0,0,0-1.35-3.38,4.59,4.59,0,0,0-3.24-1.4h-.22a4.36,4.36,0,0,0-3.24,1.4,4.74,4.74,0,0,0-1.34,3.38v9.44a2.42,2.42,0,0,0,.67,1.75,2.09,2.09,0,0,0,1.56.7h4.81a2.23,2.23,0,0,0,1.68-.7,2.46,2.46,0,0,0,.67-1.75Z"/><path class="cls-27" d="M733.07,781.34v1.86a13,13,0,0,1-3.69,9.33,11.94,11.94,0,0,1-8.94,3.84H688a15.09,15.09,0,0,1-11.29-4.89,16.41,16.41,0,0,1-4.69-11.77V729.13a16.39,16.39,0,0,1,4.69-11.77A15.09,15.09,0,0,1,688,712.47h1.34a15.1,15.1,0,0,1,11.29,4.89,16.39,16.39,0,0,1,4.69,11.77v36.71a2.28,2.28,0,0,0,.67,1.63,2.1,2.1,0,0,0,1.57.7h12.85a11.77,11.77,0,0,1,8.94,4A12.85,12.85,0,0,1,733.07,781.34Z"/><path class="cls-27" d="M802.46,740.67H774.63a2.06,2.06,0,0,0-1.56.7,2.27,2.27,0,0,0-.68,1.63v.12a2.39,2.39,0,0,0,.68,1.74,2.06,2.06,0,0,0,1.56.7h15.2a7.27,7.27,0,0,1,5.59,2.45,8.13,8.13,0,0,1,2.34,5.83v2.1a8.27,8.27,0,0,1-2.34,5.94,7.27,7.27,0,0,1-5.59,2.45h-15.2a2.09,2.09,0,0,0-1.56.69,2.31,2.31,0,0,0-.68,1.64v.11a2.68,2.68,0,0,0,.68,1.75,2.06,2.06,0,0,0,1.56.7h27.83A12.1,12.1,0,0,1,811.4,773a13,13,0,0,1,3.69,9.32v.93a13,13,0,0,1-3.69,9.33,11.94,11.94,0,0,1-8.94,3.84H755.07a15.1,15.1,0,0,1-11.29-4.89,16.45,16.45,0,0,1-4.69-11.77V729.13a16.39,16.39,0,0,1,4.69-11.77,15.09,15.09,0,0,1,11.29-4.89h47.39a11.94,11.94,0,0,1,8.94,3.84,13,13,0,0,1,3.69,9.33v1.86a13,13,0,0,1-3.69,9.32A11.91,11.91,0,0,1,802.46,740.67Z"/><path class="cls-27" d="M900.88,729.13v51.63a15.24,15.24,0,0,1-4.36,11,14,14,0,0,1-10.5,4.54h-.11a16.76,16.76,0,0,1-4.92-.93,16.43,16.43,0,0,1-4.36-2.56,4.85,4.85,0,0,1-1.34-1.17,14.44,14.44,0,0,1-1.12-1.28q-5.59-7-16.76-20.86a1.77,1.77,0,0,0-2-.35,1.65,1.65,0,0,0-1,1.63v9a16.45,16.45,0,0,1-4.69,11.77,15.1,15.1,0,0,1-11.29,4.89h-1.34a15.09,15.09,0,0,1-11.29-4.89,16.42,16.42,0,0,1-4.7-11.77V729.13a16.4,16.4,0,0,1,4.7-11.77,15.09,15.09,0,0,1,11.29-4.89h2.45a14.74,14.74,0,0,1,4.14.58,14.38,14.38,0,0,1,4.58,2.1,22.14,22.14,0,0,1,2,1.63,10.27,10.27,0,0,1,1.68,2q4.25,5.47,12.52,16.43a1.61,1.61,0,0,0,1.9.35,1.87,1.87,0,0,0,1.11-1.75v-4.66a16.4,16.4,0,0,1,4.7-11.77,15.09,15.09,0,0,1,11.29-4.89h1.23a15.47,15.47,0,0,1,11.4,4.89A16.88,16.88,0,0,1,900.88,729.13Z"/><path class="cls-27" d="M1012.87,712.35h3a15.44,15.44,0,0,1,11.4,4.9A16.38,16.38,0,0,1,1032,729v50.69a16.41,16.41,0,0,1-4.69,11.77,15.47,15.47,0,0,1-11.4,4.89h-3a15.43,15.43,0,0,1-11.4-4.89,16.41,16.41,0,0,1-4.69-11.77V766a4.72,4.72,0,0,0-1.34-3.38,4.32,4.32,0,0,0-3.25-1.4H992a4.29,4.29,0,0,0-3.24,1.4,4.72,4.72,0,0,0-1.34,3.38v13.63a16.42,16.42,0,0,1-4.69,11.77,15.1,15.1,0,0,1-11.29,4.89h-3.13A15.09,15.09,0,0,1,957,791.36a16.38,16.38,0,0,1-4.69-11.77V729A16.37,16.37,0,0,1,957,717.25a15.06,15.06,0,0,1,11.29-4.9h3.13a15.08,15.08,0,0,1,11.29,4.9A16.41,16.41,0,0,1,987.39,729v13.76a4.74,4.74,0,0,0,1.34,3.38,4.31,4.31,0,0,0,3.24,1.39h.22a4.35,4.35,0,0,0,3.25-1.39,4.74,4.74,0,0,0,1.34-3.38V729a16.37,16.37,0,0,1,4.69-11.76A15.41,15.41,0,0,1,1012.87,712.35Z"/><path class="cls-27" d="M1116.65,736q-6.37,16.2-19.33,48.59a18.23,18.23,0,0,1-6.71,8.51,17.1,17.1,0,0,1-10.17,3.26h-4.92a17.12,17.12,0,0,1-10.17-3.26,17.89,17.89,0,0,1-6.81-8.51q-6.37-16.2-19.34-48.59a18.11,18.11,0,0,1-1.23-6.41,16.87,16.87,0,0,1,1.34-6.41,16.52,16.52,0,0,1,8.61-9.09c.22-.08.59-.23,1.12-.47a15.06,15.06,0,0,1,12.4,0,16.08,16.08,0,0,1,8.61,9.09q2.23,5.71,6.81,17.25a1,1,0,0,0,1,.7,1.16,1.16,0,0,0,1.12-.7q2.23-5.82,6.81-17.25a16,16,0,0,1,8.72-9.09,15.43,15.43,0,0,1,6-1.28,15.65,15.65,0,0,1,6.14,1.28,7.27,7.27,0,0,0,1.23.47,16,16,0,0,1,8.72,9.09,15.6,15.6,0,0,1,1.23,6.52A17.21,17.21,0,0,1,1116.65,736Z"/><path class="cls-27" d="M1200.55,748.24V779.7a16.42,16.42,0,0,1-4.69,11.77,15.08,15.08,0,0,1-11.29,4.9h-9a10.76,10.76,0,0,1-10.53-11,2.26,2.26,0,0,0-.67-1.63,2.08,2.08,0,0,0-1.68-.82h-4.8a2,2,0,0,0-1.57.82,2.3,2.3,0,0,0-.67,1.63,10.76,10.76,0,0,1-10.53,11h-9a15.05,15.05,0,0,1-11.28-4.9,16.38,16.38,0,0,1-4.7-11.77V748.24a36.43,36.43,0,0,1,16.21-30.41,34.78,34.78,0,0,1,8.6-4,32.13,32.13,0,0,1,9.5-1.4h11.85a32.13,32.13,0,0,1,9.5,1.4,34.78,34.78,0,0,1,8.6,4,36.43,36.43,0,0,1,16.21,30.41Zm-35.43,4.08a4.74,4.74,0,0,0-1.34-3.38,4.63,4.63,0,0,0-3.24-1.4h-.22a4.4,4.4,0,0,0-3.25,1.4,4.74,4.74,0,0,0-1.34,3.38v9.44a2.46,2.46,0,0,0,.67,1.75,2.1,2.1,0,0,0,1.57.7h4.8a2.23,2.23,0,0,0,1.68-.7,2.42,2.42,0,0,0,.67-1.75Z"/><path class="cls-27" d="M1267.58,781.34v1.86a13,13,0,0,1-3.69,9.33,11.92,11.92,0,0,1-8.94,3.84h-32.41a15.07,15.07,0,0,1-11.28-4.89,16.42,16.42,0,0,1-4.7-11.77V729.13a16.4,16.4,0,0,1,4.7-11.77,15.08,15.08,0,0,1,11.28-4.89h1.34a15.09,15.09,0,0,1,11.29,4.89,16.4,16.4,0,0,1,4.7,11.77v36.71a2.28,2.28,0,0,0,.67,1.63,2.06,2.06,0,0,0,1.56.7H1255a11.76,11.76,0,0,1,8.94,4A12.85,12.85,0,0,1,1267.58,781.34Z"/><path class="cls-27" d="M1353.29,769.45v3a23.48,23.48,0,0,1-6.71,16.9,21.85,21.85,0,0,1-16.2,7h-43a13,13,0,0,1-9.72-4.19,14.13,14.13,0,0,1-4-10.14V726.8a14.13,14.13,0,0,1,4-10.14,13,13,0,0,1,9.72-4.19h40.46a20.56,20.56,0,0,1,15.42,6.64,22.38,22.38,0,0,1,6.37,16.08v1.52a21.78,21.78,0,0,1-1.34,7.69,22.51,22.51,0,0,1-3.46,6.52,24.66,24.66,0,0,1,6.14,8.16A23.14,23.14,0,0,1,1353.29,769.45Zm-33.64-28.9a4.74,4.74,0,0,0-1.34-3.38,4.34,4.34,0,0,0-3.24-1.4h-9a2.34,2.34,0,0,0-2.35,2.34v5a2.38,2.38,0,0,0,.67,1.74,2.23,2.23,0,0,0,1.68.7h9a4.33,4.33,0,0,0,3.24-1.39,4.74,4.74,0,0,0,1.34-3.38Zm0,28.55a4.74,4.74,0,0,0-1.34-3.38,4.33,4.33,0,0,0-3.24-1.39h-9a2.25,2.25,0,0,0-1.68.69,2.3,2.3,0,0,0-.67,1.64v5a2.28,2.28,0,0,0,.67,1.63,2.1,2.1,0,0,0,1.68.81h9a4.17,4.17,0,0,0,3.24-1.51,4.58,4.58,0,0,0,1.34-3.26Z"/><path class="cls-27" d="M1435.17,750.69v7.46a37.76,37.76,0,0,1-4.8,18.88,36.69,36.69,0,0,1-12.52,13.63,38.17,38.17,0,0,1-9.17,4.2,33.59,33.59,0,0,1-10.17,1.51h-6.37a33.91,33.91,0,0,1-18.1-5A36.44,36.44,0,0,1,1361,778.31a42.25,42.25,0,0,1-4-9.44,39.08,39.08,0,0,1-1.45-10.72v-7.46a37.76,37.76,0,0,1,4.8-18.88,36.61,36.61,0,0,1,12.52-13.63,38.6,38.6,0,0,1,9-4.2,34.75,34.75,0,0,1,10.28-1.51h6.37a34.31,34.31,0,0,1,10.17,1.51,36.05,36.05,0,0,1,9.06,4.2,38.59,38.59,0,0,1,17.43,32.51Zm-35.2,1.75a4.72,4.72,0,0,0-1.34-3.38,4.36,4.36,0,0,0-3.25-1.4h-.22a4.32,4.32,0,0,0-3.24,1.4,4.72,4.72,0,0,0-1.34,3.38v4.08a4.74,4.74,0,0,0,1.34,3.38,4.32,4.32,0,0,0,3.24,1.4h.22a4.36,4.36,0,0,0,3.25-1.4,4.72,4.72,0,0,0,1.34-3.38Z"/><path class="cls-27" d="M1512.46,790.43l-.89.93a15.35,15.35,0,0,1-22.69,0q-4.12-4.3-12.51-12.93a.92.92,0,0,0-1.23-.24,1,1,0,0,0-.67,1v.35a16.43,16.43,0,0,1-4.7,11.77,15.09,15.09,0,0,1-11.29,4.89h-1.34a15.07,15.07,0,0,1-11.28-4.89,16.38,16.38,0,0,1-4.7-11.77V729.13a16.38,16.38,0,0,1,4.7-11.77,14.9,14.9,0,0,1,11.28-5h31.41a24.77,24.77,0,0,1,7.93,1.28,27.57,27.57,0,0,1,7.15,3.27,30.52,30.52,0,0,1,9.84,10.6,30.16,30.16,0,0,1,3.69,14.68v1.87a29.75,29.75,0,0,1-2,11,30.88,30.88,0,0,1-5.48,9.09c.67.62,1.6,1.56,2.79,2.8a16.4,16.4,0,0,1,4.7,11.77A16.16,16.16,0,0,1,1512.46,790.43Zm-38-45.33a2.28,2.28,0,0,0,.67,1.63,2.06,2.06,0,0,0,1.56.7h5.92a4.32,4.32,0,0,0,3.24-1.4,4.55,4.55,0,0,0,1.35-3.26v-.35a4.58,4.58,0,0,0-1.35-3.27,4.19,4.19,0,0,0-3.24-1.51h-5.92a2,2,0,0,0-1.56.82,2.26,2.26,0,0,0-.67,1.63Z"/><path class="cls-27" d="M1556.35,754.3v.24a5,5,0,0,0,1.34,3.38,4.31,4.31,0,0,0,3.24,1.39h6.71a1.3,1.3,0,0,0,.78-.23,4.33,4.33,0,0,0,.67-.58,16.86,16.86,0,0,1,5.48-4.66,14.7,14.7,0,0,1,7.26-1.87h4.92a15.44,15.44,0,0,1,11.4,4.9,16.42,16.42,0,0,1,4.69,11.77v11.07a16.41,16.41,0,0,1-4.69,11.77,15.47,15.47,0,0,1-11.4,4.89h-26.94a33.91,33.91,0,0,1-18.1-5,36.36,36.36,0,0,1-13.08-13.05,42.25,42.25,0,0,1-4-9.44,39.08,39.08,0,0,1-1.45-10.72v-7.46a37.76,37.76,0,0,1,4.8-18.88,36.61,36.61,0,0,1,12.52-13.63,38.6,38.6,0,0,1,9-4.2,34.75,34.75,0,0,1,10.28-1.51h26.94a15.47,15.47,0,0,1,11.4,4.89,16.45,16.45,0,0,1,4.69,11.77v3.73a16.38,16.38,0,0,1-4.69,11.77,15.29,15.29,0,0,1-11.4,5H1561a4.52,4.52,0,0,0-3.24,1.28A5.16,5.16,0,0,0,1556.35,754.3Z"/></g></g></svg>
