<svg xmlns="http://www.w3.org/2000/svg" viewBox="0 0 160 120"><defs><style>.cls-1{fill:#ff7bac;}.cls-2{fill:#9e005d;opacity:0.8;}.cls-3{fill:#fff;}</style></defs><g id="hvalborg"><path class="cls-1" d="M99.53,105.23A55.77,55.77,0,0,1,80,91.93c-16.11,13.91-27.38,20.94-31.4,17.91-.82-.63-2.81-2.1-1.41-9.93l4.62-25.82a133.21,133.21,0,0,1-16.59-11c-9.59-7.44-10.17-10-9.75-11.52.46-1.62,2.33-2.56,4-3.11A90.07,90.07,0,0,1,61.4,39.17c3.61-7.35,6.45-13.43,8.42-17.73,3.47-7.57,5.23-11.9,8-12,2.2-.06,4.08,2.6,5.32,4.87S85.5,18.73,86.67,21C90,27.35,92.9,33.57,95.54,39.62c1.81.2,4.41.5,7.53.88,13.68,1.66,16.23,2.27,17.74,2.66,6.77,1.78,13,3.41,13.74,7.1.16.76.65,3.79-9.75,12A130.26,130.26,0,0,1,106.37,74.3c.42,1.11,1,2.58,1.58,4.33,5.55,15.73,9,25.65,5.76,28.82C111.15,109.92,105.3,107.55,99.53,105.23Z"/><rect class="cls-1" x="85.78" y="66.22" height="2.22"/><circle class="cls-2" cx="55.19" cy="66.22" r="3.1"/><circle class="cls-2" cx="103.96" cy="65.77" r="3.1"/><circle cx="95.7" cy="53.69" r="6.67"/><ellipse class="cls-3" cx="92.03" cy="51.77" rx="1.95" ry="1.89" transform="translate(-2.08 3.89) rotate(-2.4)"/><circle class="cls-3" cx="99.72" cy="57.54" r="0.56"/><circle cx="60.24" cy="54.05" r="6.67"/><ellipse class="cls-3" cx="63.91" cy="52.13" rx="1.89" ry="1.95" transform="translate(9.15 113.81) rotate(-87.6)"/><circle class="cls-3" cx="56.22" cy="57.9" r="0.56"/><path d="M84.72,70.45C81.35,77.62,78,76.37,75.17,70c-.39-.86-.84-.26-1.08,0h0c-.25.3-.55.4,0,1.32,3.71,6.83,8.52,7.4,12-.11.47-1,.12-.88-.25-1.1h0C85.44,69.89,85.17,69.49,84.72,70.45Z"/></g></svg>
