<svg xmlns="http://www.w3.org/2000/svg" viewBox="0 0 160 165"><defs><style>.cls-1{fill:#009485;}.cls-2{fill:#fff;}.cls-3{stroke:#000;stroke-miterlimit:10;}.cls-4{fill:#fc697a;opacity:0.4;}</style></defs><g id="hvalborg"><path class="cls-1" d="M130.24,93.31c-2.88,30.76-22.81,28.52-47.15,27s-54,5.32-53.71-33.32,12-56.78,51.34-58.25S133.12,62.56,130.24,93.31Z"/><path class="cls-1" d="M50.44,121c.05,2.62-2.37,9.71-5.64,9.21s-1.3-7.09-1.74-9.5-1.15-8.93,2.44-9.24S50.38,118.33,50.44,121Z"/><path class="cls-1" d="M60.78,124.38c-.41,2.43.72,9.39-2.73,9.67s-5-7.08-4.81-9.71,1.3-9.92,4.92-9.63S61.19,121.94,60.78,124.38Z"/><circle cx="103.3" cy="62.62" r="11.77"/><ellipse class="cls-2" cx="96.83" cy="59.23" rx="3.43" ry="3.33" transform="translate(-2.39 4.1) rotate(-2.4)"/><circle class="cls-2" cx="110.39" cy="69.4" r="0.98"/><circle cx="53.78" cy="63.19" r="11.77"/><ellipse class="cls-2" cx="60.26" cy="59.8" rx="3.33" ry="3.43" transform="translate(-2.01 117.5) rotate(-87.6)"/><circle class="cls-2" cx="46.69" cy="69.97" r="0.98"/><path class="cls-1" d="M70.66,97.78a7.08,7.08,0,0,0,7.54,7,1.68,1.68,0,0,0,1.06-.44,1.56,1.56,0,0,0,.44-1.06c0-.73-.67-1.6-1.5-1.5a5,5,0,0,1-1.09,0c-.3,0,.38.07,0,0a1.4,1.4,0,0,1-.28-.06,3.36,3.36,0,0,1-.48-.14,2.34,2.34,0,0,0-.24-.09l.13.06-.12-.06c-.16-.08-.32-.16-.48-.26s-.3-.2-.45-.31,0,0,.13.11l-.13-.11-.19-.16-.36-.36-.19-.23c-.23-.27.17.24,0,0a6.79,6.79,0,0,1-.55-.94c-.13-.25.12.33,0,0a2.25,2.25,0,0,0-.08-.24,5.12,5.12,0,0,1-.15-.56,2.21,2.21,0,0,0,0-.25c.11.38,0,.22,0,.07a3.88,3.88,0,0,1,0-.59,1.5,1.5,0,0,0-1.5-1.5,1.53,1.53,0,0,0-1.5,1.5Z"/><path class="cls-3" d="M84.92,90.26C85,92.74,82.9,96,80.36,96S76,93.49,75.67,90.9s2.39-2.45,4.23-2.14S84.87,87.78,84.92,90.26Z"/><ellipse class="cls-4" cx="113.38" cy="82.74" rx="5.68" ry="6.03" transform="matrix(0.04, -1, 1, 0.04, 25.97, 192.56)"/><ellipse class="cls-4" cx="42.16" cy="82.73" rx="5.68" ry="6.03" transform="translate(-42.26 121.39) rotate(-87.6)"/><path class="cls-1" d="M75.94,126.11c0,2.62-2.37,9.71-5.64,9.21s-1.3-7.09-1.74-9.5-1.15-8.93,2.44-9.23S75.88,123.49,75.94,126.11Z"/><path class="cls-1" d="M88.87,126.05c-.41,2.44.72,9.4-2.74,9.68s-5-7.08-4.8-9.72,1.3-9.91,4.91-9.63S89.28,123.61,88.87,126.05Z"/><path class="cls-1" d="M103.94,127.11c0,2.62-2.37,9.71-5.64,9.21s-1.3-7.09-1.74-9.5-1.15-8.93,2.44-9.23S103.88,124.49,103.94,127.11Z"/><path class="cls-1" d="M114.83,124.56c-.07,2.47,2,9.21-1.38,10s-5.9-6.34-6.09-9-.07-10,3.55-10.21S114.9,122.08,114.83,124.56Z"/></g></svg>
